<svg xmlns="http://www.w3.org/2000/svg" version="1.1" xmlns:xlink="http://www.w3.org/1999/xlink" xmlns:svgjs="http://svgjs.com/svgjs" width="1000" height="1000"><g transform="matrix(1.3591019054608715,0,0,1.3591019054608715,-0.0017915643159653882,75.80950232120165)"><svg xmlns="http://www.w3.org/2000/svg" version="1.1" xmlns:xlink="http://www.w3.org/1999/xlink" xmlns:svgjs="http://svgjs.com/svgjs" width="735.78" height="624.22"><svg id="Calque_2" data-name="Calque 2" xmlns="http://www.w3.org/2000/svg" viewBox="0 0 735.78 624.22">
  <defs>
    <style>.cls-1 {
  fill: #343434;
}

.cls-2 {
  fill: #2c1d2c;
}

.cls-3 {
  fill: #262626;
}

.cls-4 {
  fill: #1f161e;
}

.cls-5 {
  fill: #1b121d;
}

.cls-6 {
  fill: #1b101b;
}

.cls-7 {
  fill: #130913;
}

.cls-8 {
  fill: #2a222b;
}

.cls-9 {
  fill: #170816;
}

.cls-10 {
  fill: #190a18;
}

.cls-11 {
  fill: #160d14;
}

.cls-12 {
  fill: #150916;
}

.cls-13 {
  fill: #140814;
}

.cls-14 {
  fill: #160c16;
}

.cls-15 {
  fill: #160814;
}

.cls-16 {
  fill: #201720;
}

.cls-17 {
  fill: #150b15;
}

.cls-18 {
  fill: #1f121f;
}

.cls-19 {
  fill: #151012;
}

.cls-20 {
  fill: #170b15;
}

.cls-21 {
  fill: #222;
}

.cls-22 {
  fill: #18101a;
}

.cls-23 {
  fill: #251821;
}

.cls-24 {
  fill: #160916;
}

.cls-25 {
  fill: #181017;
}

.cls-26 {
  fill: #140813;
}

.cls-27 {
  fill: #1a1017;
}

.cls-28 {
  fill: #190d15;
}

.cls-29 {
  fill: #1b151b;
}

.cls-30 {
  fill: #201520;
}

.cls-31 {
  fill: #1d151c;
}

.cls-32 {
  fill: #190e17;
}

.cls-33 {
  fill: #1a0a16;
}

.cls-34 {
  fill: #1b131a;
}

.cls-35 {
  fill: #303030;
}

.cls-36 {
  fill: #222021;
}

.cls-37 {
  fill: #1d141c;
}

.cls-38 {
  fill: #140815;
}

.cls-39 {
  fill: #392d3a;
}

.cls-40 {
  fill: #180b13;
}

.cls-41 {
  fill: #232323;
}

.cls-42 {
  fill: #1b111a;
}

.cls-43 {
  fill: #2f2f2f;
}

.cls-44 {
  fill: #160918;
}

.cls-45 {
  fill: #170c17;
}

.cls-46 {
  fill: #190d16;
}

.cls-47 {
  fill: #190e18;
}

.cls-48 {
  fill: #2f212c;
}

.cls-49 {
  fill: #1a1219;
}

.cls-50 {
  fill: #170a18;
}

.cls-51 {
  fill: #150814;
}

.cls-52 {
  fill: #150a15;
}

.cls-53 {
  fill: #170915;
}

.cls-54 {
  fill: #daccd9;
}

.cls-55 {
  fill: #170c14;
}

.cls-56 {
  fill: #1c0f1e;
}

.cls-57 {
  fill: #210f21;
}

.cls-58 {
  fill: #180915;
}

.cls-59 {
  fill: #241822;
}

.cls-60 {
  fill: #201120;
}

.cls-61 {
  fill: #3e393b;
}

.cls-62 {
  fill: #180b16;
}

.cls-63 {
  fill: #110f11;
}

.cls-64 {
  fill: #353538;
}

.cls-65 {
  fill: #180b18;
}

.cls-66 {
  fill: #160a14;
}

.cls-67 {
  fill: #180917;
}

.cls-68 {
  fill: #2a2a2a;
}

.cls-69 {
  fill: #150b16;
}

.cls-70 {
  fill: #272525;
}

.cls-71 {
  fill: #1a0b1a;
}

.cls-72 {
  fill: #181315;
}

.cls-73 {
  fill: #242424;
}

.cls-74 {
  fill: #150a14;
}

.cls-75 {
  fill: #180f18;
}

.cls-76 {
  fill: #170b17;
}

.cls-77 {
  fill: #37313c;
}

.cls-78 {
  fill: #160914;
}

.cls-79 {
  fill: #170a16;
}

.cls-80 {
  fill: #160915;
}

.cls-81 {
  fill: #353235;
}

.cls-82 {
  fill: #190c18;
}

.cls-83 {
  fill: #3a3a3a;
}

.cls-84 {
  fill: #160a12;
}

.cls-85 {
  fill: #1a0d19;
}

.cls-86 {
  fill: #aaa2a9;
}

.cls-87 {
  fill: #1b121b;
}

.cls-88 {
  fill: #615763;
}

.cls-89 {
  fill: #170d17;
}

.cls-90 {
  fill: #342a35;
}

.cls-91 {
  fill: #29282b;
}

.cls-92 {
  fill: #c3bdc4;
}

.cls-93 {
  fill: #191119;
}

.cls-94 {
  fill: #1f141d;
}

.cls-95 {
  fill: #f1e8f1;
}

.cls-96 {
  fill: #180916;
}

.cls-97 {
  fill: #160e15;
}

.cls-98 {
  fill: #1e101f;
}

.cls-99 {
  fill: #313133;
}

.cls-100 {
  fill: #211921;
}

.cls-101 {
  fill: #180e17;
}

.cls-102 {
  fill: #150714;
}

.cls-103 {
  fill: #1c0c1b;
}

.cls-104 {
  fill: #170f17;
}

.cls-105 {
  fill: #180b15;
}

.cls-106 {
  fill: #2e242a;
}

.cls-107 {
  fill: #1b1219;
}

.cls-108 {
  fill: #191018;
}

.cls-109 {
  fill: #2d2d2d;
}

.cls-110 {
  fill: #383838;
}

.cls-111 {
  fill: #1b101d;
}

.cls-112 {
  fill: #272627;
}

.cls-113 {
  fill: #1d141e;
}

.cls-114 {
  fill: #252525;
}

.cls-115 {
  fill: #160912;
}

.cls-116 {
  fill: #1c1219;
}

.cls-117 {
  fill: #120a12;
}

.cls-118 {
  fill: #8f7f8b;
}

.cls-119 {
  fill: #302a2d;
}

.cls-120 {
  fill: #180b19;
}

.cls-121 {
  fill: #372c32;
}

.cls-122 {
  fill: #150a16;
}

.cls-123 {
  fill: #140a13;
}

.cls-124 {
  fill: #251721;
}

.cls-125 {
  fill: #1f1f1f;
}

.cls-126 {
  fill: #150815;
}

.cls-127 {
  fill: #454545;
}

.cls-128 {
  fill: #1a1018;
}

.cls-129 {
  fill: #180816;
}

.cls-130 {
  fill: #150915;
}

.cls-131 {
  fill: #170917;
}

.cls-132 {
  fill: #1c0d1f;
}

.cls-133 {
  fill: #1c111a;
}

.cls-134 {
  fill: #160b16;
}

.cls-135 {
  fill: #1a0c1b;
}

.cls-136 {
  fill: #2c2b2e;
}

.cls-137 {
  fill: #150914;
}

.cls-138 {
  fill: #1e1e1e;
}

.cls-139 {
  fill: #1f1421;
}

.cls-140 {
  fill: #170916;
}

.cls-141 {
  fill: #160715;
}

.cls-142 {
  fill: #170d18;
}

.cls-143 {
  fill: #170b16;
}

.cls-144 {
  fill: #130d15;
}

.cls-145 {
  fill: #1f1720;
}

.cls-146 {
  fill: #30262c;
}

.cls-147 {
  fill: #180a16;
}

.cls-148 {
  fill: #1f1220;
}

.cls-149 {
  fill: #060606;
}

.cls-150 {
  fill: #190b19;
}

.cls-151 {
  fill: #161213;
}

</style>
  </defs>
  <g id="Calque_1-2" data-name="Calque 1">
    <g>
      <path class="cls-66" d="M5.38,216.78c-.76,.33-1.44,.88-2.38,.67-1.03-.64-2.24-1.06-3-2.02v-8.09c.62-.39,1.26-.2,1.9-.05,.55,.21,1.18,.35,1.23,1.04,.2-.78-.87-1.53-.07-2.33l.18-.61c1.13-2.1,3.01-2.5,4.63-.73,2.43,2.65,2.62,6.01,2.57,9.19-.03,2.02-1.76,2.13-4.39,.44-.21-.14-.46-.62-.55-.47-.33,.57,.24,1.11,.29,1.69,.07,.47-.05,.9-.4,1.28Z"></path>
      <path class="cls-125" d="M353.27,612.51c-1.2-.62-2.44-1.11-3.88-.95-1.22-.25-2.44-.1-3.66,.05-1.24,.12-2.48,.09-3.72,.01-.35-.03-.7-.08-1.06-.13-1.39-.31-2.21-1.05-2-2.37,.57-3.58,.5-7.18,.49-10.77,1.18-2.03-.22-4.28,.72-6.33l-.13-.19,.17-.17c.09,0,.19-.06,.29-.2,.11-.14,.04-.3-.22-.47-.25-1.12,.41-2.61-1.25-3.17-1.77-.59-1.62,1.22-2.47,1.81-1.19,.93-1.04,2.34-1.56,3.51-1.99,3.49-4.06,6.94-5.5,10.66-.72,.55-1.25,1.19-1.15,2.1-.61,1.09-1.23,2.19-1.84,3.28-1.44,.46-.84,2.73-2.92,2.63-.51,0-1.02,.01-1.53,.01-1.01-.63-2.02-.78-3.04-.02-1.14,.87-1.3,1.59,.42,1.95,1.63,.34,3.26,.65,4.89,.97,1.56,.76,3.18,.07,4.76,.16,1.94,.11,3.78-1.33,5.78-.29-.61,1.34-1,2.68-.07,4.04-.81,1.15,.21,2.52-.53,3.68l.14,.19-.17,.18c.53,.98,1.22,2.23,1.8,.13,.51-1.82,.64-3.74,.74-5.62,.11-2.34,1.02-3.2,3.9-2.87,3.82,.43,7.73,.27,11.6,.32,.86,.02,1.86,.04,2.18-.91,.29-.85-.27-1.2-1.18-1.22Zm-16.7-14.06c-.29,3.68-.8,7.35-.8,11.02,0,2.22-.98,2.66-3.1,2.52-1.7-.11-3.42-.02-5.58-.02,3.05-5.22,5.86-10.03,8.67-14.84,1.46-.14,1,.66,.81,1.32Z"></path>
      <path class="cls-141" d="M254.46,443.48c.76,1.29,1.37,2.65,1.3,4.11-.03,.66,1.63,1.27-.14,2.11-1.13,.54-1.95,.89-3.02,.3-1.35-.74-2.74-1.37-2.54,.89,.15,1.61,1.97,3.85-.97,4.29-2.06,.3-4.78-.86-5.63-2.88-.7-1.66-1.57-.83-2.5-.79-.79-.27-1.88,.2-2.4-.76-1.15-.39-1.83-1.13-2.07-2.2,.07-.22,0-.4-.23-.52-.44-.92-.67-1.82,.26-2.64l-.06,.04c2.53-2.42,6.35-1.39,9.27-2.75,1.98-1.15,.89-3.33,2.03-4.76,.26-.28,.52-.57,.78-.85,2.02-1.68,3.39-.86,4.51,.93-.2,.84,.48,1.36,.93,1.96,.71,1.11-.53,2.44,.49,3.52h0Z"></path>
      <path class="cls-80" d="M213,461.36c.23-.19,.45-.37,.68-.56,.57-1.58,.38-3.48,2.4-4.44,.67-.65,1.92-1.01,1.39-2.25-.57-.53-.79-1.17-.68-1.89,.06-.34,.19-.66,.38-.96,1.77-1.21,2.31-4.11,5.61-3.24l.17,.18,.26-.05c1.89,.25,2.37,1.52,2.5,2.92,.44,4.73,.89,5.22,5.92,6.05,.6,.1,1.27-.07,1.73,.45,.03,.41,.3,.58,.74,.6,.64,.91,.82,1.8-.21,2.61-.44,.43-.88,.87-1.32,1.3-.29,.84-.96,1.5-1.88,1.43-2.15-.16-3.44,1.12-4.96,2.04-.58,0-1.2-.13-1.51,.5-.86,.95-1.72,2.14-3.32,1.37-1.95-.94-2.19-2.57-1.22-4.65-2.9,.79-5.16,.78-6.67-1.41Z"></path>
      <path class="cls-129" d="M253.84,474.54c-3.53,0-6.54-1.8-10.21-1.94-4.14-.16-4.71-2.88-1.81-5.64,.28,.05,.5-.03,.66-.24,.46-.17,.9-.39,1.38-.49,2.22-.5,1.86-.72,2.74-1.82,1.11-1.39,2.52-2.39,1.55-4.36-.7-1.43-.33-3.19,1.06-3.83,1.19-.54,3.38,.14,3.86,1.37,1.12,2.89,4.24,4.51,5.35,7.32-.65,1.28,1.9,1.29,1.28,2.56-1.53,2.66-3.33,1.14-5.11,.24-.25-.36-.34,.47-.08,.09,.13-.19,.25-.18,.36,.03,.69,1.3,1.42,2.62,1.7,4,.35,1.71-.09,3.17-2.71,2.73Z"></path>
      <path class="cls-102" d="M276.49,450.11c-2.03,0-1.83-1.26-1.4-2.28,.35-.84,1.15-1.48-.14-2.19-1.3-.72-1.8,.42-2.43,.91-1.4,1.09-2.53,2.53-4.63,.96-1.42-1.06,.33-2.44-.58-3.51-.01-.23-.02-.46-.04-.7-.1-1.26,.72-2.28,1.13-3.41-1.84-1.31-.26-2.62,.01-3.93-.14-1.37,.5-2.2,2.06-2.42,1.35,1.09,3.08,1.59,4.65,2.34,1.2,.98,1.37,2.28,1.45,3.62,.02,.34-.14,1.01,.63,.72,.36-.14,.53-.68,.79-1.04,.34-.25,.59-.2,.73,.18,.26,.25,.52,.51,.79,.76,1.05,.21,2.08,.19,3.08-.19,2.02-.32,4.62-1.41,5.28,1.31,.55,2.26-1.39,3.9-3.77,4.27-1.4,.21-1.76,.58-2.12,1.63-.57,1.68-2.52,2.05-3.95,2.9-.5,.43-1.01,.42-1.55,.07Z"></path>
      <path class="cls-78" d="M152.06,476.36c.58-.5,1.16-1.01,1.74-1.51,2.77-3.43,2.5-4.6-1.5-6.42-1.74-.1-2.97-.93-3.88-2.19-.37-.87-1.49-1.57-.75-2.68,.22-.12,.32-.29,.28-.52l-.2-.15,.19,.16c2.72,.82,4.67-1.76,7.31-1.31,1.38,.28,2.61-.24,3.91-.5,1.47-.3,3.11-1.07,4.4,.43l-.07-.05c.9,1.32,2.46,1.59,3.97,1.93,.27,.23,.54,.45,.82,.68,.11,1.43-.96,2.3-2.15,2.78-1.32,.53-1.3,.84-.25,1.55,.12,.08-1.14,.89,.39,.69,.99-.13,1.94,.27,2.49,1.14,0,.17,.01,.34,.02,.51-2.19,3.86-6.96,3.43-10.53,4.99-.65,.29-1.52-.08-2.11,.49h-.02c-.52,1.13-1.6,1.64-2.8,1.99-.69,.2-1.5,.44-1.96-.31-.43-.72,.17-1.22,.7-1.69Z"></path>
      <path class="cls-78" d="M169.51,442.57c-.43,.26-.86,.52-1.29,.78-1.38,.32-2.26,1.17-3.2,2.1-1.79,1.75-3.95,2.65-6.51,1.02l.12,.12c-1.37-1.58-.66-3.07,.43-4.41,.83-1.01,1.5-1.97,1.21-3.26,0-.49,.9-.57,.66-1.16-.51-.21-1.04-.36-1.52-.61-.94-.46-1.34-1.27-1.73-2.08-.47-1.4-1.66-2.89,.68-3.9,1.41-.79,2.87-1.32,4.55-.67,1.72-.7,1.98,2.16,3.79,1.24,2.32-2.3,4.55-1.23,6.77,.15,.03,.66,.04,1.33,.7,1.79-.43,2.43-3.28,2.42-4.78,3.74,.66,.83,1.29-.32,1.93-.02,2.92,.69,2.04,2.23,1,3.72-.62,.89-1.8,1.1-2.83,1.46Z"></path>
      <path class="cls-9" d="M340.84,424.4c.96-1.5,2.17-3.37,4.26-2.13,1.98,1.17,2.02,3.57,.41,5.06-1.85,1.73,.73,3.75-.95,5.2-.74,.64,.08,2.04-1.73,2.19-1.52,.13-2.14-.48-2.37-1.49-.27-1.16-1.77-.27-2.18-1.41,.96,3.19-2.18,4.17-3.51,6.04-1.46-2.92-1.92-6.22-4.74-8.63-1.62-1.38-1.66-3.43-1.13-5.38,1.2-.91,2.46-.72,3.75-.19,.62,.38,1.12,.97,2,.89,.5,.09,.94,.29,1.36,.52,.5,.28,1.15,1.4,1.31-.19,.24-.05,.62-.15,.69-.04,1.39,2.07,1.99,.22,2.83-.44Z"></path>
      <path class="cls-15" d="M275.14,435.88c-2.09,.28-3.46-.75-4.7-2.02,2.11-1.69,2.01-3.17-.68-5.91-1.78-1.81-3.19-3.64-2.36-6.19,.51-.98,1.63-.32,2.36-.71,1.35-.62,2.45,.14,3.55,.59,2.63,1.07,5.06,1.61,6.75-1.26,.24-.4,.83-.48,1.33-.56,.84,0,1.68,0,2.53-.01,1.87,.55,1.46,2.07,1.75,3.29-.71,1.67-2,3.1-1.03,5.23,.37,.81-.15,2.74-1.7,3.38-1.2,.5-2.08-.23-2.69-1.16-.42-.45-.67-1.05-1.39-1.24-.25,2.64-3.94,3.73-3.73,6.58Z"></path>
      <path class="cls-24" d="M346.3,396.15c2.66,.22,4.71,.9,5.42,3.66,.38,1.49,3.18,1.39,3.74,3.24,.25,.84,1.1,1.64,.52,2.48-.58,.84-1.64,.94-2.58,.36-.9-.56-1.56,.11-1.94,.45-.76,.68,.42,.96,.75,1.36,.78,.93,2.32,1.59,1.39,3.07-.89,1.43-2.82,1.07-3.68,.66-3.33-1.56-7.22-.14-10.44-1.83-1.06-1.12-1.75-2.25,0-3.37,.61-1.39,2.14-1.54,3.42-2.03,1.04-.23,2.05,.28,3.25,.13,.35,.04,.07-.31-.17-.12-.48,.38-1.07-.07-1.6-.29-1.16-1.17,.11-1.51,.86-2.04,2.25-.13-.4-1.38,.52-1.81,.04-1.33-1.12-2.79,.54-3.95Z"></path>
      <path class="cls-13" d="M217.64,451.17c-.04,.28-.09,.56-.13,.84-1.45,.75-2.61-.04-3.81-.57l-.24-.17-.3,.07c-2.28-.83-4.96-.54-7.05-1.92-.45-.42-1.37,.04-1.66-.69-.99-.65-2.3-1.3-1.56-2.61,.81-1.43,2.43-2.08,4.04-2.74,.73-.3,2.16,1.06,2.21-.72l.08,.07c.76-.92,2.12-1.58,1.73-3.02-.76-.77-.84-1.57-.08-2.38-.04-.32,.08-.57,.37-.76,.31-.72,1.09-.51,1.68-.7,2.78-.17,4.17,1.07,4.44,3.45,.03,.47-1.22,.86-.11,1.39,1.46,.17,2.83,.46,3.17,2.02l-.03-.03c1.04,1.05,2.58,1.96,1.18,3.64-1.28,1.53-2.79,1.01-4.29,.41-.21-.08-.4-.21-.54-.4-.27,.58,.57,.5,.67,.88,1.15,1.27,2.29,2.54,.22,3.95Z"></path>
      <path class="cls-131" d="M204.87,216.86c.37-.01,.74-.02,1.1-.04,2.66,1.12,4.4,2.56,2.32,5.32q-.33,.69,1.34,2.14c.72,.56,.37,1.27,.32,1.94-.61,.9,.4,2.52-1.58,2.8-1.66,.64-2.26-.52-3.01-1.41-2.22,.62-1.87,1.79-.85,3.11-2.18,2.28-4.5,2.12-7.24-.63-.97-.97-1.53-2.31-3.27-2.44-.7-.31-1.27-.73-1.53-1.42-.69-1.08-1.12-2.2-.79-3.46,0-.18,.03-.36,.05-.55,.66-.57,1.45-.73,2.33-.54l.21,.07,.14-.15c1.5,.16,3.11-.34,4.48,.55,.93,.77,1.5-.6,2.35-.32,.15-.28,.64,.79,.6-.11-.03-.66-.11-1.31,0-1.97,.38-1.48,1.32-2.51,3.02-2.9Z"></path>
      <path class="cls-80" d="M116.47,278.07c-.47-1.15-.9-2.16-2.77-1.9-1,.14-2.27,.2-3.09-.73-1.89-.95-4.61,.21-6.07-1.87-1.22-.8-3.91-.82-2.11-3.2,.72-1.83,2.49-2.12,4.32-2.33,1.12,0,2.26-.31,3.37,.12,.69,.19,.78,.77,1.01,1.26,.88-.84,2.05-1.61,.87-2.94-.77-1.27-.18-2.55-.05-3.83,.33-.49,.08-1.28,.96-1.48,4.15-.58,5.71,.66,5.22,4.14-.47,1.48,.99,.37,1.32,.78,1.95,.52,2.26,2.32,3.05,3.55,1.18,1.84-1.36,2.37-2.39,2.42-2.26,.11-2.48,.8-2.04,2.52,.35,1.35-.82,2.41-1.61,3.49Z"></path>
      <path class="cls-79" d="M374.85,240.3c-.55,.02-1.11,0-1.36,.57-2.21,.78-4.3,1.83-6.64,2.29-1.12,.22-2.85,.47-3.01-.52-.45-2.93-3.02-3.77-5.24-5.08-.4-.23-.42-.78-.17-1.22h0c1.11-.92,.71-2.59,2.1-3.38,.3-.28,.6-.57,.9-.85,1.14-2.59,.99-6.01,5.37-6.46,1.11-.09,1.31,.95,2.07,1.29,.96,1.54,.42,3.32,.98,4.92-.12,.87-.37,1.74,.2,2.57-.66,2.67,1.33,.11,1.73,.69,.92,.06,1.84,.19,2.77,.1,3.27,1.97,3.33,2.99,.31,5.07Z"></path>
      <path class="cls-140" d="M315.03,427.85c1.61,3.25,5.03,4.93,7.31,7.14-1.45,.26-2.94,2.57-5.33,1.07-.12,.56-2.24,.45-.64,1.62,.76,.56,1.6,1.21,1.96,1.98,.63,1.36,.8,2.49-1.77,2.48-3.34-.02-6.39-1.56-9.87-1.03-1.28,.19-3.61-.73-3.5-2.42,.17-2.58,2.81-3.04,5.13-3.55,.91-.33,1.97-.45,2.39-1.43,1.21-.28,1.87-.75,.83-1.83-2.67-2.96-2.48-4.54,.65-5.39,.88,.57,1.7,1.22,2.84,1.38Z"></path>
      <path class="cls-12" d="M167.44,330.8c.67,.46,1.33,.92,2,1.37,1.02,2.44-1.47,3.23-2.74,4.59-2.7-.67-2.83,1.48-3.78,2.73-2.05,2.32-4.44,.52-6.69,.44l.13,.13c-1.16-1.36-.76-2.81-.31-4.26,.41-1,1.65-1.58,1.77-2.73-.22,.82-.98,1.19-1.69,1.6-1.22,.38-2.21,1.8-3.76,.66,.36-2.33,1.15-4.55,2.21-6.7,.48-.55,1.02-1.03,1.83-1.17,.17-.26,.33-.51,.5-.77,1.21-1.14,.79-3.14,2.61-3.96,.15-.21,.29-.42,.44-.63,.25-.69,.72-1.22,1.6-1.02,.96,.22,.85,.98,.74,1.63-.36,2.07-1.07,4.07-1.61,6.09,.34,.87,1.11,.58,1.81,.52,1.87-.09,3.84-.45,4.94,1.48Z"></path>
      <path class="cls-96" d="M148.68,376.63c.23,.12,.43,.09,.61-.09,2.04,.2,2.26,1.96,3.01,3.08,1,1.5,1.33,3.32,2.43,4.86,.77,1.09,.25,2.17-1.1,2.8-.43,.05-.67,.23-.61,.65-.53,.78,.43,1.95-.85,2.54l-.26-.03-.26,.04c-2.09,.8-3.12-.94-4.52-1.55-.37,.07-.48,.23-.5,.49-.08,.98,1.53,2.38-.33,2.84-1.79,.44-2.84-1.06-3.8-2.25l.03,.02c-2.19-.51-2.55-2.2-3.1-3.78-.28-.3-.57-.6-.85-.9-1.28-.65-2.25-1.56-2.93-2.72-.52-.9-1.03-1.79-1.55-2.69,2.34-1.21,3.57,.87,5.31,1.42,.97,.41,1.45,1.8,2.93,1.13,1.32-.74,1.11-2.45,2.52-3.13l-.02,.03c.73-1.53,1.85-2.62,3.84-2.76Z"></path>
      <path class="cls-10" d="M344.85,272.89c1.8-1.32,3.74-.66,4.54,.66,1.33,2.2,3.63,3.66,4.88,5.83,.34,.58,1.3,.93,.43,1.91-.82,.93-1.54,.86-2.54,.52-.62-.21-1.27-1.05-1.92-.22-.65,.82,.19,1.45,.69,2.06,.58,.7,1.49,1.26,.77,2.32-.77,1.13-1.92,.84-2.97,.62-3.6-.77-7.19-1.61-10.78-2.42-.28-.44-.56-.88-.83-1.31-.62-1.69,.6-2.33,2.05-2.8,1.48-.48,3.03-.82,4.17-1.88,.47-.05,.93-.1,1.4-.15,.63-1.11-.82-1.83-.68-2.84-.08-.66,.17-1.24,.61-1.75,.18-.14,.24-.32,.17-.52Z"></path>
      <path class="cls-134" d="M276.63,463.46c3.05,2.52,6.5,.86,9.3,.03,2.22-.65,3.8-1.04,5.7,.1,.81,.6,2.6,.51,2.41,1.73-.35,2.31-2.99,2.55-5,3.56,1.71-.21,3.36-.38,4.14,.94,.57,.97-.58,1.79-1.32,2.53-3.11,1.51-6.43,2.64-9.44,4.34-1.13,.64-2.62,.62-3.96,.12-2.24-2.18,1.42-3.09,1.31-4.81,1.7-2.28-.85-2-1.97-2.59-.51-.25-.89-.61-1.17-1.06-.66-1.3-1.13-2.62-.7-4.07,.14-.34,.37-.62,.71-.83Z"></path>
      <path class="cls-79" d="M81.7,245.76c.29-.25,.58-.51,.88-.76,.54-1.41,2.18-.58,3.11-1.21h-.04c2.59-.07,1.78,2.37,3.05,3.27l.03,.04c.45,1.38,.86,2.77,1.11,4.19,.51,1.04,.43,2.1,.12,3.17-.05,1.49-.41,3.08-2.12,3.49-2.23,.53-3.49-1.17-4.83-2.41q-.74,.05-.71,1.6c-.51,1.47-1.67,1.45-2.97,.98-.7-.25-1.37-.65-1.77-1.19-2.56-3.43-5.62-6.61-7-10.66,.14-.15,.14-.31,0-.47,.78-.42,1.56-.82,2.06,.31-.04,.2,.06,.31,.29,.32,2.02,.83,3.75,2.02,5.39,3.32,.46,.27,.9,.45,1.18-.21,.48-1.39,.54-2.96,2.21-3.78Z"></path>
      <path class="cls-20" d="M312.18,293.02c-.1,.22-.07,.43,.08,.63,.41,1.92,0,3.64-2.22,4.38-1.56,.52-2.54-.44-3.02-1.75-.12-.59,.03-1.13,.41-1.63-.48,.04-.93,.85-1.43,.04-.29,.49,.26,.89,.19,1.37-1,2.71-2.74,3.74-4.21,2.25-2.77-2.81-4.78-6.12-4.95-10.05,.02-.43,.03-.86,.05-1.29,.84-1.68,2.32-2.11,4-1.25,2.14,1.1,4.37,2.05,6.39,2.91,.06-1.7,1.11-2.8,3.23-3.12,.25,0,.51,0,.76,0,2.31-.06,1.97,1.53,2.17,2.77-.1,.22-.08,.44,.06,.64,1.09,1.83-1.83,2.49-1.51,4.09Z"></path>
      <path class="cls-53" d="M307.67,412.4l.17,.09,.15-.12c1.27,.36,2.58,.4,3.89,.31,.74-.09,1.49-.24,2.23-.09,.61-1.59,.09-3.74,2.74-4.29,.71,.22,1.42,.43,2.13,.65,1.28,.34,1.23,1.36,1.44,2.25,.07,.37,.13,.74,.2,1.12,.89,1.27,.06,2.76,.65,4.06,.07,1.11,.13,2.23,.2,3.34,.22,.27,.17,.5-.11,.7-1.04,.57-2.08,.7-3.11-.03-.61-.53-1.12-1.32-2.17-.64,.11,.65,.2,1.3,.34,1.94,.18,.82,.13,1.56-.83,1.96-.76,.32-1.49,.19-1.99-.43-2.47-3.03-6.45-4.83-8.44-8.25-.67-2.02,.15-2.89,2.51-2.59Z"></path>
      <path class="cls-67" d="M167.57,317.92c-.22,.09-.29,.23-.21,.43-2.08,1.16-4.11,2.55-6.65,.86v.03c-.81-1.2-.78-2.55-.84-3.88,.03-.38,.33-1.04,.06-1.11-.77-.19-.62,.64-.96,.97-.6,.98-1.24,2.34-2.62,1.94-1.45-.42-.58-1.87-.76-2.89-.7-4.08,1.66-7.49,2.72-11.17,.55-.8,.57-1.9,2.05-2.74,.11,2.02,.2,3.72,.3,5.42,.7,1.03-.1,2.18,.34,3.22,1.03,.96,1.48-.3,2.22-.47,1.69-.8,3.41-1.41,5.38-1.07,2.97,.52,3.45,1.32,2.43,3.94-.31,.79,.44,1.79-.56,2.48h0c-1.87,.84-1.99,2.68-2.92,4.06Z"></path>
      <path class="cls-65" d="M328.14,137.89c.02,.23,.05,.46,.07,.69,.49,1.9,1.45,4.03-2.32,3.95l.03,.02c-1.21,.4-2.62-2.39-3.69,.19-1.86,1.88-3.21-.9-4.92-.42-1.34-.38-1.36-1.63-2.03-2.45h.03c-2.78-.25-3.38-2.11-3.82-4.09,.23-.69-.23-1.57,.73-2.06,1.26-.57,2.51-.36,3.76,.04,1.52,.26,3.04,.27,4.56-.07,.59-.41,1.07-.93,1.42-1.5,.77-1.28,1.48-2.73,3.54-2.03,1.82,.62,2.64,1.88,2.13,3.67-.09,.93-.82,1.78-.4,2.76,.51,.32,.71,.82,.93,1.3Z"></path>
      <path class="cls-65" d="M217.76,353.73c.42-.27,.83-.53,1.25-.8,1.69-.31,3.08,.35,3.98,1.45,1.55,1.89,2.91,3.93,4.12,6.01,.91,1.56,.55,2.92-1.82,3.06-1.36,.08-2.14,.32-2.21,1.83-.06,1.33-1.53,1.93-2.84,1.46-4.15-1.49-8.49-2.76-11.64-5.83-.51-.5-.75-1.17-.29-1.86,.29-.23,.57-.45,.86-.68,.83-.59,1.9-.48,2.82-.57,2.95-.31,4.94-1.5,5.79-4.08Z"></path>
      <path class="cls-122" d="M335.74,439.3c1.04-.62,1.96-.33,1.31,.69-1.13,1.77-1.52,4.36-1.36,5.52,.35,2.59-1.54,4.4-1.44,6.67,.02,.49,.35,1.29-.62,1.19-.44-.05-.79-.77-1.18-1.18-1.08-.86-.82,.39-1.21,.61-.12,.39-.24,.79-.36,1.18-.63,.07-.87-.29-1.03-.74-.16-.43,.09-.85,.06-1.27-.31,.28-.3,.69-.5,1.02-.49,.81-1.08,1.51-2.2,1.67l.02-.02c-1.71,1.38-1.45-.64-2.17-.99-.3-.29-.59-.58-.89-.87-.31-.91-.53-1.81,.1-2.69,.35-.58,1.13-1.58,.99-1.69-2.53-2.06-1.17-4.73-1.58-7.11-.08-.47-.95-.81-.4-1.42,.61-.67,1.3-.31,2.03-.14,1.48,.34,2.37,1.11,2.82,2.4,.44,1.26,.99,2.48,1.5,3.74,1.37-.11,.17-1.87,1.52-1.7,1.31,.17,.15,1.6,1.19,2.12,1.14-2.35,2.26-4.66,3.39-6.97Z"></path>
      <path class="cls-62" d="M122.43,360.31c-.39,.27-.79,.55-1.18,.82-.26,.18-.47,.15-.63-.12-.09-.43-.17-.87-.26-1.3-1.36-.86-3.01-1.52-2.82-3.39,.66-2.36-2.24-2.15-3.1-3.41-.97-.6-1.46-1.48-1.74-2.46-.65-2.26,.62-3.45,3.18-2.94,.49,.1,1.01,.21,1.37,.49,2.52,1.98,4.82,1.69,7-.44h.02c1.04-.45,2.09-.9,2.95,.26,.5,1.05,1,2.09,1.5,3.14-.25,2.12,.53,4.23,.18,6.33-.24,1.42-.62,3.09-2.97,1.58l-.13,.13,.15-.11c-.95-.1-1.37-.69-1.65-1.39-.07-.18-.19-.36-.35-.51-.17,.15-.25,.34-.23,.58-.13,1.03-.05,2.13-1.28,2.74Z"></path>
      <path class="cls-51" d="M96.23,345.72c-1.15-.58-2.73,.38-3.7-.82-1.56-2.65,.39-3.72,2.71-4.27,2.55-.61,4.25-1.18,3.5-4.19-.54-2.17,2.13-3.32,4.71-2.18,2.04,.9,3.46,2.49,4.82,4.08,.45,.42,.9,.83,1.35,1.25,2.48,1.11,1.09,2.4-.23,2.85-1.77,.6-1.69,1.33-1.08,2.49v-.02c.16,1.72-.67,2.25-2.62,2.15-3.22-.16-6.26-1.2-9.46-1.34Z"></path>
      <path class="cls-74" d="M376.02,322.7c1.74-.25,3.14-.08,2.99,1.96,.29,.7,.56,1.4-.31,1.95l.03-.04c-1,3.05,1.59,4,3.83,5.15,.57,1.87-.84,2.86-2.16,3.89-1.36,1.69-3.94,.42-5.44,1.77l.03-.02c-1.31,1.01-2.64,1.9-4.34,.58-.05-.38-.09-.76-.14-1.14-.36-.87,.3-2.22-1.67-2.3-.97-.04-1.68-.87-2.03-1.76-.07-.21-.06-.43,.03-.64,1.93-2.87,5.11-4.9,6.73-8,.44-.84,1.46-1.18,2.46-1.4Z"></path>
      <path class="cls-123" d="M331.15,349.53c.21,.15,.44,.19,.69,.1,1.61,.27,2.96,.87,3.73,2.24,.32,.83,.63,1.66,1.89,.84,.97,1.02,1.47,.21,2.02-.4,1.2-.14,1.63-1.6,3.03-1.39,.56-.24,1.15-.57,1.4,.3,.23,.15,.45,.3,.68,.46,1.05,1.46,.75,2.98,.01,4.39-.8,1.52-1.5,3.04-2.01,4.66-.55,1.72-1.73,2.75-3.93,1.75-1.14-.99-.51-2.79-2.06-3.6-.34-.31-.54-.71-.8-1.04-.12-.12-.28-.24-.45-.34-.12,.2-.01,.14,.25,.18,.49,.07-.24-.03,.23,.2,.83,1.36-.21,2.56-.36,3.82-.1,.29-.28,.55-.54,.75-1-.02-1.99-.04-2.99-.06-.6-.45-.83-1.04-.87-1.71,.08-1.59,.84-3.33-1.15-4.51-.91-.66-.61-1.72-1.03-2.54,0-.89-.01-1.79-.02-2.68-.13-1.58,.77-1.88,2.26-1.43Z"></path>
      <path class="cls-7" d="M352.66,290.9c-.31-1.2-.81-2.52,.7-3.3,1.79-.92,2.99,.47,4.33,1.16l.13,.11c1.59,1.74,3.82,3.08,4.37,5.48-.03,.48,.26,.66,.76,.64,.5,3.21-2.38,2.24-4.19,2.6,1.18,1.75,3.28,3.51-.36,4.9-.5-.24-1-.47-1.51-.71-1.54,.79-2.75,.11-3.94-.68-.53-.31-.36-1.27-1.37-1.14-.28,.11-.56,.17-.85,.2-1.01-.03-2.04,.07-2.94-.46-.92,.23-1.47-.43-2.18-.71-.96-.44-1.64-.97-.76-1.98,.84-.17,.62-.81,.72-1.3,.34-.4,.8-.61,1.35-.66,1.73-.03,3.45,1.84,5.18,0,.22-.2,.45-.38,.7-.55,.36-.34,1.39-.45,.51-1.22-.39-.77-.8-1.53-.64-2.41Z"></path>
      <path class="cls-126" d="M302.25,382.84c.05,.57-.08,1.22,.79,1.44-.73,1.18,.37,2.92-1.46,3.76h0c-.69,1.38-2.24,2.09-3.22,3.24l.03-.03c-.21,1.25-.46,2.48-2.18,2.8h.02c-1,2.67-2.5,2.04-4.14,.5-.53-1.03-.58-2.1-.25-3.19,.03-.1,.18-.25,.16-.28-.3-.28-.28,.14-.46,.19-3.61,2.31-3.91,2.28-5.2-.54-.54-.84-.77-1.73-.67-2.69,.78-.84,0-2.28,1.42-2.88,2.53,.38,5.36,2.31,7.12-1.14,2.42-1.78,4.95-2.98,8.04-1.18Z"></path>
      <path class="cls-52" d="M237.9,375.32c.01,.43,.03,.87,.04,1.3-1.25,1.63-2.76,1.32-4.34,.48-.29-.17-.49-.47-.84-.59-.05,.17,.05,.33,.3,.5,.61,.48,1.16,.96,1.37,1.68-.09,1.45-1.31,1.64-2.54,1.81-1,.03-1.99,.06-2.99,.09-1.8-1.25-4.1-.47-6.06-1.18-1.46-.53-3.23-.55-3.64-2.34l.05,.05c-1.16-2.16,.82-2.69,2.31-3.04,1.67-.4,3.4-.66,5.04-1.18,.45-.03,.95-.17,1.27,.29,.12-.39-.26-.6-.43-.88-.39-.66-.75-1.33-.69-2.11,.53-2.51,1.91-3.1,4.26-1.49,.29,.15,.58,.29,.86,.44,1.75,.79,2.74,2.2,3.68,3.63,.25,.15,.5,.3,.75,.46,1.34,.2,1.1,1.36,1.59,2.07Z"></path>
      <path class="cls-150" d="M234.15,435.27c-.9-.15-.59-.95-.93-1.4-.62-1.52-.37-2.91,.76-4.17,2.74-.61,.02-1.16-.03-1.74-.09-.26-.09-.53-.01-.79,.4-.36,.62-.7-.21-.85-1.07-.32-1.84-.98-2.61-1.65-.3-.3-.6-.6-.91-.91,.01-2.42,1.51-3.67,4.52-2.89,3.23,.84,6.63,1.12,9.72,2.38,.81,.47,.64,1.23,.7,1.91-.01,.33-.14,.63-.4,.87-1.47,.53-3.65,.69-2,2.93-.36,1.17-.46,2.37-.59,3.56-.3,.97-1.08,1.56-2.03,2.01-.88-.12-1.58,.18-2.19,.72-1.26,.48-2.52,.46-3.78,.01Z"></path>
      <path class="cls-26" d="M276.63,463.46c-.03,.29-.06,.58-.09,.86-.86,.76-1.78,1.3-3.04,.69-1.52-.4-1.62-1.31-1.48-2.58,.1-.88-.7-1.67-1.76-1.95-.11-.03-.46,.66-.7,1.01-.85,.19-1.28,.64-1.14,1.45-.73,1.12-1.71,1.64-3.16,1.08-.17-.64-.01-1.4-.84-1.8v.02c-.97-2.36-.22-3.69,2.73-4.17,1.76-.28,3.63-.76,4.65-2.36,.37-.5,.54-1.1,1.04-1.53,.49-.04,.98-.07,1.48-.11,.67,.79,1.54,.19,2.32,.26,1.8-.99,3.46-2.75,5.81-.89,0,1.11-.21,2.22-.02,3.33-2.14,2.08-4.2,4.22-5.79,6.68Z"></path>
      <path class="cls-137" d="M318.64,294.42v-.02c3.35,.25,3.47,2.66,4.03,4.78,.05,.18-.29,.57,.14,.47,.18-.04,.42-.45,.79-.54,.24-.03,.48-.07,.72-.12,1.48-.14,1.32,.88,1.49,1.67-.02,.56-.09,1.14-.41,1.6-1.36,1.96-1.63,3.38,1.76,3.4,.6,0,1.09,.49,1.42,1,.82,1.88-.43,2.92-1.97,3.84h0c-.6,1.16-1.32,2.13-3.04,1.5-.51-.28-1.02-.55-1.53-.83-.75-.99-.99-2.07-.79-3.24,.07-.92,.11-1.81-1.01-.41-.28,.36-.5,.75-.89,1.03-4.81,1.07-2.65-2.52-3.48-4.11,.04-.23,.07-.46,.11-.7,.33-.92,1.36-1.68,.82-2.8-.24-.64-.47-1.27-.71-1.91-.59-2.17,0-3.83,2.55-4.63Z"></path>
      <path class="cls-45" d="M233.54,407.64c1.84-.88,3.75-1.52,5.9-1.35,.86-.03,1.72-.06,2.58-.02,1.63-.1,1.34,1.86,2.75,2,1.82-.61,3.7-.61,5.59-.57,.56,0,1.11-.01,1.67-.02,1.21,2.33-.15,3.88-2,5.29h.01c-.88,1.02-2.2,.23-3.23,.61-1.97,.22-2.79,2.57-5.09,2.18-2.45,2.38-2.71,2.33-3.9-.74,0-.23,0-.45-.01-.68-.3-.38-.4-.79-.29-1.24,.18-.5,.94-1.09-.26-1.41-.82-.81-1.68-1.33-3.03-1.48-2.18-.25-2.36-1.3-.7-2.57Z"></path>
      <path class="cls-38" d="M181.83,471.14c-.27-.5-.53-1.01-.8-1.51-.41-.55-.4-1.32,.24-1.41,3.44-.48,6.58-2.87,10.33-1.34l.06-.06c.51-.48,1.04-1.21,1.78-1.07,3.22,.6,6.32,1.52,9.05,3.24l-.1,.09c-1.04,1.97-2.95,3.05-5.04,3.97-1.91,1.05-4.07,1.2-6.22,1.39-3.58-.02-7.02-.38-9.3-3.3Z"></path>
      <path class="cls-150" d="M381.11,387.92c-.37-.4-1.08-.81-1.06-1.19,.14-2.81-.14-4.88-4.22-2.87-.31,.15-2.15-.56-1.38-2.02,.63-1.2,1.04-2.49,1.55-3.74h0c.36-.65,.85-1.24,1.27-1.87,2.58-1.77,4.36-.28,6.16,1.17,.83,.28,1.81,.26,2.42,.97,.14,.21,.23,.45,.3,.68,.72,.54,1.52-.03,2.26,.14,1.64,.11,3.46,.21,3.68,2.05,.22,1.81-1.16,2.66-3.02,3.21-1.75,.51-3.37,1.37-4.96,2.22-1.19,.05-2.16,.51-2.99,1.26Z"></path>
      <path class="cls-120" d="M369.14,391.65c.1,1.15-.51,2.1-1.07,3.06-.81,.32-1.71,.53-2.08,1.38q-1.43-.24-3.24-3.83c-1.64,.2-1.82,3.23-4.32,1.77-.68-.89-.73-2.03-.07-2.7,1.01-1.04-.12-1.51-.33-2.22,.02-1.12,.33-2.26-.28-3.34,.06-1.07-.23-2.19,.68-3.12,1.8-2.27,3.53-1.92,4.71,.35,1.03,1.97,2.19,3.69,4.44,4.68,1.6,.99,1.19,2.6,1.56,3.97Z"></path>
      <path class="cls-58" d="M302.4,451.37c1.01,.42,2.35,.61,2.94,1.3,.8,.96,2.36,1.97-.45,3.33-2.97,1.44-6.59,.56-9.24,2.89-1.34,1.18-3.84,.9-5.19-.47-1.49-1.52-.22-3.17,.75-4.61,.8-1.18,2.11-1.87,3.46-2.48,.46-.62,.65-1.38,1.33-1.87,1.68,1.15,2.74-1.48,4.39-.58,1.13,.54,1.28,1.7,2.01,2.49Z"></path>
      <path class="cls-141" d="M228.95,485.82c-.44,1.28-1.25,2.29-2.89,1.97-1.91-.37-2.84-2.32-2.78-3.35,.16-2.76-2.02-4.21-3.26-6.19,0,0,0,0,0,0-2-1.74-.71-3.14,.58-4.54l-.03,.03c1.21-1,2.47-.56,3.73-.11l1.58,.7c1.49,.42,2.78,1.09,3.58,2.34,.4,1.44,1.35,2.31,3.1,2.33,.22,.25,.33,.53,.32,.85-.27,1.02-.79,1.99-.91,3.05-.18,1.66-3.17,1-3.03,2.92Z"></path>
      <path class="cls-55" d="M272.23,107.06c1.9-1.04,3.91-3.03,5.29,.48,1.11,2.44,.32,4.61-1.2,6.67-.42,.88-1.78,1.61-.58,2.76-3.34,1.3-3.53-1.17-4.37-2.78-.19,1.14-.41,2.37-2.36,2.14-1.28-.24-1.64-1.32-2.39-2.04-.93-1.28-1.03-2.88-2.05-4.13l.02,.02c-1.26-1.02-1.62-2.24-.68-3.54,.71-.98,1.71-1.21,2.79-.34,.26,.19,.53,.38,.79,.58,.67,.34,1.36,.63,2.14,.7,.97,.22,1.81-.08,2.61-.52Z"></path>
      <path class="cls-105" d="M308.39,466.41c-.64,1.09-1.95,1.33-3.02,1.87-2.25,.52-4.39,1.19-6.25,2.54-.96,.69-2.2,.97-3.49,.67-2.24-1.51,.03-2.02,.79-2.88,.76-.46,1.53-.9,2.44-1.12,.03,0,.05-.2,0-.27-.05-.07-.19-.1-.31-.15-1.98-.93-4.27-1.45-5.24-3.53,.51-.88-2.11-4.02,2.31-2.22,1.33,.54,4.58-.08,5.7-.85,3.63-2.5,5.42-.03,7.86,1.29-1.19,1.49-3,1.85-4.51,2.62-.63,1.52,.86,.81,1.42,1.08,.67,.49,1.31,1.04,2.29,.95Z"></path>
      <path class="cls-69" d="M332.77,199.24c.31,1.31-1.49,1.52-1.68,2.57-.28,1.06-1.33,1.18-2.25,1.46v-.02c-1.46,3.6-2.61,4.01-5.51,1.95-.54-.42,.8-2.62-1.58-1.29-2.48,.55-3.45-.44-2.78-2.47,.3-.92,0-2.03,.93-2.78l-.02,.02c.49-1.17-1.67-2.26-.14-3.47,.1-.65,.12-1.33,.89-1.7,2.75-1.11,3.85-.77,4.09,1.83,.13,1.34,.67,1.05,1.58,1.17,1.36,.17,2.71,.17,4.07,.2,1.7,.04,2.85,.75,2.38,2.54Z"></path>
      <path class="cls-14" d="M15.91,286.33c-.76,.22-1.52,.43-2.27,.65-1.6,.92-2.93,.38-3.93-.76-.86-.97-.73-2.17,.13-3.1,1.64-1.77,1.9-3.76,1.71-5.95-.11-1.23,.03-2.54,2.09-2.41,1.12,.77,2.66,.99,3.51,2.12,.79,.53,2.06,.47,2.44,1.52,.79,.81,1.58,1.63,2.38,2.44,.37,1.65-.52,3.21-.31,4.94,.25,2.09-2.57,2.35-5.75,.55Z"></path>
      <path class="cls-50" d="M191.72,406.93c-1,0-1.99-.02-2.99-.03-2.1-1.03-1.15-2.58-.87-4.01,.62-1.1,1.65-2.12,.9-3.5-.56-.64-1.12-1.28-1.68-1.92-.33-.68-.56-1.36,.19-1.95l-.05,.04c2.41-1.2,4.44-.92,6.01,1.2,2.21,.12,3.98,1.32,6,1.93-1.17,1.56-1.24,3.01,.33,4.47,.35,.33,1.05,1.03,.18,1.65-.4,.04-.8,.07-1.21,.11-1.89,1.69-4.66,1.02-6.81,2.01Z"></path>
      <path class="cls-71" d="M315.99,227c-1.5-1.07,.11-3.14-1.66-4.13-.18-.28-.23-.57-.16-.89,.5-1.19,1.22-2.21,2.59-2.76,1.35-.4,2.54,.76,3.89,.3,1.95-.23,3.58-2.57,5.84-.69,1.34,3.33-.33,6.36-1.44,9.36-.61,1.66-2.4,1.46-3.74,.46-1.03-.77-1.74-1.81-1.62-2.99-.51,.81,.56,2.44-1.33,2.93-1.58,.4-1.85-.75-2.38-1.59Z"></path>
      <path class="cls-33" d="M300.12,449.39c-3.05-.79-.55,2.12-1.36,2.24-2.27,.56-.01-2.7-2.55-1.43-1.06,.37-2.09,.39-3.1-.14,.06-.42,.13-.84,.19-1.26,1.21-1.14-.67-1.38-.79-2.14-.07-.09-.13-.19-.22-.27-1.48-1.38-3.47-3.06-1.26-4.73,1.82-1.37,4.28-.63,6.09,.91,.85,.72,7.68,2.79,9,2.71,.77-.19,.94,.11,.75,.72-2.6-.25-.79,2.29-2.22,2.79-1.45,.59-3.01,.55-4.56,.59Z"></path>
      <path class="cls-47" d="M351.58,436.56c-.88,.63-1.89,1.43-2.91,.54-.41-.35-.36-1.51-.02-2.07,.92-1.56,.67-3.27,1.12-4.87,.21-.74,.67-1.47,1.65-1.65,1.1-.2,1.8,.51,1.89,1.24,.47,3.97,3.24,3.9,6.51,3.1l.89,1.73c-.05,2.18-1.86,2.45-3.68,2.71-.19,.15-.24,.33-.18,.54-.45,1.22-1.42,1.75-2.84,1.68-.98-.49-1.28-1.27-1.29-2.24,0-.58-.27-1.11-1.14-.69Z"></path>
      <path class="cls-30" d="M191.59,473.72c1.84-.45,3.87-.28,5.5-1.37,1.71,.48,3.18,1.68,5.23,1.17,.71-.18,1.5,.3,1.58,1.06,.09,.9-1,.77-1.54,1.13h-.02c-.78,1.02-2.09,1.33-3.16,1.97-.47,.27-.93,.54-1.4,.81-2.68,1.72-6.07,1.89-8.95,3.21-.88,.4-2.4,1.01-3.05-.05-.72-1.18,.59-1.96,1.61-2.59,.4-.25,.91-.36,1.29-.66,.51-.03,.74-.28,.73-.72,1.95-1.06-.34-1.85-.23-2.79,.21-1.35,1.77-.5,2.4-1.16Z"></path>
      <path class="cls-126" d="M290.12,408.42c.77,.6,1.54,1.19,2.31,1.79,.31-.19,.62-.18,.92,.02-.06,1.11-.62,2.24,1.52,2.56,1.58,.24,2.4,1.41,1.35,2.94-1.01,.05-1.51,.86-2.3,1.25-.26,.25-.52,.49-.79,.74-.58,1.06-1.12,2.15-2.65,2.37-.39-.01-.72-.14-1.01-.37l-.21,.06c-.38-.48-1.05-.79-1.09-1.47-.51-.73,1.3-1.19,.27-1.98-.19-.31-.26-.64-.17-.98,.06-.67-.28-.18-.49-.12-.64,.05-.94-.4-1.35-.69-1.3-2.13-2.4-4.27,.02-6.39,1.26-.16,2.55-.65,3.7,.28h-.03Z"></path>
      <path class="cls-115" d="M295.62,415.68c.79-1.47,.39-2.12-1.56-2.24-.97-.06-2.51-.07-2.72-1.25-.18-1.01,1.41-1.09,1.94-1.83-.53-.99,.37-.95,.97-1.11,1.43,.92,1.26-.76,1.98-1,.14-.18,.3-.36,.41-.55,.64-1.1,1.34-2.33,2.9-2.29,1.96,.05,1.16,1.94,1.98,2.81v-.03c-.54,2.25-.11,4.7-1.71,6.73-.61,1.1-1.31,2.17-1.25,3.46-.36,.49-1.14,.22-1.52,.67-.49-.23-.97-.45-1.46-.68-.58-.9-.86-1.8,.04-2.68Z"></path>
      <path class="cls-107" d="M276.58,350.32c-.83-.81-2.7-1.4-.77-2.81,3.14-1.99,6.15-2.21,8.37-.6,0,.23,0,.46,0,.69-.12,.99,.99,.88,1.49,1.33,.14,.21,.34,.3,.6,.29,1.68,2.33-.56,2.87-2.13,3.72-.85,.06-.99,.53-.84,1.16-.62,1.55-1.38,2.92-3.7,2.33-1.49-.93-.3-2.34-.77-3.45-.2-1.26-1.03-2.09-2.26-2.66Z"></path>
      <path class="cls-113" d="M283.05,6.32c-.16,.21-.31,.41-.47,.62-.73,.77-1.43,1.57-2.25,2.25-1.62,1.35-7.15,.43-8-1.35-.45-.95-.5-1.97,.75-2.61l-.19-.16,.17,.18c.26-.95-.39-2.03,.55-2.88,.44-.75,.4-1.75,1.44-2.18,.56-.29,1.07-.24,1.53,.18,1.27,2.11,2.51,4.26,5.93,3.41,1.37,.65,1.95,1.43,.54,2.55Z"></path>
      <path class="cls-111" d="M393.01,318.59c.32-.87,.41-1.76,1.84-1.99,1.51-.25,1.25,1.03,1.97,1.41,1.42,1.67,3.58,2.45,5.44,3.59-.07,1.63-.69,2.67-2.79,3-1.17,.19-2.18,1.19-3.26,1.82-1.24,1.27-1.58,.27-1.98-.61l.04,.04c-.5-1.47-3.78-.09-3.32-2.55l.02-.02c.12-1.75,.9-3.28,2.03-4.69Z"></path>
      <path class="cls-133" d="M274.22,190.46c-.82-.59-1.6,1.25-2.43,.03-.34-.33,.17,.03-.19-.28q-4.14-3.53-.25-8.46l-.02,.02c.46-.77,.61-1.95,2.14-1.2,1.53,1.2,1.61,3.05,2.53,4.52,1.21,.88,5.25-1.23,3.58,2.69v-.02c-1.14,1.9-3.31,2.2-5.36,2.7Z"></path>
      <path class="cls-116" d="M272.89,25.72c-.04-.37-.09-.73-.13-1.1-.73-.93-2.41,.03-3-1.18l-.1-.25-.29-.04c.3-3.16,1.73-5.7,5-7.24h-.03c2.8-.73,2.32,1.36,2.82,2.59,.12,.92-.75,2.33,1.42,2.24,.91,.29,2.17,0,2.55,1.18,.09,2.81-3.43,1.91-4.52,3.5-1.16,.87-2.33,1.61-3.71,.29Z"></path>
      <path class="cls-93" d="M137.99,201.94c-.27,.47-.54,.94-.81,1.42-.81,1.34,.48,3.65-1.42,4.15-1.85,.49-4.01,1.54-6.12,.33,.09-.19,.05-.36-.12-.49-.61-.56-1.17-1.14-.82-2.01,.25-1.9-2.73-3.51-.62-5.58,2.04-.85,3.28,.28,4.52,1.43,.26,.01,.52,.02,.78,.04,1.05,.81,.76-.79,1.45-.64l.02-.03c.55-.65,1.17-1.29,2.18-.8,.94,.46,1.6,1.13,.96,2.19Z"></path>
      <path class="cls-32" d="M269.69,322.79c.02,.4,.05,.79,.07,1.19-1.79,1.31-8.26,1.35-9.53-.09-1.78-2.03,.32-2.87,1.77-3.84,.7-.24,1.61-.29,1.38-1.33,.02-1.17-.78-2.45,.58-3.42,1.24-.26,2.33,.13,3.39,.64,.52,.29,.92,.72,1.45,1,2.55,1.35,3.78,2.85,.82,4.94-.25,.18-.09,.61,.07,.91Z"></path>
      <path class="cls-87" d="M413.08,292.96l.69-5.31c.32-.8,.42-1.74,1.55-2.05l-.03,.02c1.83-.42,2.44,.88,3.05,1.89,.7,1.14,1.67,1.58,3.03,1.59,.72,.17,1.45,.35,2.17,.52,.81,1.13,.48,2-.78,2.65l.02-.02c-.89,1.76-2.85,2.42-4.46,3.44l-.02,.02c-.52,.15-.93,0-1.38-.26-.72-.42-.61-2.44-2.47-.9-.46,.38-1.88-.35-1.39-1.59Z"></path>
      <path class="cls-28" d="M218.8,282.79c-.21,.19-.43,.38-.64,.57-.55,.77-1.66,.85-2.31,1.49-.67,.44-1.48,.79-2,1.35-1.48,1.6-1.27-.21-1.75-.63-4.5-.8-4.99-1.62-2.85-4.65h-.01c.26-1.13-.65-2.45,.66-3.44h0c.69-.43,.62-2.04,2.18-1.11,.21,.17,.41,.34,.62,.51,1.69,1.15,2.65,3,5.4,3.06,1.88,.04,2.07,1.58,.69,2.87Z"></path>
      <path class="cls-75" d="M305.3,100.78c-.26,.17-.51,.33-.77,.5-.29,.63-.77,1.11-1.35,1.57-1.79,1.43-3.47,2.67-4.48-.59-.09-.3-.58-.33-.95-.15l.02-.02c-1.46,.56-2.74,.86-2.34-1.28,.13-.85,.26-1.71,.39-2.56h.01c1.13-.2,.73-.86,.56-1.46-.12-.75-.06-1.47,.57-2.06,.28-.26,.56-.53,.84-.79,1.5-.51,2.45,.26,3.1,1.26,.88,1.36,2.02,2.05,3.8,2.38,2.7,.51,2.47,1.81,.61,3.19Z"></path>
      <path class="cls-25" d="M199.99,297.86c.18,.2,.36,.4,.53,.6,1.48,.6,.74,1.58,.54,2.47-.83,1.91,1.01,1.82,2.15,2.26,1.02,.61,2.53,1.07,1.02,2.5-.54,.03-1.05,.09-1.19,.67-4.48,2.41-5.73,2.23-9.04-1.26-.3-.21-.59-.43-.89-.64,.2-3.43,3.78-6.86,6.89-6.59Z"></path>
      <path class="cls-46" d="M277.12,245.77c.32-.26,.65-.51,.97-.77,2.27-.62,2.73,.64,2.91,2.2-1.21,2.28,.19,3.32,2.41,3.96,.26,.45,.53,.9,.79,1.36-2.77,3.02-6.81,3.45-8.97,.78-.8-.99-3.26-.82-2.68-2.38,.78-2.11,2.23-4.01,4.57-5.16Z"></path>
      <path class="cls-34" d="M310.67,233c1.96,1.25,3.84,2.75,5.49-.44,.53-1.02,1.45-.04,2.11,.4-.27,1.05,.47,1.99,.39,3.02-.09,1.95,1.19,4.76-3.24,3.97-.5-.09-.61,.91-1.3,1.01l-.25-.06-.16,.18c-2.88,.71-2.2-1.63-2.96-2.73-.88-1.29-2.52-2.23-2.27-4.03-.57-.78,.13-1.02,.71-1.3,.5,0,.99,0,1.49,0Z"></path>
      <path class="cls-89" d="M248.7,54.75c-.16-.63-.13-1.26,.39-1.8-1.34-.48-1.52,.42-1.98,.8-1.4,1.15-2.17,.96-2.32-.77-.07-.77,.14-1.51,.24-2.26,.2-1.54-1.34-3.66,.72-4.5,2.11-.86,2.11,1.89,3.43,2.52,.57,.27,1.49,1.63,2.59,.23,.59-.75,1.68-.9,2.73-.51,.43,1.49-.21,2.61-1.53,3.49-.24,1.41-.7,2.69-2.27,3.39-.78,.11-1.57,.25-1.99-.6Z"></path>
      <path class="cls-97" d="M343.43,160.88c.45-.02,.9-.04,1.35-.06,2.03,.95,3.32,2.92,6.4,2.4,1.95-.33,2.39,1.43,1.14,2.96v-.02c-1.25,.99-2,2.37-3.29,3.34-1.13-.35-1.47,1.57-2.76,.76-.32-.27-.47-.61-.49-.98-.08-.28-.07-.68-.62-.33-.35,.29-.77,.44-1.17,.61h.03c-.87,.22-1.41-.18-1.8-.79-1.14-1.8-.45-6.13,1.22-7.89Z"></path>
      <path class="cls-42" d="M342.49,191.12c1.2-.66,2.21-2.39,3.73-1.52,1.57,.91,.61,2.44-.18,3.58-.95,1.39-.72,2.06,1.21,2.01,1.24-.03,2.15,.5,2.86,1.36-.36,1.05-1.6,1.21-2.37,1.85-1.37,.83-2.99,.72-4.5,.83-1.66,.12-2.98-.36-2.43-2.26,.41-1.2-.97-1.11-1.51-1.64-.3-.41-.36-.84-.16-1.3,.72-1.32,2.09-2.04,3.33-2.88v-.02Z"></path>
      <path class="cls-11" d="M344.64,268.08c-.95-.72-1.9-1.44-2.85-2.16-.06-.42-.12-.85-.18-1.27-4.64-.92-5.65-2.45-4.34-6.6,.99-.06,1.98-.13,2.96-.19,1.36-.14,2.19,.75,3.19,1.3-.23,.76,.5,1.22,2.98,1.88,.35,0,.65,.09,.93,.27,.87,.9,.93,1.9,.42,2.96-.12,.28-.29,.53-.47,.78-1.44,.62-.31,3.04-2.66,3.03Z"></path>
      <path class="cls-44" d="M328.24,306.5c-1.35-1.01-4.58,1.1-4.54-2.04,.01-1.03,.87-2.05,1.35-3.08,.5-.94,1.38-1.4,2.5-1.55,.23,.02,.42-.04,.58-.2,1.52-.26,3.04-.66,4.47,.26,.64,1.8-.22,3.43-.74,5.11-.8,1.28-1.56,2.62-3.62,1.51Z"></path>
      <path class="cls-135" d="M294.09,384.51c-.82,3.41-2.85,3.66-6.76,.84-1.39-.03-.98-1.33-1.66-1.86-.22-.93-.44-1.85,.05-2.77,.57-1.23,.53-3,2.92-2.64,.84,.86,1.69,1.71,2.53,2.57,.83,.8,.36,2.53,2.91,2.1,1.65-.28,1.18,1.11,0,1.78Z"></path>
      <path class="cls-36" d="M345.36,596.35c.72-2.08,.94-4.62,4.62-3.98,.77,.57,.54,1.28,.34,1.99-.45,.6-1.22,1.05-1.03,1.92-1.47,3.1-2.05,6.55-4.59,9.23-.77,.36-1.58,.43-2.43,.31-2.24-.85-2.52-1.96-.59-3.38l1.57-2.81c.46-1.22,.6-2.59,2.11-3.27Z"></path>
      <path class="cls-142" d="M318.67,331.29c-.9,0-1.8,.02-2.69,.03-.63-.2-1.2-.48-1.69-.9-1.42-.88-2.03-2.33-3.08-3.46,.03-.5,.32-.87,.71-1.2,.82-.55,1.68-1.07,2.64-1.42,1.53-.35,3.03-.33,4.47,.32,1.13,.83,3.12,.86,3.12,2.71,.25,.32,.18,.53-.27,.61-.46,.66-.92,1.33-1.38,1.99-.28,.79-.82,1.31-1.82,1.33Z"></path>
      <path class="cls-108" d="M109.12,433.21c-.26,.05-.52,.09-.77,.14-.63,.22-1.29,.28-1.55-.4-.28-.73,.3-1.26,.8-1.77h0c.32-.69,.85-1.14,1.69-1.28,.46-.29,.91-.58,1.37-.87,1.42-1.2,3.6-.79,5.08-1.89,.31-.29,.63-.58,.94-.87,.36-.51,.83-.8,1.54-.56,1.09,.46,1.86-.95,2.97-.42,1.53,.45,.9,1.32,.55,2.15-.6,1.41-2.22,2.1-2.98,3.39-.03,.28-.12,.55-.24,.81-.7,.86-1.68,.6-2.62,.54-.94-.04-1.81,.26-2.71,.4-.75,.13-1.48,.32-2.22,.51-.6,.16-1.21,.2-1.83,.13Z"></path>
      <path class="cls-144" d="M351.63,260.6c.39,.26,.78,.52,1.17,.78,1.62,1.72,1.97,3.45,.08,5.22-.43,.06-.86,.12-1.29,.17-1.28,.26-1.93-.49-2.59-1.25-.33-.53-.46-1.11-.55-1.7,.06-1.07-.81-1.74-1.4-2.53h0c-.24-.21-.32-.46-.23-.75,.47-.82,.18-1.68,.2-2.53,.01-.69,.42-1.23,.78-1.81,1.64-2.64,2.22-2.67,4.56-.17,.71,.99-.08,2.11,.35,3.13,.03,.31-.08,.58-.34,.79l-.34-.02-.34,.05c-.38,.18-.82,.36-.06,.63Z"></path>
      <path class="cls-36" d="M349.34,612.55c-1.07-.7-2.17-.42-3.28-.09-.86-1.01-.64-2.22-.8-3.35-.09-.65-.27-1.29-.22-1.95,.99-2.06,1.64-4.34,4.32-5.32,1.39-.26,2.46,.1,3.11,1.28,1.34,1.75,.22,3.25-.63,4.77-.34,1.33-3.08,1.49-2.11,3.45,.1,.46,.01,.88-.38,1.22Z"></path>
      <path class="cls-27" d="M300.23,275.44c-.11,.2-.16,.42-.17,.64-.34,.38-.8,.47-1.32,.44-.32,.16-1.56-.84-.87,.58,.57,1.08,.38,2.05-.91,2.43-1.37,.41-2.35-.27-2.96-1.38h0c-1.19-1.33-4.02-.59-4.47-2.83-1.41-1.75,.71-1.51,1.46-2.04,1.35-.87,2.98-.88,4.51-1.23,1.03-.13,2.05-.1,3.03,.26,1.27,.74,2.43,1.54,1.71,3.14Z"></path>
      <path class="cls-104" d="M115.88,431.22c.78,.13,1.57,1.04,2.33-.03,1.75-.82,2.36,.11,2.38,1.4,.01,.87,.2,1.77-.11,2.63,.04,.21,.04,.42-.02,.62-.34,1-1.3,1.18-2.26,1.35-2.05-.43-1.1,1.62-2.13,2.04-.83-.46-2.32-.19-2.26-1.63-1.43-.67,.43-1.63-.27-2.36-.34-.61-.04-1.14,.22-1.68,.48-.94,1.37-1.6,2.12-2.35Z"></path>
      <path class="cls-103" d="M311.44,326.69c1.79,.65,2.2,2.52,3.78,3.36-.4,.93-.72,2.06-2.22,1-.98-.69-2.1-1.13-3.2-1.62-.37-.01-.75-.08-1.11-.03q-4.35,.65-4.21-3.39c.55-.72,1.1-1.44,1.64-2.16,.36-.47,.19-1.21,.94-1.48,1.52-.24,1.92,.76,1.63,1.62-.82,2.42,1.2,2.32,2.74,2.7Z"></path>
      <path class="cls-112" d="M359.31,609.45c-.47,1.16-1.15,2.59-2.52,2.5-1.29-.09-1.06-1.75-1.48-2.72-.27-.61-1.19-.76-1.32-1.48-.25-.7-.47-1.4-.6-2.12-.07-.89,.38-1.48,1.3-1.8,1.39-.1,2.93,.12,3.78-1.26,.75-.88,1.11-2.4,2.98-1.45h0c.26,.21,.45,.46,.55,.76,.18,1.66-1.25,2.51-2.27,3.57-.79,.81-1.9,1.58-.58,2.74,.3,.4,.4,.82,.16,1.27Z"></path>
      <path class="cls-6" d="M120.48,435.23c-.26-.84-1.61-1.28-.69-2.59,.89-1.27-.69-1.25-1.58-1.45,0-.21,0-.41,0-.62,2.5-1.39,4.24-4.41,8.06-2.95-.19,.39-.59,.8-.55,1.18,.3,2.82-.34,4.95-4.14,5.21-.4,.03-.73,.79-1.09,1.22Z"></path>
      <path class="cls-19" d="M318.35,206.64c.02,.68,.03,1.37,.05,2.05-.09,.2-.14,.4-.16,.62-1.81,.58-2.2,2.21-3.15,3.42-2.22-.71-3.73-2.46-5.96-3.17-1.87-1.67-.96-3.27,.14-4.87l-.04,.04c1.78-.96,2.86-.34,3.53,1.22,.36,.85-.58,2.11,.93,2.59,1.19,.38,.98-.65,1.27-1.16,.85-1.13,1.99-1.26,3.32-.78l.06,.04Z"></path>
      <path class="cls-101" d="M309.8,329.43c1.56-.92,2.66,.17,3.46,.93,1.1,1.05,1.34-.1,1.96-.31,.25,.42,.51,.84,.76,1.26-.94,.46-1.06,1.38-1.5,2.12-.44,.22-.85,.52-1.32,.65-1.32,.35-2.39,1.9-4,.83-1.97-1.3-.02-2.59,.17-3.88,.08-.54,.3-1.07,.45-1.61Z"></path>
      <path class="cls-134" d="M255.38,95.44c-.02-.23,0-.45,.09-.66,.92-.29,1.42,.5,2.17,.65,2.29,1.28,1.25,3.69,2.33,5.39,.01,.22,.03,.45,.04,.67-.22,1.16,.06,2.77-2.29,1.95-.54-.46-.91-1.14-1.82-1.15-.64-.06-1.27-.18-1.84-.46-.27-.19-.42-.43-.43-.74,.26-.88,.96-1.57,1.26-2.43,.36-1.05-.3-2.22,.48-3.22Z"></path>
      <path class="cls-117" d="M248.46,431.02c-2.31,.23-4.06,2.52-6.72,1.44-.15-1.18-1.43-2.56,.76-3.32,.32-.71,.93-1.12,1.76-1.29,1.47-.16,2.83-.09,3.51,1.36-.07,.69,.16,1.29,.69,1.8Z"></path>
      <path class="cls-76" d="M236.42,472.83c1.11,.33,3.03-.6,2.97,1.53-.4,2.62-1.79,4.16-5.05,3.66-.74-.23-1.18-.71-1.44-1.34-.09-.3-.11-.62-.08-.93,.24-.97,1.19-1.44,1.91-2.08,.29-.73,1.14-.55,1.7-.84Z"></path>
      <path class="cls-151" d="M390.22,451.43c.32,3.17-.09,6.3-.59,9.42-.27,.23-.54,.47-.82,.7-.75-3.4-1.06-6.8-.08-10.21,.53-.3,1.03-.35,1.49,.1v-.02Z"></path>
      <path class="cls-145" d="M247.79,404.75c.58,.23,1.49-.31,1.76,.44,.08,.23-.65,.69-1.02,1.05-.24,.07-.47,.14-.71,.2-.66,1.55-2.25,1.96-3.79,2.43-1.46-.02-.52-2.32-2.37-1.98,.33-2.71,2.43-2.49,4.58-2.19,.51,.01,1.03,.03,1.54,.04Z"></path>
      <path class="cls-61" d="M537.35,365.72c.23,.07,.46,.14,.69,.19,1.79,2.78-.02,5.76,.59,8.6,.15,1.1,.35,2.22-1.31,2.58,.01-2.11,.04-4.22,.02-6.33-.01-1.21-.16-2.4-1.6-3.02-.1-.12-.2-.23-.31-.35-.08-.29-.07-.58,.02-.88,.21-.42,.52-.76,.98-.98,.34-.08,.65-.02,.92,.18Z"></path>
      <path class="cls-85" d="M343.25,259.34c.54-.02,.75-.31,.77-.75,.25-.05,.5-.09,.75-.14,.61,.1,1.54-.3,1.53,.77,.51,.36,1.22,.64,.75,1.41,0,.22,0,.43,0,.65-.87,.31-1.42,2.34-2.71,.26-.89-1.43-2.59,1.74-3.63-.57,1.21-.05,2.17-.52,2.54-1.63Z"></path>
      <path class="cls-16" d="M308.99,211.39c.2-.77-.26-1.73,.83-2.23,2.42,.41,3.62,2.25,5.27,3.57-1.9-.99-4.21,1.03-6.01-.66l-.09-.67Z"></path>
      <path class="cls-114" d="M365.15,606.47c1.12-1.53,1.54-3.45,3.23-4.66,1.73-.23,1.83,.89,2.01,1.93-.07,1.27-.85,2.18-1.91,2.94-.3,.12-.6,.12-.9,.03-.71-.83-1.74,.75-2.43-.25Z"></path>
      <path class="cls-72" d="M295.41,272.7c-.77-.9,.53-1.76,.05-2.66,.28-.26,.56-.52,.83-.78,2.2,.4,3.29,1.39,2.41,3.48-1.09-.01-2.19-.03-3.28-.04Z"></path>
      <path class="cls-85" d="M344.64,268.08c1.12-.96,.21-3,2.31-3.43,.88,.45,1.1,1.24,1.34,2.03,.08,.5-.05,.96-.43,1.35-.58,.72-1.12,1.51-2.32,1.44-.75-.23-.73-.86-.91-1.39Z"></path>
      <path class="cls-104" d="M318.95,143.96c-.61-.63-1.22-1.27-1.83-1.9,1.93-1.8,3.19,1.67,5.04,.51l.3-.17,.23,.24c-.1,.19-.08,.37,.06,.53-.5,.79-.99,1.59-2.22,1.56-.53-.26-1.06-.52-1.59-.78Z"></path>
      <path class="cls-43" d="M372.82,603.69c2.24,2.8-1.17,3.71-2.28,5.39-.74-.47-1.14-1.08-1.04-1.91,.55-1.08,1.18-2.11,2.41-2.71l.9-.77Z"></path>
      <path class="cls-106" d="M498.54,336.12c.68-.89,1.36-1.79,2.17-2.85,1.42,1.19-.28,2.18,.07,3.13-1.27,.38-.31,2.64-2.44,2.3-.47-.65-.36-1.28,.06-1.91,.05-.22,.09-.45,.14-.67Z"></path>
      <path class="cls-31" d="M247.78,101.5c-.13-.08-.27-.13-.42-.15-.14-.18-.28-.36-.42-.54,.33-2.8,1.31-3.1,4.69-1.45-.6,1.68-2.52,1.48-3.84,2.14Z"></path>
      <path class="cls-8" d="M357.56,392.08c.34-1.09-.47-2.43,.9-3.3,.27,.9,2.77,1.44,.44,2.82-.53,.31-.33,1.59-.47,2.43-.47,.01-.94,.02-1.41,.04,.2-.66,1.08-1.17,.53-1.98Z"></path>
      <path class="cls-21" d="M365.79,599.01c-.8,.67-1.6,1.34-2.83,.75h0c-.65-1.43-.77-2.61,1.52-2.72,.81,.46,1.28,1.1,1.3,1.97Z"></path>
      <path class="cls-128" d="M290.09,419.78c1.01-.69,2.02-1.38,3.03-2.06,.03,1.49,.3,3.1-2.09,3.4-1.36,.14-1.18-.58-.94-1.34Z"></path>
      <path class="cls-2" d="M351.56,292.83c.77,.27,1.55,.55,2.32,.82,.65,1.02-.15,1.14-.98,1.24-.66-.61-1.32-1.23-1.98-1.84,.24,0,.45-.08,.63-.23Z"></path>
      <path class="cls-77" d="M538.07,344.11c.44,.12,.89,.24,1.33,.35,.07,.78,.14,1.57,.22,2.35,.36,.54,.01,.78-.51,.95-.6-.04-.74-.53-1.07-.83,.63-.94,.46-1.88,.04-2.83Z"></path>
      <path class="cls-94" d="M315.03,427.85c-1.75,.84-2.13-.54-2.84-1.38,1.29-.1,2.31,.25,2.84,1.38Z"></path>
      <path class="cls-139" d="M351.61,299.72c-.77,1.12-2.07,.27-3.04,.65-.26-.21-.52-.43-.77-.64,1.27-.37,2.54-.33,3.81,0Z"></path>
      <path class="cls-37" d="M318.9,235.43c-.22,.05-.45,.09-.68,.13-.03-.87-1.63-1.76,.04-2.61,.25,0,.51,0,.76,.01-.04,.82-.08,1.65-.12,2.47Z"></path>
      <path class="cls-59" d="M351.63,260.6c-.66,.19-1.35,.66-1.9-.13-.11-.16-.07-.4-.11-.61,.69,.04,1.38,.07,2.07,.11-.07,.21-.09,.42-.06,.63Z"></path>
      <path class="cls-59" d="M353.09,259.25c-.2,.08-.41,.16-.62,.22-.71-.89-.36-1.81-.13-2.73,.21,.02,.42,.06,.63,.11,.04,.8,.08,1.61,.12,2.41Z"></path>
      <path class="cls-100" d="M245.66,425.12c-.29,.24-.57,.49-.86,.73,0-.63,0-1.27,0-1.9,.38-.62,.76-1.27,1.43-.19-1.37,.06-.82,.76-.57,1.36Z"></path>
      <path class="cls-125" d="M429.64,611.89c3.47,.69,6.99,.06,10.46,.37,1.67,.15,1.58-1.14,2.27-1.79,1.88-.35,1,2.35,2.85,2.04,.97-.17,1.84-.11,1.81,1.02-.02,1.13-1.06,1.13-1.92,1.12-4.28-.04-8.59,.1-12.84-.27-2.51-.22-3.07,.61-3.25,2.47-.23,2.42-.61,4.83-.94,7.37-2.13-.51-1.33-1.73-1.29-2.54,.08-1.9,.38-3.8,.61-5.69,.12-1.04-.16-1.78-1.53-1.8-3.53-.05-7.94-1.32-10.44,.08-6.49,3.66-12.8,.61-19.12,1-.98-.65-2.12-.24-3.18-.36-.57-.07-1.45,.02-1.28-.72,.21-.89,1.09-.51,1.76-.37,2.98-.57,6.08-.62,8.96-.15,4.98,.8,9.14-2.33,13.99-1.81,1.2,.13,1.33-1.17,1.76-1.91,1.83-3.16,3.6-6.35,5.38-9.53,.83-.55,1.38-.21,1.83,.46,.27,3.84-3.22,6.34-4.5,9.85,2.42,.61,4.69,.37,6.94-.37,1.38-.21,1.1,1.02,1.67,1.52Z"></path>
      <path class="cls-41" d="M502.99,593.68c-2.95,7.94-5.9,15.89-8.86,23.83,.22,.12,.43,.33,.62,.31,1.35-.14,3.24-1.66,3.89,.15,.64,1.76-1.69,1.72-3.05,2.1-2.75,.76-5.49,1.54-8.23,2.33-.62,.18-1.42,.43-1.64-.18-.19-.52-.17-1.47,.87-1.59,6.43-.78,6.44-5.69,7.84-9.67,1.95-5.53,3.83-11.08,5.73-16.62,.8-.67,1.56-1.52,2.82-.67Z"></path>
      <path class="cls-125" d="M429.64,611.89c-.49-.45-.99-.9-1.48-1.35-1.65-1.86-.97-3.99-.76-6.01,.17-1.64,.58-3.25,.51-5.1-.99,.62-1.35,1.89-2.72,1.84-.28-.58-.81-.8-1.48-.84,1.85-3.77,3.69-7.54,5.58-11.29,.39-.76,.67-1.93,1.99-1.65,1.4,.3,1.32,1.35,1.17,2.44-.97,7.32-1.88,14.64-2.81,21.96Z"></path>
      <path class="cls-21" d="M511.35,618.03c-2.06-2.35,.02-4.65,.41-6.85,.37-2.07,.27-3.03-2.73-3.17,5.59-1.57,4.23-5.88,5.42-9.07,.45-1.22,.26-3.2,2.42-2.55,1.64,.49,.53,2.07,.22,3.18-.53,1.92-1.04,3.85-1.67,6.16,2.96-.67,5.56-1.33,8.2-1.84,1.14-.22,2.84-.86,3.29,.57,.47,1.49-1.46,1.89-2.47,1.81-9.75-.82-11.35,5.39-12.93,11.66l-.17,.09Z"></path>
      <path class="cls-3" d="M472.77,613.05c-.71,3.18-3.72,4.64-6.63,6.5,.52-4.15,1.02-8.3,1.57-12.45,.67-5.11,1.37-10.22,2.08-15.33,.07-.54,.12-1.13,.38-1.6,.3-.53,.32-1.56,1.34-1.32,.81,.19,.95,.74,.84,1.73-.86,7.63-2.34,15.18-3.68,22.74-.16,.93-.24,1.87-.38,3.02,2.13-.82,2.38-3.09,4.58-3.22l-.08-.07Z"></path>
      <path class="cls-138" d="M444.81,592.32c3.93-1.38,8.06-1.65,12.17-1.23,6.07,.63,8.83,4.6,7.09,9.85-.75,2.25-1.78,4.39-3.52,6.2-.98,.46-1.58,.38-1.42-.79,.83-1.95,1.85-3.86,2.44-5.86,1.24-4.28-.35-6.23-5.23-6.83-1.46-.18-2.92-.38-4.38-.57-1.67,.21-3.31,.52-4.99,.68l.06,.05c-.26-1.05-2.55,.26-2.21-1.5Z"></path>
      <path class="cls-114" d="M393.62,613.82c-.33,.11-.86,.13-.96,.34-.27,.52,.33,.37,.59,.41,1.05,.14,2.27-.3,3.07,.7-3.27,0-6.55,.03-9.82,0-.54,0-1.37,.25-1.51-.55-.16-.94,.72-1.2,1.43-1.11,2.66,.34,3.09-1.37,3.65-2.98,1.9-5.43,3.69-10.9,5.75-16.29,.47-1.23,.28-3.91,2.76-3.12,2.1,.68,.3,2.57-.19,3.78-2.14,5.36-4.24,10.75-6.79,15.96-1.18,2.41,.2,2.55,2,2.86Z"></path>
      <path class="cls-21" d="M497.91,592.45c-6.1,1.14-8.41,6.34-12.69,9.42-.59,.3-1.17,.34-1.71-.1,3.11-4.82,8.04-8.33,11.73-12.73,.82-.98,1.72-1.93,2.75-2.73,1.06-.83,1.71-3.33,3.57-1.8,1.77,1.46-1.17,2.19-1.7,3.39-.5,1.12-2.59,1.47-2,3.17,.46,.45,.45,.91,.06,1.39Z"></path>
      <path class="cls-68" d="M530.47,616c-8.91,2.19-17.98,3.68-27.12,4.89,2.23-2.08,5.51-1.56,8.01-2.86,0,0,.16-.09,.16-.09,4.95-.92,9.9-1.85,14.84-2.77,1.35,.35,3.13-.97,4.11,.84Z"></path>
      <path class="cls-41" d="M510,595.09c6.92-1.25,13.84-2.48,20.75-3.76,1.36-.25,3.07-.86,3.36,.85,.25,1.49-1.52,1.43-2.75,1.54-6.08,.53-12.02,1.98-18.16,2.06-1.15,.1-2.54,1.05-3.19-.69Z"></path>
      <path class="cls-73" d="M446.96,593.76c1.55-.9,3.26-.85,4.99-.68-1.9,.3-2.83,.96-3.29,2.99-1.03,4.54-2.82,8.95-4.29,13.42-.38,1.15-1.11,2.39,.86,3.02-1.94,.42-1.75-1.52-2.85-2.04,1.13-5.65,2.51-11.26,4.58-16.71Z"></path>
      <path class="cls-21" d="M502.99,593.68c-.94,.22-1.88,.45-2.82,.67,.03-.23,.05-.46,.08-.69,.49-.9,.3-1.5-.9-1.71-.64-.11-1.24-.31-.8-1.09,3.54-1.32,7.07-2.67,10.64-3.93,.91-.32,2.11-.57,2.55,.59,.47,1.22-.81,1.46-1.68,1.75-1.63,.54-3.32,.91-4.94,1.47-1.46,.5-2.08,1.58-2.13,2.94Z"></path>
      <path class="cls-114" d="M530.47,616c-1.37-.28-2.74-.56-4.11-.84,4.91-1.16,9.82-2.32,14.73-3.48,.91-.21,1.99-.88,2.29,.62,.22,1.09-.35,1.52-1.58,1.74-3.77,.69-7.47,1.7-11.34,1.95Z"></path>
      <path class="cls-35" d="M483.5,601.77l1.71,.1c-3.15,3.98-7.24,7.23-10.79,10.91-.44,.46-1.01,.62-1.65,.28,0,0,.08,.08,.08,.07,2.53-4.55,6.57-7.97,10.65-11.36Z"></path>
      <path class="cls-136" d="M362.96,603.55c1.33,.5,1.15,1.38,.52,2.17-.56,.7-.62,1.14,.25,1.57,.69,.65,.49,1.32,.04,1.99-.05,1.33-.66,2.6-2.18,2.58-1.64-.03-.77-1.51-1.02-2.36-.33-1.14-.84,.07-1.26-.05-.32-.32-.64-.64-.96-.96,.37-2.51,1.56-4.41,4.61-4.94Z"></path>
      <path class="cls-127" d="M447.83,616.57c-4.32,2.74-9.08,3.54-14.3,2.46,4.9-.63,9.72-1.42,14.18-3.39,.36,.28,.41,.59,.12,.93Z"></path>
      <path class="cls-73" d="M444.81,592.32c.41,.89,1.92,.48,2.21,1.5-4.36,.19-8.5,1.54-12.9,1.77,3.2-2.05,6.86-2.87,10.69-3.27Z"></path>
      <path class="cls-68" d="M368.57,606.4c.41,.3,.82,.6,1.23,.91,.25,.59,.49,1.18,.74,1.78,.14,2.6-1.23,4.19-4.31,4.98-.49-2.53,3.52-4.31,1.27-6.85-.21-.19-.26-.36-.17-.51,.09-.15,.18-.23,.26-.23,.33-.02,.65-.05,.98-.07Z"></path>
      <path class="cls-91" d="M351.73,607.88c1.19-.3,1.1-1.61,2.06-2.09,.95,.47,.82,1.29,.84,2.06-.63,.61-.27,1.47-.69,2.13-.11,.87-2.49,1.26-.67,2.53-1.31,.02-2.62,.03-3.93,.05,0-.46-.01-.92-.02-1.38-.31-1.74,1.78-2.1,2.41-3.3Z"></path>
      <path class="cls-1" d="M459.12,606.36c.27,.55,.79,.75,1.42,.79-1.53,2.18-3.46,4.01-5.88,5.41-.33-.13-.55-.34-.67-.64,1.71-1.85,3.42-3.7,5.14-5.56Z"></path>
      <path class="cls-83" d="M453.99,611.91l.67,.64c-1.86,1.89-4.07,3.33-6.83,4.01-.04-.31-.08-.62-.12-.93,2.09-1.24,4.19-2.48,6.28-3.73Z"></path>
      <path class="cls-43" d="M367.59,606.47c-.03,.25-.06,.49-.09,.74-2.08-.5-2.22,1.76-3.73,2.07-.01-.66-.03-1.33-.04-1.99,.47-.27,.95-.54,1.42-.82,.81,.67,1.62-1.82,2.44,0Z"></path>
      <path class="cls-109" d="M498.55,590.87c.07,1.17,4.63,.19,1.7,2.8,.32-2.08-1.36-1.12-2.34-1.22-.02-.46-.04-.93-.06-1.39,.2-.16,.43-.22,.7-.19Z"></path>
      <path class="cls-64" d="M353.94,609.98c-.33-.85-1.45-1.91,.69-2.13-.13,.6,1.65,.45,.67,1.38-.45,.25-.91,.5-1.36,.75Z"></path>
      <path class="cls-119" d="M394.03,536.31c.25-.42,.5-.84,.75-1.26h2.45c-.97,1.18-1.98,1.45-3.21,1.26Z"></path>
      <path class="cls-110" d="M510,595.09c.85,1.01,2.15,.36,3.19,.69-.94,.58-2.02,.76-3.07,.49-.69-.18-1.33-.69-.12-1.18Z"></path>
      <path class="cls-95" d="M360.85,491.66c3.3-7.53,5.89-14.3,11.68-19.44-2.6,2.73-2.95,6.59-5.02,9.58-2.07,3-1.31,7.36-6.66,9.86Z"></path>
      <path class="cls-17" d="M394.16,521.66c.46-.06,.91-.12,1.37-.18-1.62,2.64-3.63,4.78-7.41,4.89-1.63,.05-2.78,1.26-3.65,2.2-2.22,2.4-4.29,2.05-6.59,.31,4.26-1.73,8.47-3.58,12.82-5.11,1.42-.5,2.44-1.24,3.47-2.1Z"></path>
      <path class="cls-49" d="M538.7,354.44c1.87,1.5,1.7,3.52,1.68,5.45-.01,1.35-.64,2.15-2.23,1.01-.99-.51-.95-1.35-.89-2.19h0c-.27-.47,.68-1.36-.63-1.5-1.36-1.76-.78-2.91,1.41-3.56,.45,.11,.5,.49,.67,.78Z"></path>
      <path class="cls-81" d="M495.34,359.01c-.93,.66,.34,2.22-1.34,2.58-.99-1.45-.13-2.14,1.34-2.58Z"></path>
      <path class="cls-132" d="M338.66,456.02c.31-1.52,1.2-2.77,2.35-3.89-.04,1.41,1.13,1.81,1.28,1.86-1.31-.82-.68,4.56-3.62,2.03Z"></path>
      <path class="cls-132" d="M333.33,456.78c.09-.16,.14-.33,.14-.51,1.48-.58,2.98-.6,4.49-.09-1.27,1.91-3.16-.02-4.63,.6Z"></path>
      <path class="cls-80" d="M235.67,494.57c.04-1.06,1.03-1.95,.54-3.15-.44-1.08,.33-2.45,1.18-2.6,4.07-.72,6.72-4.2,11.03-4.32,1.61,1.32,2.15,2.88,.45,4.31-1.93,1.62-2.65,3.66-3.36,5.77-1.25,.63,.36,3.44-2.72,2.77-.62-.14-.5,.5-.19,.91,.24,.32,1.55,.43,.34,1.09-.67,.36-1.1,.05-1.49-.49-.71-.97-1.68-1.62-3.04-1.71-.06-.3,0-.58,.15-.85,.11-.36,.77-.58,.52-.97-.13-.21-.67-.01-1.04,0-.9,.01-1.75-.11-2.38-.76Z"></path>
      <path class="cls-54" d="M238.71,496.6c-.15,.16-.25,.34-.29,.54-.93,0-1.86,0-2.78,0-.02-.14-.03-.27-.02-.41,.68-1.1,1.68-1.45,3.01-1.04,.35,.28,.37,.58,.08,.91Z"></path>
      <path class="cls-118" d="M256.74,491.97c-.83-.11-2.41,.4-1.33-1.28,.52-.02,1.05-.03,1.57-.05-.08,.44-.16,.89-.25,1.33Z"></path>
      <path class="cls-92" d="M331.24,452.79v-2.18c.15-.03,.3-.07,.46-.1,.25,.56,.5,1.11,.76,1.67-.4,.2-.81,.41-1.21,.61Z"></path>
      <path class="cls-147" d="M277.39,468.55c.15,.18,.34,.31,.58,.37,1.25,1.43-.23,1.95-1.17,2.48-1.68,.93-3.54,1.52-5.54,1.65-.37,0-.75-.01-1.12-.05-1.83-.31-3.45,1.06-5.31,.54-2.31-1-5.05-1.71-4.33-4.85,.76-.83,1.67-1.04,2.76-.52,3.68-.62,7.37-1.24,11.05-1.87,1.52,.21,2.22,1.31,3.07,2.24Z"></path>
      <path class="cls-10" d="M272.73,456.02c-.83,2.23-3.61,2.95-5.19,2.9-3.39-.11-2.98,1.58-3.12,3.33-.52-3.33-1.36-6.65-1.45-9.99-.05-1.86,1.04-3.89,4.08-2.33-.17,.77,.17,1.52,.16,2.28-.02,1.42,.95,2.32,2.24,2.71,.56,.17-.65-1.75,1.1-1.48,.72,.21,.73,.75,.79,1.28,.46,.44,.88,.91,1.39,1.31Z"></path>
      <path class="cls-84" d="M270.56,453.43c-.97,.83,.63,1.88-.31,2.71-3.23-1.18-5.48-2.77-3.19-6.22,1.77,.69,3.17,1.68,3.5,3.51Z"></path>
      <path class="cls-86" d="M277.39,468.55c-1.44-.3-2.31-1.21-3.07-2.24-.27-.43-.54-.86-.8-1.3,1.01-.23,2.03-.46,3.04-.69,.28,1.41,.56,2.82,.84,4.23Z"></path>
      <path class="cls-29" d="M263.26,468.17c-.83,.26-1.65,.52-2.48,.79-1.01-.36-.76-1.53-1.61-1.99-.08-.74-2.3-.85-.77-2.06,1.04,1.77,4.27,.96,4.85,3.27Z"></path>
      <path class="cls-10" d="M268.42,462.94c-1.34-.63-.65-1.52-.09-2.05,.62-.58,.75,.48,1.22,.61-.38,.48-.76,.97-1.14,1.45Z"></path>
      <path class="cls-10" d="M264.42,462.22c.58,.06,1.5-.05,1.67,.21,.42,.66-.58,1.03-.83,1.58-2.34,.16-.46-1.23-.84-1.8Z"></path>
      <path class="cls-88" d="M272.73,456.02c-1.1,.1-1.65-.27-1.39-1.31,.5-.17,1-.34,1.5-.52-.04,.61-.07,1.22-.11,1.82Z"></path>
      <path class="cls-82" d="M255.38,489.99c-2.82,.86-4.01-.27-3.94-2.69,.03-1.1,.35-2.18,.54-3.28-.38-.96,1.07-3.09-1.93-2.35-2.28,.09-5.67,1.01-5.71-1.89-.03-2.09,3.15-3,5.67-2.31,1.76,.48,2.03-.99,3.11-1.3,4.03-1.94,5.93-1.33,5.9,1.9-.33,.67-1.23,.94-1.51,1.64-.16,.42,.32,.67,.22,.23s.68,.25,.35-.09c1.05-.32,2.06-.71,3.19-.54,.67,.15,1.28,.41,1.84,.78,.49,.46,.95,.93,.46,1.61-2.73,2.76-5.46,5.52-8.19,8.28Z"></path>
      <path class="cls-7" d="M234.16,477.71c2.42-.29,4.33-1.2,5.23-3.36,.07,.77,.51,1.99,.14,2.23-3.18,2.09-1.91,5.51-3.22,8.17-1.22,2.49-2.5,2.1-4.38,1.03-.5-.3-.56-.73-.41-1.2,1-1.5,.31-3.3,1.1-4.84h0c.46-.7,.23-1.82,1.52-2.02Z"></path>
      <path class="cls-99" d="M344.68,605.14c.25,.88-1.05,1.55-.41,2.44,.04,.06,.81-.3,1.24-.46,.24,.51,.48,1.01,.73,1.52-.96,1.66-2.33,2.96-4.22,3.8-.47,0-.94,0-1.4,0,.6-2.42,1.21-4.84,1.81-7.26l2.25-.04Z"></path>
      <path class="cls-146" d="M173.55,516.23c-.83-.07-1.67-.15-2.5-.22,.29-.39,.58-.78,.87-1.18,1.29,.12,5.32-2.93,5.43-.69-1.27,.69-2.53,1.39-3.8,2.08Z"></path>
      <path class="cls-70" d="M530.32,386.01c.35,.7,.69,1.41,1.04,2.11-.14,.38-.27,.76-.41,1.14-.41-.38-.81-.76-1.22-1.13-.67-.9-.57-1.62,.59-2.12Z"></path>
      <path class="cls-40" d="M369.14,391.65c-1.34-1.07-1.07-2.64-1.56-3.97,1.26-1.42,2.88-1.91,4.72-1.13,1.02,.43,1.03,1.36,.73,2.31-.56,1.79-1.6,2.96-3.89,2.79Z"></path>
      <path class="cls-4" d="M110.63,268.84c1.38-1.05-1.16-.71-.65-1.45,.97-.41,2.34,.55,3.06-.71,2.66,2.27-1.11,2.12-1.57,3.22-.14,.34-.6,.32-.75-.08-.11-.3-.07-.65-.1-.98Z"></path>
      <path class="cls-23" d="M78.14,250.53c0-.57-.77-1.31,.44-1.62,1.4-.36,.77,1.24,1.66,1.37-.12,.4-.12,1.03-.4,1.15-.94,.41-1.09-.65-1.7-.9Z"></path>
      <path class="cls-90" d="M159.9,309.81c1.67-.04,1.35-1.23,1.53-2.12,1.42-.11,1.56,.69,1.45,1.65-.67,1.78-1.78,1.38-2.98,.47Z"></path>
      <path class="cls-56" d="M374.88,329.15c-.85,.26-1.28,.47-1.73,.49-.16,0-.35-.45-.52-.7,.35-.07,.71-.21,1.06-.2,.27,0,.53,.17,1.2,.41Z"></path>
      <path class="cls-5" d="M331.86,360.5c-1.73-1.31,.2-3.5-1.45-4.83,2.98,1.02,1.81,3.02,1.45,4.83Z"></path>
      <path class="cls-5" d="M336.42,358.28c.04,.29,.08,.57,.11,.86-.49,.97-.97,1.93-1.46,2.9-1.36-1.62,1.19-2.8,.62-4.33h0c.24,.19,.48,.39,.73,.58Z"></path>
      <path class="cls-5" d="M335.69,357.7c-.46,.35-.87,.86-1.4,1-.43,.11-.35-.43-.2-.7,.38-.7,.84-1.17,1.6-.3h0Z"></path>
      <path class="cls-139" d="M346.97,295.63c.53-.26,1.06-.53,1.59-.79,1.49,0,2.99,0,4.48,0-1.34,4.43-3.98,.9-6.07,.79Z"></path>
      <path class="cls-139" d="M353.14,300.35c-.51-.21-1.02-.42-1.53-.63-.06-.37-.58-1.01-.05-1.06,1.26-.13,1.46,.81,1.58,1.69Z"></path>
      <path class="cls-148" d="M233.4,376.44c-.29,.27-.58,.54-.87,.82-.77-.13-1.48-.35-1.28-1.22,.17-.76,.93-1.12,1.63-.99,.72,.13,.47,.89,.52,1.4Z"></path>
      <path class="cls-100" d="M244.83,425.84c-.6,1.09-1.98,.32-2.88,.96,.74,.57,1.45,1.11,2.16,1.65-.54,.23-1.07,.47-1.61,.7-.68-.81-2.37-1.38-1.67-2.57,.82-1.4,2.61-.66,4-.74Z"></path>
      <path class="cls-130" d="M377.46,376.57c.03-.65-.16-1.39,.14-1.92,.71-1.27,1.46-2.78,3.32-2.86,1.95-.08,2.1,1.59,2.69,2.75,.13,1.35,.85,2.72-.14,4.05-1.77-1.23-3.02-3.68-6.02-2.02Z"></path>
      <path class="cls-60" d="M234.16,477.71c-.51,.67-1.01,1.35-1.52,2.02-2.72,.71-3.82-.41-3.85-2.72,.05-2.11,2.04-.68,2.93-1.27,.38,.59,1.13,.34,1.67,.6,.26,.46,.52,.91,.77,1.37Z"></path>
      <path class="cls-60" d="M232.05,484.46c-.45-.63,.44-1.75-.94-2.04,.1-1.08,.55-2,1.52-2.69,.23,1.62,1.23,3.31-.58,4.73Z"></path>
      <path class="cls-121" d="M297.03,468.95c-1.07-1.98,.15-2.28,1.98-2.12,.38,.22,1.94-.12,.61,.89-.73,.55-1.72,.83-2.59,1.23Z"></path>
      <path class="cls-63" d="M314.4,222.2c-1.32-1.16-1.61-2.68-.46-3.8,.99-.96,2.26-.34,2.89,.89-.81,.97-1.62,1.94-2.43,2.91Z"></path>
      <path class="cls-115" d="M288.5,415.09l-.3,.03-.24-.16c.11-.65,.27-1.27,1.24-1.19,.18,.01,.5,.22,.49,.31-.06,.62-.65,.79-1.18,1.01Z"></path>
      <path class="cls-128" d="M288.72,418.36c-.62-.64-.92-1.31-.18-2.05,2.82,.5-.97,1.44,.18,2.05Z"></path>
      <path class="cls-85" d="M347.06,261.28c1.04,.49,1.92,1.12,2.18,2.22-.48,.98-.94,2-2.16,.51,.68-.92,.05-1.83-.02-2.74Z"></path>
      <path class="cls-143" d="M306.98,322.64c-.03-.9-.06-1.8-.1-2.7,1.55-1.16,2.46-4.3,5.32-1.35-.01,1.6-.02,3.2-.03,4.79,.81,.87,.44,1.75,.03,2.63-.26,.23-.51,.46-.77,.68-3.11,1.47-4.54,1.01-3.63-2.4,.14-.52,.74-1.63-.83-1.65Z"></path>
      <path class="cls-103" d="M312.21,326c-.76-.87-.07-1.75-.03-2.63,1.14-.17,1.85,.34,2.33,1.2-.41,.93-1.16,1.42-2.3,1.43Z"></path>
      <path class="cls-48" d="M114.34,434.02c-1.58-.12-2.26-.73-1.48-2.14,1.01-.22,2.01-.44,3.02-.67,.14,1.22-1.11,1.84-1.54,2.81Z"></path>
      <path class="cls-59" d="M347.06,260.63c-.25-.47-.5-.94-.75-1.41,.89,.31,1-.45,1.42-.8-.15,.75,1.38,1.91-.67,2.21Z"></path>
      <path class="cls-124" d="M298.53,276.01c-.18,.72-.95,.56-1.46,.78-.88-.06-1.44-.29-.67-1.11,.9-.95,1.59-.67,2.13,.33Z"></path>
      <path class="cls-22" d="M251.74,104.72c-.16-.58-.32-1.16-.47-1.74,.36-1.19,.83-2.22,2.59-1.49h0c.64,.45,1.38,.8,1.63,1.56,.16,.4,.3,.82,.56,1.19-.81,4.62-2.91,.07-4.32,.48Z"></path>
      <path class="cls-98" d="M253.85,101.48c-1.28-.08-1.6,1.17-2.59,1.49-1.33-.18-2.96,.21-3.48-1.48,.63-1.64,2.34-1.73,3.84-2.14,.45,.01,.89,.03,1.34,.04,.82-.34,1.62-.46,2.41,.07,.11,1.04-1.07,1.3-1.53,2.01Z"></path>
      <path class="cls-39" d="M255.38,99.48l-2.41-.07c2.02-.74,1.07-2.9,2.41-3.97,0,1.35,0,2.69,0,4.04Z"></path>
      <g>
        <path class="cls-127" d="M89.5,553.37c.93,.93-3.35,1.73-.08,2.71,1.23-.96,2.47-1.92,3.7-2.88,1.02-.45,2.21-1.54,2.31-2.58-1.99-1.17-5.13,.91-5.93,2.75Z"></path>
        <path class="cls-127" d="M87.2,552.49s.02,.02,.02,.02c0,0,0-.02,0-.02,0,0,0,0-.01,0Z"></path>
        <path class="cls-127" d="M93.29,548.68c.32-.47,1.51-.82,1-1.31-.73-.69-1.68,.39-2.6,.32-.96,1.38-5.07,3.23-4.47,4.81,.48,.02,.95,.04,1.43,.05,1.93-.76,3.45-2.21,4.65-3.87Z"></path>
      </g>
      <path class="cls-16" d="M312.34,206.39c.75,.81,1.76,1.26,2.86,1.56,.77,1.47-.2,1.89-1.5,1.64-2.09-.41-2.49-1.6-1.36-3.2Z"></path>
      <path class="cls-98" d="M256.2,101.51c-.3,.66-.6,1.32-.9,1.98-.48-.67-.96-1.34-1.44-2.01,.78,0,1.56,.02,2.34,.02Z"></path>
      <g>
        <path class="cls-149" d="M306.66,608.46c.78-.99,1.41-2.06,1.75-3.24,.04-2.28-.13-4.39-3.79-3.55-1.32,.58-1.7,1.79-2.37,2.8-.48,.89-.96,1.78-1.43,2.67-2.81,1.38-1.35-.54-1.1-1.22,.32-.88,.81-1.69-.35-2.33-1.06-.59-1.48,.5-2.23,.72,.06-1.29-.08-2.35-1.98-1.34-.9,.48-1.32,1.63-2.66,1.5,.3-.94,.51-1.92,.94-2.81,.36-.75,.23-1.27-.46-1.71-.88-.55-1.27,.38-1.91,.55-.42,2.07-2.41,3.41-3.11,5.35-.5,.49-.99,.97-1.49,1.46-.33,.44-.74,.82-1.18,1.17,.6-.73,1-1.54,.54-2.66,.71-1.31,1.71-2.85-.19-3.79-2.02-1-2.76,.8-3.7,1.94-.87,1.06-1.2,2.47-2.65,3.28-.57-1.04-1.12-2.04-.26-3.07,.63-.75,.92-1.35-.18-1.91-1.22-.62-1.87,.08-2.41,.89-.88,1.31-.48,3.3-2.92,4.13,.21-1.22-.99-2.22,.23-3.28,.89-.77,.57-1.38-.43-1.82-1.06-.47-1.75,.14-2.14,.82-.61,1.08-1,2.26-1.49,3.39-.31,.23-.61,.45-.92,.68-.27,.26-.58,.49-.84,.76-.04-.69-.23-1.4,.26-2.04,.1-.88,.42-1.84-.82-2.3-.75-.28-1.2,.24-1.38,.75-.84,2.42-2.98,4.37-3.12,7.03,.52-.06,1.05-.12,1.57-.18,1.04,.83,2.02,1.36,3.04-.08,.78-1.09,1.64-2.14,2.49-3.2,1.17,1.16,.74,2.35,.06,3.59-.48,.88-1.33,1.96,.02,2.66,1.2,.62,2.41-.04,3.43-.77,1.36-.98,1.56-2.61,2.61-4.17,.24,2.03-2.79,3.41-.69,4.93,1.61,1.17,2.65-.32,3.4-1.55,.28-.34,.49-.81,.86-.98,.68-.31,.57,.32,.78,.64,.76,1.15,1.76,1.38,2.93,.41,.51-.22,1.03-.44,1.54-.65,1.3-.42,2.26-1.3,3.33-2.02,.21-.16,.4-.34,.57-.54,.44,.4,.87,.8,1.31,1.19,1.39-.96,1.11-3.48,3.81-3.2,.14,.75,.66,1.1,1.49,1.1,.14-.16,.31-.28,.48-.39,.1,.87,.96,1.63,.48,2.58-.24,1.67,1.16,1.16,2.11,1.26,.92-.41,1.7-.92,2.02-1.73,.11,.63,.41,1.21,.86,1.75,.74,.53,1.03,2.19,2.52,.77,.42-.51,.3-1.08,.27-1.65,.02-1.47,1.73-1.63,2.46-2.54Z"></path>
        <path class="cls-149" d="M237.02,594.97c-1.06-.28-1.55,.48-1.91,1.22-.29,.59-.55,1.19-.82,1.79-.09,.36-.18,.73-.26,1.09-.07,.43-.07,.88-.21,1.29-1.32,3.87-2.72,7.72-3.95,11.62-.23,.72-1.66,2.61,1.26,1.94-.22-.87,.46-1.41,.91-2.04,.29-.44,.24-.89,.03-1.33-.13-.79,.61-1.04,1.12-1.43,1.52-3.98,3.05-7.96,4.53-11.95,.31-.83,.7-1.84-.69-2.2Z"></path>
        <polygon class="cls-149" points="234.17 609.18 234.17 609.18 234.16 609.17 234.17 609.18"></polygon>
        <path class="cls-149" d="M260.56,609.83c.8-2.35,1.67-4.69,2.39-7.06,.46-1.53,1.49-2.14,3.21-2.29,4.76-.42,9.51-.94,14.26-1.43,1.47-.15,3.16,0,3.43-1.9-.61-.39-1.19-.81-2.04-.7-4.58,.59-9.08,2.2-13.83,.91-.12-.03-.49,.65-.74,1.01-.83,.27-1.26-.13-1.57-.73l.2-1.89c-.46-.89-1.01-1.49-2.08-.55-.23,.18-.45,.37-.68,.55-1.08,.84-1.68,2.84-3.8,1.09-.44-.37-1.12,.23-1.4,.78-.01,.04-.02,.09-.03,.13-1.67,.56-2.7,.06-3.04-1.77-.15-.81-.49-1.58-1.24-2.09,0,0,0-.01,0-.02-.09-.33-.28-.6-.58-.81l.03,.03c-.37-.55-.64-1.2-1.54-1.23-2.76-1.52-5.89-1.96-9.01-2.41-1.02-.49-2.02-.17-3.02,.06l-3.05,.11c-.93,.48-2.06,.19-3.01,.6-1.53,.48-3.07,.95-4.6,1.43-1.7,.63-3.58,1.03-4.53,2.66l-.04,.02c-.58,.42-1.24,.8-1.24,1.59,.04,.74,.37,1.29,1.23,1.48,2.27-.37,4.1-1.33,5.36-3.09,.5-1.03,1.51-.53,2.32-.61,7.03-2.21,13.96-3.13,20.45,1.34,2.22,2.95,1.81,5.85-.24,8.71-1.06,.77-2.57,1.22-2.77,2.78,1.77,.29,2.22-1.65,3.76-1.36,.03,2.26-2.41,4.31-.68,6.71,1.17,.2,1.79-.39,2.22-1.24,.5,0,1.01,.02,1.51,.03,.63,.3,1.24,.23,1.84,.03-.04,.39,.06,.79,.23,1.19l.03,1.38c-.08,.63,.29,.91,.94,.98,1.34-.34,1.86-1.09,1.47-2.3-1.34-.65,.62-1.43-.1-2.1Zm-3.15-5.38c.85-.48,1.55-1.06,1.22-2.22-.33-1.17-1.51-1.15-2.62-1.01,.78-.54,1.7-.94,2.19-1.75,1.76,3.01,1.75,3.94-.79,4.97Z"></path>
        <path class="cls-149" d="M246.32,607c-1.62,.5-3.26,.94-4.89,1.41,0,0,0,0,0,0-1.86-.22-3.77,.14-5.62-.41-.99-.3-1.74,.06-1.63,1.17,.89,.73,2.06,.3,3.06,.56,1.21,.03,2.42,.06,3.64,.09,.71-.42,1.82,.05,2.39-.65,.18,.28,.43,.31,.72,.12,.77-.72,1.78-.83,2.82-.86,.2-.64,1.66-.3,1.35-1.18-.32-.91-1.14-.46-1.84-.25Z"></path>
        <path class="cls-149" d="M301.55,599.65c-.03-.23,.05-.42,.25-.57,.09-1.13-.67-1.72-1.72-2.13-.3,.26-.6,.52-.9,.78,.36,1.06-.84,3.64,2.37,1.92Z"></path>
        <path class="cls-149" d="M310.76,604.15c-1.24-.55-1.26,.96-1.84,1.54-.25,.25-.47,.53-.7,.79-.49,.67-.98,1.35-1.47,2.02-.23,.42-.46,.84-.69,1.25,.26,.25,.53,.51,.79,.76,.7-.69,1.4-1.39,2.1-2.08l1.54-2.01c-.18-.81,1.66-1.67,.27-2.28Z"></path>
      </g>
      <g>
        <path class="cls-57" d="M477.43,473.58c2.89-.85,4.45-2.44,3.74-5.3-.48,.26-.96,.53-1.44,.79-.77,1.5-1.54,3.01-2.31,4.51Z"></path>
        <path class="cls-57" d="M564.53,551.1c-39.29,4.53-100.37,21.8-128.92-15.2-7.51-5.75-8.38-22.85,1.04-27.1,24.52-20.71,61.36-51.9,76.96-84.3,9.77-19.98,18.63-40.03,22.6-61.6,6.39-13.55-.93-45.61-20.84-40.23-37.06,30.68-58.07,73.83-78.01,117.33-14.77,19.64-8.91,60.31-26.66,72.08-8.35,3.48-14.43,10.14-22.88,13.61-13.06,7.69-33.88,3.39-29.39-16.06,7.89-4.7,13.91-11.6,18.18-19.1,5.83-11.63,26.5-51.75-.6-43.05-42.42,33.5-12.25,58.38-65.93,79.26-29.24,13.46-66.08,6-35.31-27.75,22.08-14.89,57.7-27.52,85.02-45.61-2.65-3.99-12.11,3.79-7.51-5.51-1.18-12.53-11.83,7.4-13.47,7.9-10.52,1.91-19.01-.32-28.77,1.36-2.63,3.79,8.66,4.59,3.71,7.1-7.97,4.48-19.65,8.28-26.74,15.42-36.61,16.7-72.49,20.63-110.39,30.45-5.03,.96-7.75,2.13-8.72,3.15-2.38,.16-6.13,.86-7,.96-2.97,.68-5.05,3.13-7.71,4-6.23,2.57-13.92,2.79-19.08,7.26-1.54,1.11-3.47,1.53-5.23,2.15-.42,.96-1.33,1.67-1.71,2.65h-2.06s0,0,0,0c-.1-.39-.28-.68-.82-.59-.03,.15-.04,.3-.05,.45-.46,.22-.82,.86-1.23,1.2-.09,.14-.15,.26-.2,.38-.02-.04-.05-.08-.07-.13-.03-.02-.07-.04-.1-.06,.04-.32,.07-.64,.11-.95-.41,.35-.81,.7-1.22,1.05h0s-.18-.23-.18-.23c0,0,0,0,0,0-2.3-1.37-2.91,1.5-4.67,1.47-.21,.12-.42,.25-.63,.37-.03,.15-.08,.29-.15,.42-3.96,1.11-7.7,2.52-9.88,5.97-1.25,.93-2.49,1.87-3.74,2.8h0s0,0,0,0c-.49,.24-.98,.47-1.47,.71-1.57,.94-.52,3.21-3.13,3.84,2.02,.29,3.34,.04,4.59-.54,.27-.43,.54-.86,.81-1.29,.18-.07,.37-.09,.57-.07-.36-1.67,2.56-2.9,3.14-4.07,.02,.03,.03,.06,.05,.09,3.1-.52,5.32-3.07,8.39-3.57h0s-.09,.27-.09,.27c1.49-1.01,3.83-1.67,4.48-3.49l.1,.05h0s0,0,0,0c1.38-.2,2.72-.48,3.78-1.37-.02-.04-.05-.09-.07-.13,1.4,.25,4.32-.77,4.72-1.83-.11-.1-.22-.19-.33-.29,3.37,.3,11.61-6.1,15.39-5.77l.15-.19c3.01,.27,4.46-3.01,7.37-2.58,4.48-.33,7.19-4.07,11.27-4.8,.72-.67,5.89-1.11,8.32-1.91,2.28,.21,5.78-.17,9.98-1.54,27.13-7.85,45.5-7.38,68.23-13.93,20.33-4.16,16.26-8.54,8.23,10.06-8.66,19.32,9.51,38.92,30.44,32.99,8-.96,16.02-3.78,23.21-6.78,58.92-35.64,22.5,22.27,84.38-1.22-6.91-.79,17.74-8.35,6.19-2.83,7.98-.84,11.07-7.31,18.61-10.83,21.57,111.04,279.27,4.37,316.2-48.05-52.21,36.37-108.46,63.04-171.25,77.77Zm-123.79-85.94c16.25-43.65,42.08-105.4,80.25-128.33,37.74,45.29-116.06,216.76-80.25,128.33Zm-153.66,21.72c.07,.14,.07,.41-.19,.21-1.21,.42-.51,.06,.19-.21Zm34.62,39.98c-.61-.06-.45-.06,.04-.03-.01,.01-.03,.02-.04,.03Z"></path>
      </g>
      <path class="cls-18" d="M277.87,473.1c.45,1.18-1.08,1.15-1.41,1.85-1.92,.93-3.48,2.45-6.18,1.61-1.83-.57-1.95,2.06-3.63,2.31-.45,.71-1.26,.79-2.03,.96-.81,.07-1.58-.1-2.37-.23-.84-.4-1.95-.63-1.5-1.86,2.7-.67,4.84-1.74,4.4-4.73,1.7,.77,2.85-2.1,4.66-.56,.82,.97,1.82,1.26,3.06,.64,1.66,.4,3.32,.64,4.99,.02Z"></path>
    </g>
  </g>
</svg></svg></g></svg>