<svg width="56" height="62" fill="none" xmlns="http://www.w3.org/2000/svg"><g filter="url('#filter0_d_33_507')"><path d="M46.283 32.054c1.832-7.047-2.712-14.893-10.291-20.872-5.14-4.056-10.382-4.119-13.248-4.241-3.177-.136-6.363.853-9.066 2.923-4.227 3.24-6.114 8.4-7.05 18.079-.35 3.617-.867 7.339-.505 10.909.338 3.304 1.675 6.126 3.778 8.446 2.636 2.907 6.992 3.963 10.928 3.287 3.723-.638 7.238-2.691 10.628-4.512l1.012-.545c8.47-4.55 12.464-8.273 13.814-13.474Z" fill="url('#paint0_radial_33_507')"/><path opacity=".2" d="M22.166 8.195c.174 0 .35.005.524.013l.337.013c2.832.114 7.568.308 12.199 3.963 7.758 6.122 11.44 13.431 9.849 19.549-1.216 4.677-4.914 8.23-13.194 12.68l-.72.384-.292.156c-.32.173-.645.35-.97.524-3.003 1.63-6.11 3.316-9.279 3.857-.69.119-1.399.178-2.107.178-3.115 0-5.918-1.12-7.692-3.076-1.995-2.197-3.157-4.795-3.452-7.72-.296-2.893.025-5.99.337-8.982.058-.557.117-1.12.17-1.673.917-9.46 2.758-14.28 6.56-17.191 2.282-1.75 4.96-2.675 7.73-2.675Zm0-1.267c-2.987 0-5.952.993-8.488 2.936-4.227 3.24-6.114 8.4-7.05 18.079-.35 3.617-.867 7.339-.505 10.909.338 3.304 1.675 6.126 3.778 8.446 2.128 2.345 5.372 3.485 8.612 3.485.779 0 1.553-.067 2.316-.194 3.723-.638 7.238-2.691 10.628-4.512l1.012-.545c8.475-4.55 12.464-8.277 13.818-13.474 1.832-7.047-2.711-14.893-10.291-20.871-5.143-4.06-10.386-4.124-13.252-4.246a13.226 13.226 0 0 0-.578-.013Z" fill="#424242"/><path d="M14.615 18.49c.492-.604.607-1.332.258-1.624-.35-.293-1.032-.04-1.523.565-.492.604-.608 1.332-.258 1.624.35.293 1.031.04 1.523-.565ZM21.754 21.093c.036-.783-.302-1.436-.754-1.457-.453-.021-.849.596-.885 1.38-.036.782.301 1.435.754 1.456.453.022.849-.596.885-1.379ZM31.512 25.233c.344-.702.295-1.438-.11-1.642-.406-.205-1.015.197-1.359.9-.345.701-.295 1.436.11 1.641.406.205 1.014-.198 1.359-.9ZM18.44 25.935c.083-.78-.214-1.452-.665-1.501-.45-.05-.883.542-.966 1.321-.084.78.214 1.452.664 1.502.45.05.884-.543.967-1.322ZM12.145 28.323c.074-.78-.23-1.45-.681-1.494-.452-.044-.878.552-.953 1.332-.075.78.23 1.45.681 1.494.451.045.878-.552.953-1.332ZM17.067 34.206c.345-.702.295-1.438-.11-1.642-.406-.205-1.014.197-1.359.9-.344.701-.295 1.436.111 1.641.406.205 1.014-.198 1.358-.9ZM23.333 38.827c.345-.702.295-1.437-.11-1.642-.406-.205-1.014.198-1.359.9-.344.702-.295 1.437.11 1.642.407.205 1.015-.198 1.36-.9ZM28.033 43.794c.693-.345 1.094-.96.894-1.372-.2-.413-.924-.468-1.617-.122-.694.345-1.095.96-.895 1.373.2.412.924.467 1.618.121ZM29.245 38.437c.694-.345 1.094-.96.895-1.372-.2-.413-.924-.468-1.618-.122-.694.345-1.094.96-.894 1.373.2.412.923.467 1.617.121ZM14.98 44.587c.42-.17.528-.9.24-1.627-.289-.728-.863-1.178-1.283-1.007-.42.171-.528.9-.24 1.627.288.728.863 1.179 1.283 1.008ZM20.13 45.533c.67-.392 1.028-1.032.802-1.43-.227-.398-.953-.403-1.622-.011-.67.392-1.028 1.032-.802 1.43.227.398.953.403 1.622.011ZM11.382 37.318c.437-.123.623-.835.417-1.59-.207-.756-.728-1.27-1.165-1.146-.437.123-.623.835-.417 1.59.207.756.728 1.268 1.165 1.146ZM23.887 30.38c.345-.701.295-1.436-.11-1.641-.406-.205-1.014.198-1.358.9-.345.701-.296 1.437.11 1.641.406.205 1.014-.198 1.358-.9ZM29.225 31.692c.546-.554.73-1.267.41-1.592-.321-.325-1.024-.14-1.57.415-.547.555-.73 1.267-.41 1.593.32.325 1.023.139 1.57-.416ZM35.061 35.912c.326-.711.257-1.445-.154-1.639-.41-.193-1.008.226-1.333.937-.326.71-.258 1.444.153 1.638.411.194 1.008-.226 1.334-.936ZM38.97 31.263c.457-.634.53-1.367.163-1.638-.366-.27-1.032.023-1.487.656-.456.633-.529 1.366-.163 1.637.366.271 1.032-.022 1.488-.655Z" fill="#603813"/><path d="M38.853 31.118c.26-.497.236-1.026-.053-1.18-.289-.156-.733.121-.992.618-.26.497-.236 1.026.053 1.181.288.155.733-.122.992-.62ZM34.775 35.638c.26-.497.236-1.026-.053-1.18-.288-.155-.733.122-.992.619-.26.497-.236 1.025.053 1.18.289.155.733-.122.992-.619Z" fill="#FFFDE7"/><path d="M41.393 19.489c-2.09 1.132-4.868 1.61-6.692.076-1.27-1.065-1.75-2.945-1.312-4.559.437-1.614 1.703-2.928 3.22-3.591.899-.393 1.86-.562 2.827-.668.862-.093 1.72-.017 2.586-.11 1.25-.13 2.47-.494 3.594-1.064.925-.47 1.716-1.188 2.64-1.665-.091.047-.112 1.504-.137 1.69a15.25 15.25 0 0 1-1.674 5.095c-.537.998-1.183 2.045-2.028 2.81-.896.828-1.966 1.411-3.024 1.986Z" fill="url('#paint1_linear_33_507')"/><path opacity=".2" d="M46.712 10.414a13.755 13.755 0 0 1-1.358 3.684c-.43.798-1.02 1.795-1.762 2.471-.804.731-1.811 1.276-2.786 1.804-1.07.58-2.211.9-3.215.9-.85 0-1.553-.228-2.095-.68-.854-.718-1.224-2.049-.904-3.24.317-1.167 1.28-2.227 2.508-2.764.812-.355 1.703-.486 2.47-.57.37-.042.761-.042 1.174-.046.45-.005.916-.009 1.407-.06a11.481 11.481 0 0 0 4.023-1.191c.188-.106.363-.207.538-.308Zm1.544-2.502c-.924.478-1.715 1.192-2.64 1.665-1.12.57-2.344.934-3.594 1.065-.866.093-1.724.017-2.586.11-.966.105-1.932.274-2.828.667-1.516.66-2.782 1.977-3.219 3.591-.437 1.614.042 3.49 1.312 4.56.82.688 1.832.97 2.89.97 1.295 0 2.653-.422 3.802-1.047 1.062-.575 2.128-1.158 3.028-1.977.841-.765 1.487-1.809 2.028-2.81a15.014 15.014 0 0 0 1.325-3.359c.15-.57.266-1.153.35-1.736.024-.195.04-1.648.133-1.699Z" fill="#424242"/><path d="M30.34 11.694c.313 2.015 1.416 4.165 3.374 4.639 1.362.33 2.86-.304 3.71-1.433.854-1.128 1.083-2.67.75-4.047-.2-.82-.579-1.568-1.004-2.286-.379-.638-.87-1.191-1.249-1.833a9.174 9.174 0 0 1-1.129-3.013c-.158-.875-.087-1.787-.241-2.666.017.089-.945.845-1.058.96-.35.354-.679.734-.983 1.127a12.762 12.762 0 0 0-1.566 2.632c-.391.883-.758 1.86-.837 2.831-.083 1.031.075 2.066.233 3.089Z" fill="url('#paint2_linear_33_507')"/><path opacity=".2" d="M33.551 3.852c.005.034.013.063.017.097a10.31 10.31 0 0 0 1.287 3.44c.22.371.458.696.691 1.013.209.283.4.55.558.816.33.558.688 1.22.862 1.935.259 1.065.059 2.205-.524 2.974-.471.621-1.25 1.023-1.983 1.023-.154 0-.304-.017-.45-.051-1.432-.346-2.203-2.155-2.427-3.604-.146-.93-.296-1.888-.221-2.788.066-.829.425-1.724.733-2.413.375-.845.85-1.64 1.407-2.37a.37.37 0 0 1 .05-.072Zm1.004-2.797c.017.089-.945.845-1.058.96-.35.354-.678.734-.983 1.127a12.762 12.762 0 0 0-1.565 2.632c-.392.883-.758 1.86-.838 2.831-.083 1.04.071 2.07.234 3.093.312 2.015 1.416 4.166 3.373 4.639.242.06.491.084.737.084 1.137 0 2.274-.591 2.974-1.516.853-1.128 1.082-2.67.75-4.048-.2-.82-.58-1.567-1.004-2.286-.38-.638-.87-1.191-1.25-1.833a9.176 9.176 0 0 1-1.128-3.013c-.159-.883-.088-1.795-.242-2.67Z" fill="#424242"/><path d="M32.086 7.697c1.536 1.605 2.673 4.005 1.794 6.058-.612 1.428-2.144 2.35-3.681 2.366-1.537.017-3.024-.79-3.998-1.998-.579-.714-.975-1.546-1.32-2.396-.304-.756-.458-1.559-.762-2.32a9.897 9.897 0 0 0-1.866-2.986c-.654-.718-1.491-1.255-2.149-1.969.067.072 1.354-.287 1.528-.313a13.018 13.018 0 0 1 1.625-.13 13.388 13.388 0 0 1 3.306.337c1.02.233 2.112.55 3.003 1.116.945.6 1.737 1.42 2.52 2.235Z" fill="url('#paint3_linear_33_507')"/><path opacity=".2" d="M23.54 5.267c.924 0 1.849.106 2.748.309.808.182 1.833.456 2.612.95.84.537 1.578 1.306 2.294 2.05 1.129 1.178 2.212 3.11 1.545 4.668-.4.93-1.449 1.593-2.552 1.606h-.038c-1.075 0-2.216-.588-2.982-1.534-.516-.638-.858-1.407-1.129-2.07-.129-.321-.233-.676-.34-1.048-.122-.41-.247-.832-.422-1.272a11.116 11.116 0 0 0-2.107-3.371 16.874 16.874 0 0 0-.262-.275c.125-.008.25-.013.375-.013h.258Zm0-1.267a13.948 13.948 0 0 0-1.912.135c-.158.021-1.237.321-1.482.321-.025 0-.042-.004-.046-.008.658.718 1.495 1.25 2.149 1.969a9.9 9.9 0 0 1 1.866 2.987c.304.764.458 1.563.762 2.32.341.848.74 1.68 1.32 2.395.962 1.191 2.428 1.998 3.948 1.998h.05c1.537-.017 3.07-.938 3.681-2.366.879-2.053-.258-4.453-1.795-6.058-.778-.816-1.57-1.636-2.523-2.24-.892-.566-1.983-.883-3.003-1.115A13.66 13.66 0 0 0 23.54 4Z" fill="#424242"/><path d="M39.91 23.088c-2.273-.756-4.555-2.475-4.73-4.896-.121-1.686.895-3.35 2.357-4.153 1.462-.803 3.294-.786 4.827-.127.908.388 1.703.984 2.457 1.626.67.57 1.212 1.26 1.886 1.838a10.477 10.477 0 0 0 3.278 1.914c.983.355 2.053.44 3.04.79-.1-.033-1.158.968-1.312 1.082a14.772 14.772 0 0 1-4.83 2.328c-1.096.3-2.295.553-3.436.465-1.217-.102-2.383-.482-3.536-.866Z" fill="url('#paint4_linear_33_507')"/><path opacity=".2" d="M40.02 14.693a4.78 4.78 0 0 1 1.856.385c.825.355 1.546.92 2.137 1.428.287.245.566.532.858.837.316.329.645.671 1.024.997a11.811 11.811 0 0 0 3.665 2.142c.204.076.412.135.612.194a13.632 13.632 0 0 1-3.623 1.589c-.745.202-1.72.439-2.632.439-.129 0-.258-.004-.379-.013-1.087-.084-2.182-.447-3.244-.802-1.703-.567-3.736-1.897-3.873-3.786-.083-1.137.62-2.35 1.707-2.945a3.91 3.91 0 0 1 1.891-.465Zm0-1.267c-.863 0-1.725.194-2.483.613-1.466.802-2.482 2.467-2.357 4.153.175 2.42 2.457 4.14 4.73 4.896 1.154.385 2.32.765 3.537.862.158.013.316.017.474.017.991 0 2.016-.224 2.957-.481a14.766 14.766 0 0 0 4.831-2.328c.15-.11 1.174-1.082 1.304-1.082h.004c-.987-.35-2.058-.435-3.04-.79a10.526 10.526 0 0 1-3.278-1.914c-.67-.575-1.216-1.267-1.886-1.838-.75-.642-1.546-1.238-2.458-1.626a5.962 5.962 0 0 0-2.336-.482Z" fill="#424242"/><path d="M37.974.214s2.037-.595 2.753.545c.716 1.141-.083 7.166-1.237 10.153-1.154 2.987-3.24 4.753-4.285 5.543-1.046.79-2.157-1.559-2.157-1.559s2.881-2.712 3.71-4.888c.829-2.176.833-6.659.762-8.116-.07-1.458.454-1.678.454-1.678Z" fill="url('#paint5_linear_33_507')"/><path opacity=".2" d="M39.12 1.325c.32 0 .49.064.54.102.11.355.172 1.635-.116 3.777-.262 1.977-.729 3.988-1.216 5.243-.708 1.834-1.911 3.435-3.586 4.77-.033-.038-.07-.08-.108-.13.983-1.023 2.628-2.903 3.286-4.627 1.091-2.865.846-8.577.846-8.636a3.354 3.354 0 0 1 .008-.482c.112-.008.229-.017.345-.017Zm0-1.267c-.617 0-1.146.156-1.146.156s-.524.22-.454 1.678c.071 1.457.067 5.936-.762 8.116-.829 2.176-3.71 4.888-3.71 4.888s.816 1.72 1.707 1.72c.15 0 .3-.05.45-.16 1.045-.79 3.132-2.557 4.285-5.544C40.644 7.925 41.443 1.9 40.727.759c-.35-.557-1.016-.701-1.608-.701Z" fill="#424242"/><path d="M26.626 19.899c2.686.283 5.822-.431 7.096-2.844.891-1.681.596-3.874-.554-5.383-1.15-1.512-3.044-2.344-4.922-2.382-1.116-.021-2.203.22-3.27.532-.949.279-1.824.735-2.777 1.014-1.375.406-2.82.558-4.244.448-1.174-.093-2.315-.503-3.494-.6.12.008.754 1.538.862 1.724.333.583.704 1.145 1.108 1.681.82 1.099 1.77 2.1 2.828 2.966.995.82 2.12 1.64 3.331 2.079 1.295.473 2.674.621 4.036.765Z" fill="url('#paint6_linear_33_507')"/><path opacity=".2" d="M28.113 10.553h.112c1.578.03 3.094.752 3.956 1.888.892 1.17 1.07 2.818.442 4.01-.741 1.398-2.57 2.235-4.89 2.235a9.49 9.49 0 0 1-.978-.05c-1.262-.132-2.57-.271-3.744-.694-1.095-.397-2.162-1.204-2.965-1.867a15.601 15.601 0 0 1-3.257-3.676c.35.064.704.119 1.074.148a12.965 12.965 0 0 0 4.69-.494c.533-.157 1.02-.355 1.495-.545.441-.178.858-.347 1.278-.47.77-.227 1.783-.485 2.787-.485Zm0-1.268c-1.067 0-2.112.237-3.132.533-.95.279-1.824.735-2.778 1.014a11.735 11.735 0 0 1-4.244.448c-1.174-.093-2.315-.503-3.494-.6.121.008.754 1.537.862 1.723.333.583.704 1.145 1.108 1.682.82 1.098 1.77 2.1 2.828 2.966.995.82 2.12 1.64 3.331 2.079 1.3.469 2.674.617 4.036.76.362.038.733.06 1.108.06 2.39 0 4.885-.816 5.988-2.903.892-1.682.596-3.875-.553-5.383-1.15-1.512-3.045-2.345-4.923-2.383-.046.004-.092.004-.137.004Z" fill="#424242"/><path d="M32.96 24.166c-1.29-2.408-1.853-5.615-.15-7.74 1.187-1.48 3.29-2.054 5.11-1.56 1.816.49 3.307 1.944 4.065 3.69.45 1.034.65 2.15.774 3.265.113.993.034 1.99.146 2.991.163 1.441.579 2.856 1.233 4.145.537 1.065 1.35 1.977 1.895 3.038-.054-.106-1.691-.114-1.904-.144a17.242 17.242 0 0 1-1.957-.384 16.854 16.854 0 0 1-3.79-1.5c-1.128-.613-2.307-1.352-3.173-2.316-.929-1.035-1.595-2.264-2.249-3.485Z" fill="url('#paint7_linear_33_507')"/><path opacity=".2" d="M36.604 15.96c.342 0 .675.043.991.132 1.366.367 2.607 1.508 3.245 2.974.416.964.582 2.058.678 2.903.05.44.059.896.067 1.377.008.516.017 1.052.08 1.61.178 1.605.636 3.148 1.36 4.58.172.334.36.646.55.946a15.538 15.538 0 0 1-4.602-1.63c-.911-.5-2.056-1.18-2.84-2.054-.84-.938-1.47-2.108-2.078-3.236-.99-1.847-1.657-4.61-.279-6.334.638-.798 1.691-1.267 2.828-1.267Zm0-1.267c-1.44 0-2.886.6-3.794 1.733-1.703 2.125-1.14 5.336.15 7.74.654 1.22 1.32 2.45 2.249 3.485.866.968 2.049 1.703 3.173 2.316 1.2.65 2.474 1.158 3.79 1.5.646.169 1.3.296 1.958.384.212.03 1.849.034 1.903.144-.546-1.065-1.358-1.973-1.895-3.038a12.243 12.243 0 0 1-1.233-4.145c-.112-1.001-.033-1.994-.146-2.991-.129-1.115-.329-2.23-.774-3.266-.758-1.745-2.25-3.198-4.065-3.688a4.96 4.96 0 0 0-1.316-.174Z" fill="#424242"/><path d="M14.289 18.176c.352-.434.434-.957.182-1.167-.252-.211-.742-.03-1.095.403-.353.434-.434.956-.182 1.167.251.211.742.03 1.095-.403ZM11.799 28.187c.074-.515-.107-.969-.405-1.013-.299-.044-.6.337-.675.852-.074.515.107.968.405 1.012.298.045.6-.337.675-.851ZM20.916 21.893c.327 0 .591-.456.591-1.018 0-.563-.264-1.019-.59-1.019-.328 0-.592.456-.592 1.019 0 .562.265 1.018.591 1.018ZM18.094 25.848c.095-.519-.071-.985-.372-1.042-.3-.057-.622.317-.717.836-.095.518.071.984.372 1.041.3.057.622-.317.717-.835ZM16.862 34.052c.202-.524.12-1.046-.183-1.167-.304-.122-.715.204-.918.728-.203.523-.121 1.045.183 1.167.304.121.715-.205.918-.728ZM23.697 30.166c.202-.524.12-1.046-.183-1.168-.304-.12-.715.205-.918.729-.203.523-.121 1.045.183 1.167.304.12.715-.205.918-.728ZM23.097 38.708c.203-.523.12-1.045-.183-1.167-.304-.121-.715.205-.918.728-.203.523-.12 1.046.183 1.167.304.122.715-.204.918-.728ZM20.023 45.28c.43-.355.612-.851.406-1.108-.206-.257-.722-.178-1.152.176-.43.355-.612.85-.406 1.108.206.257.722.178 1.152-.177ZM27.983 43.479c.43-.355.612-.85.406-1.108-.206-.257-.722-.178-1.152.177-.43.354-.612.85-.406 1.107.206.257.722.178 1.152-.176ZM29.106 38.094c.48-.281.737-.742.573-1.029-.163-.287-.684-.291-1.164-.01-.48.281-.737.742-.574 1.029.163.286.685.291 1.165.01ZM29.062 31.397c.392-.397.523-.91.292-1.144-.231-.234-.736-.102-1.128.296-.392.398-.523.91-.292 1.144.231.234.736.102 1.128-.296ZM31.246 25.04c.26-.497.236-1.026-.053-1.18-.289-.156-.733.121-.992.618-.26.497-.236 1.026.053 1.181.288.155.733-.122.992-.62ZM14.585 44.282c.317-.08.467-.586.335-1.132-.132-.546-.497-.925-.814-.846-.317.079-.467.586-.335 1.132.132.546.496.925.814.846ZM11.313 36.577c.287-.107.375-.593.197-1.086-.178-.493-.556-.806-.843-.699-.287.107-.375.593-.197 1.086.179.493.556.806.843.699Z" fill="#FFFDE7"/></g><defs><linearGradient id="paint1_linear_33_507" x1="48.061" y1="10.086" x2="34.257" y2="18.022" gradientUnits="userSpaceOnUse"><stop offset=".007" stop-color="#AED581"/><stop offset=".332" stop-color="#8EBD60"/><stop offset=".678" stop-color="#73A743"/><stop offset=".876" stop-color="#689F38"/></linearGradient><linearGradient id="paint2_linear_33_507" x1="33.683" y1="1.068" x2="34.564" y2="16.85" gradientUnits="userSpaceOnUse"><stop offset=".007" stop-color="#AED581"/><stop offset=".332" stop-color="#8EBD60"/><stop offset=".678" stop-color="#73A743"/><stop offset=".876" stop-color="#689F38"/></linearGradient><linearGradient id="paint3_linear_33_507" x1="20.834" y1="4.364" x2="34.25" y2="14.531" gradientUnits="userSpaceOnUse"><stop offset=".007" stop-color="#AED581"/><stop offset=".332" stop-color="#8EBD60"/><stop offset=".678" stop-color="#73A743"/><stop offset=".876" stop-color="#689F38"/></linearGradient><linearGradient id="paint4_linear_33_507" x1="35.719" y1="15.836" x2="51.38" y2="23.454" gradientUnits="userSpaceOnUse"><stop offset=".123" stop-color="#689F38"/><stop offset=".322" stop-color="#73A743"/><stop offset=".668" stop-color="#8EBD60"/><stop offset=".993" stop-color="#AED581"/></linearGradient><linearGradient id="paint5_linear_33_507" x1="33.051" y1="8.339" x2="41.004" y2="8.339" gradientUnits="userSpaceOnUse"><stop offset=".123" stop-color="#689F38"/><stop offset=".322" stop-color="#73A743"/><stop offset=".668" stop-color="#8EBD60"/><stop offset=".993" stop-color="#AED581"/></linearGradient><linearGradient id="paint6_linear_33_507" x1="15.333" y1="11.447" x2="33.064" y2="16.028" gradientUnits="userSpaceOnUse"><stop offset=".007" stop-color="#AED581"/><stop offset=".332" stop-color="#8EBD60"/><stop offset=".678" stop-color="#73A743"/><stop offset=".876" stop-color="#689F38"/></linearGradient><linearGradient id="paint7_linear_33_507" x1="31.948" y1="17.593" x2="47.958" y2="29.389" gradientUnits="userSpaceOnUse"><stop offset=".123" stop-color="#689F38"/><stop offset=".322" stop-color="#73A743"/><stop offset=".668" stop-color="#8EBD60"/><stop offset=".993" stop-color="#AED581"/></linearGradient><radialGradient id="paint0_radial_33_507" cx="0" cy="0" r="1" gradientUnits="userSpaceOnUse" gradientTransform="matrix(13.39609 22.20239 -32.4867 19.60126 19.052 19.24)"><stop stop-color="#FF9E96"/><stop offset=".311" stop-color="#FF574A"/><stop offset=".428" stop-color="#FA4E43"/><stop offset=".613" stop-color="#EB3732"/><stop offset=".769" stop-color="#DB1F1F"/><stop offset=".996" stop-color="#ED2121"/></radialGradient><filter id="filter0_d_33_507" x="0" y=".058" width="55.025" height="61.725" filterUnits="userSpaceOnUse" color-interpolation-filters="sRGB"><feFlood flood-opacity="0" result="BackgroundImageFix"/><feColorMatrix in="SourceAlpha" values="0 0 0 0 0 0 0 0 0 0 0 0 0 0 0 0 0 0 127 0" result="hardAlpha"/><feOffset dx="-2" dy="7"/><feGaussianBlur stdDeviation="2"/><feComposite in2="hardAlpha" operator="out"/><feColorMatrix values="0 0 0 0 0.945833 0 0 0 0 0.0709375 0 0 0 0 0.3859 0 0 0 0.25 0"/><feBlend in2="BackgroundImageFix" result="effect1_dropShadow_33_507"/><feBlend in="SourceGraphic" in2="effect1_dropShadow_33_507" result="shape"/></filter></defs></svg>