<svg width="56" height="62" viewBox="0 0 56 62" fill="none" xmlns="http://www.w3.org/2000/svg">
<g filter="url('#filter0_d_33_507')">
<path d="M46.2826 32.054C48.115 25.0067 43.5714 17.1608 35.9919 11.1824C30.8528 7.12642 25.6096 7.06305 22.7443 6.94052C19.5668 6.80532 16.3808 7.79397 13.678 9.86423C9.45098 13.1048 7.56442 18.2635 6.62739 27.943C6.27757 31.5597 5.76116 35.2819 6.12348 38.852C6.46081 42.156 7.79764 44.9783 9.90075 47.2978C12.5369 50.2046 16.8931 51.2609 20.8286 50.5849C24.5518 49.9469 28.0667 47.8935 31.4566 46.0726L32.4686 45.5275C40.9394 40.9772 44.9332 37.255 46.2826 32.054Z" fill="url('#paint0_radial_33_507')"></path>
<path opacity="0.2" d="M22.1655 8.19533C22.3404 8.19533 22.5153 8.19955 22.6902 8.208L23.0275 8.22068C25.8594 8.33475 30.5946 8.52911 35.2256 12.1837C42.9842 18.3058 46.6657 25.615 45.0748 31.7329C43.8588 36.4099 40.1606 39.9632 31.8814 44.4121L31.161 44.7966L30.8694 44.9529C30.5488 45.1261 30.2239 45.3036 29.8991 45.4768C26.8964 47.1077 23.7896 48.7934 20.6204 49.3343C19.9291 49.4526 19.2211 49.5117 18.5131 49.5117C15.398 49.5117 12.5952 48.3921 10.8211 46.4359C8.82629 44.2389 7.66437 41.6405 7.36869 38.7168C7.073 35.8227 7.39367 32.7257 7.70602 29.7344C7.76432 29.1767 7.82263 28.6148 7.87677 28.0613C8.79297 18.6015 10.6337 13.7808 14.436 10.8698C16.7182 9.12061 19.396 8.19533 22.1655 8.19533ZM22.1655 6.92783C19.1794 6.92783 16.2143 7.9207 13.678 9.86421C9.45098 13.1048 7.56442 18.2635 6.62739 27.943C6.27757 31.5596 5.76116 35.2819 6.12348 38.852C6.46081 42.156 7.79764 44.9783 9.90075 47.2978C12.0289 49.6427 15.2731 50.7834 18.5131 50.7834C19.2919 50.7834 20.0665 50.7158 20.8286 50.5891C24.5518 49.9511 28.0667 47.8977 31.4566 46.0768L32.4686 45.5317C40.9436 40.9814 44.9332 37.2549 46.2867 32.0582C48.1191 25.0109 43.5756 17.165 35.996 11.1866C30.8528 7.1264 25.6096 7.06303 22.7443 6.9405C22.5528 6.93205 22.357 6.92783 22.1655 6.92783Z" fill="#424242"></path>
<path d="M14.6151 18.4903C15.107 17.8856 15.2224 17.1582 14.873 16.8656C14.5235 16.573 13.8414 16.826 13.3495 17.4308C12.8576 18.0355 12.7422 18.7629 13.0917 19.0555C13.4411 19.3481 14.1232 19.095 14.6151 18.4903Z" fill="#603813"></path>
<path d="M21.754 21.093C21.7901 20.3098 21.4525 19.6575 20.9999 19.636C20.5473 19.6145 20.1511 20.2319 20.1149 21.0151C20.0788 21.7983 20.4163 22.4506 20.869 22.4721C21.3216 22.4936 21.7178 21.8762 21.754 21.093Z" fill="#603813"></path>
<path d="M31.5119 25.2325C31.8564 24.5306 31.8069 23.7955 31.4012 23.5906C30.9956 23.3857 30.3875 23.7885 30.043 24.4904C29.6985 25.1922 29.748 25.9273 30.1536 26.1323C30.5593 26.3372 31.1674 25.9343 31.5119 25.2325Z" fill="#603813"></path>
<path d="M18.44 25.935C18.5234 25.1555 18.2258 24.4834 17.7753 24.4338C17.3249 24.3842 16.8921 24.9759 16.8087 25.7554C16.7253 26.5349 17.0229 27.207 17.4734 27.2566C17.9239 27.3062 18.3566 26.7145 18.44 25.935Z" fill="#603813"></path>
<path d="M12.1445 28.3227C12.2193 27.5424 11.9145 26.8737 11.4635 26.8292C11.0125 26.7846 10.5862 27.3811 10.5113 28.1614C10.4364 28.9418 10.7413 29.6105 11.1923 29.655C11.6433 29.6996 12.0696 29.1031 12.1445 28.3227Z" fill="#603813"></path>
<path d="M17.0673 34.2055C17.4118 33.5036 17.3623 32.7685 16.9567 32.5636C16.551 32.3587 15.9429 32.7615 15.5984 33.4634C15.2539 34.1653 15.3034 34.9003 15.7091 35.1053C16.1147 35.3102 16.7228 34.9074 17.0673 34.2055Z" fill="#603813"></path>
<path d="M23.3332 38.827C23.6777 38.1251 23.6282 37.39 23.2225 37.1851C22.8169 36.9802 22.2088 37.383 21.8643 38.0849C21.5198 38.7867 21.5693 39.5218 21.9749 39.7267C22.3805 39.9317 22.9887 39.5288 23.3332 38.827Z" fill="#603813"></path>
<path d="M28.0326 43.7942C28.7263 43.4488 29.1269 42.8342 28.9272 42.4216C28.7276 42.0089 28.0034 41.9544 27.3096 42.2999C26.6159 42.6453 26.2153 43.2599 26.4149 43.6725C26.6146 44.0852 27.3388 44.1397 28.0326 43.7942Z" fill="#603813"></path>
<path d="M29.2451 38.4373C29.9389 38.0919 30.3394 37.4773 30.1398 37.0647C29.9401 36.652 29.2159 36.5975 28.5221 36.943C27.8284 37.2884 27.4278 37.903 27.6275 38.3156C27.8271 38.7283 28.5513 38.7828 29.2451 38.4373Z" fill="#603813"></path>
<path d="M14.98 44.5875C15.4004 44.4161 15.5077 43.6874 15.2196 42.9599C14.9315 42.2324 14.3571 41.7816 13.9367 41.953C13.5162 42.1243 13.409 42.853 13.6971 43.5805C13.9852 44.308 14.5596 44.7588 14.98 44.5875Z" fill="#603813"></path>
<path d="M20.1301 45.5334C20.7994 45.1414 21.1583 44.5009 20.9317 44.1028C20.7051 43.7047 19.979 43.6998 19.3097 44.0918C18.6404 44.4838 18.2816 45.1243 18.5081 45.5224C18.7347 45.9205 19.4609 45.9254 20.1301 45.5334Z" fill="#603813"></path>
<path d="M11.3821 37.3175C11.8187 37.1946 12.0052 36.4826 11.7987 35.7271C11.5921 34.9716 11.0707 34.4588 10.6341 34.5816C10.1975 34.7045 10.011 35.4166 10.2175 36.172C10.4241 36.9275 10.9455 37.4404 11.3821 37.3175Z" fill="#603813"></path>
<path d="M23.8874 30.3806C24.2319 29.6788 24.1824 28.9437 23.7767 28.7388C23.3711 28.5338 22.763 28.9367 22.4185 29.6385C22.074 30.3404 22.1235 31.0755 22.5291 31.2804C22.9347 31.4853 23.5429 31.0825 23.8874 30.3806Z" fill="#603813"></path>
<path d="M29.225 31.6923C29.7715 31.1379 29.9547 30.425 29.6343 30.0999C29.3139 29.7749 28.6112 29.9608 28.0648 30.5152C27.5183 31.0696 27.335 31.7825 27.6554 32.1075C27.9758 32.4326 28.6785 32.2466 29.225 31.6923Z" fill="#603813"></path>
<path d="M35.0612 35.9116C35.3871 35.2007 35.3183 34.4673 34.9074 34.2734C34.4966 34.0796 33.8994 34.4987 33.5735 35.2096C33.2476 35.9205 33.3164 36.6539 33.7273 36.8477C34.1381 37.0416 34.7353 36.6224 35.0612 35.9116Z" fill="#603813"></path>
<path d="M38.9709 31.2626C39.4266 30.6294 39.4994 29.8964 39.1335 29.6253C38.7675 29.3542 38.1015 29.6478 37.6457 30.281C37.19 30.9141 37.1172 31.6472 37.4831 31.9183C37.8491 32.1893 38.5151 31.8958 38.9709 31.2626Z" fill="#603813"></path>
<path d="M38.8529 31.1178C39.1123 30.6208 39.0885 30.0922 38.7999 29.9372C38.5112 29.7821 38.067 30.0594 37.8076 30.5564C37.5483 31.0534 37.572 31.5819 37.8607 31.737C38.1493 31.892 38.5936 31.6148 38.8529 31.1178Z" fill="#FFFDE7"></path>
<path d="M34.7753 35.6381C35.0347 35.1411 35.0109 34.6125 34.7223 34.4575C34.4336 34.3025 33.9894 34.5797 33.73 35.0767C33.4706 35.5737 33.4944 36.1023 33.783 36.2573C34.0717 36.4123 34.5159 36.1351 34.7753 35.6381Z" fill="#FFFDE7"></path>
<path d="M41.3933 19.4888C39.3027 20.6211 36.5249 21.0985 34.7008 19.5649C33.4306 18.5002 32.9517 16.62 33.389 15.0061C33.8263 13.3921 35.0923 12.0781 36.6082 11.4148C37.5078 11.0219 38.4698 10.8529 39.436 10.7473C40.298 10.6543 41.1559 10.7304 42.0222 10.6374C43.2715 10.5064 44.4918 10.1431 45.6162 9.5727C46.5407 9.10373 47.332 8.38548 48.2565 7.90805C48.1649 7.95453 48.1441 9.41215 48.1191 9.59805C48.0358 10.1853 47.9192 10.7642 47.7693 11.3345C47.4611 12.5049 47.0155 13.6329 46.445 14.6934C45.9077 15.6905 45.2622 16.7383 44.4168 17.503C43.5214 18.3312 42.4511 18.9142 41.3933 19.4888Z" fill="url('#paint1_linear_33_507')"></path>
<path opacity="0.2" d="M46.7115 10.4135C46.6698 10.6163 46.6199 10.8191 46.5657 11.0219C46.2867 12.0908 45.8786 13.1301 45.3538 14.0977C44.9249 14.8962 44.3335 15.8933 43.5922 16.5693C42.7884 17.3002 41.7806 17.8453 40.8061 18.3734C39.7358 18.9522 38.5947 19.2733 37.591 19.2733C36.7415 19.2733 36.0377 19.0452 35.4963 18.5931C34.6425 17.8748 34.2719 16.544 34.5925 15.3525C34.9091 14.1864 35.8711 13.1259 37.0996 12.5893C37.9117 12.2344 38.8029 12.1035 39.5692 12.019C39.9399 11.9767 40.3313 11.9767 40.7436 11.9725C41.1934 11.9683 41.6598 11.964 42.1513 11.9133C43.5589 11.7655 44.9124 11.3641 46.1743 10.7219C46.3617 10.6163 46.5366 10.5149 46.7115 10.4135ZM48.2565 7.91226C47.332 8.38969 46.5407 9.10371 45.6162 9.57692C44.4959 10.1473 43.2715 10.5106 42.0222 10.6416C41.1559 10.7346 40.298 10.6585 39.436 10.7515C38.4698 10.8571 37.5036 11.0261 36.6082 11.419C35.0923 12.0781 33.8263 13.3963 33.389 15.0103C32.9517 16.6242 33.4306 18.5001 34.7008 19.5691C35.5212 20.2577 36.5332 20.5408 37.591 20.5408C38.8862 20.5408 40.2439 20.1183 41.3933 19.493C42.4553 18.9184 43.5214 18.3354 44.421 17.5157C45.2622 16.751 45.9077 15.7074 46.4491 14.7061C47.0238 13.6456 47.4694 12.5133 47.7735 11.3472C47.9234 10.7768 48.04 10.1938 48.1233 9.61072C48.1483 9.41637 48.1649 7.96296 48.2565 7.91226Z" fill="#424242"></path>
<path d="M30.3405 11.6937C30.6529 13.709 31.7565 15.8595 33.7139 16.3327C35.0757 16.6623 36.5749 16.0285 37.4245 14.9004C38.2782 13.7724 38.5073 12.2302 38.1741 10.8529C37.9742 10.0332 37.5952 9.2854 37.1705 8.56715C36.7915 7.92918 36.3001 7.3757 35.9211 6.7335C35.3714 5.80822 34.9882 4.78154 34.7925 3.72107C34.6342 2.84649 34.705 1.93389 34.5509 1.05508C34.5676 1.14381 33.6056 1.90009 33.4931 2.01416C33.1433 2.36906 32.8143 2.74931 32.5103 3.14224C31.8856 3.94922 31.3609 4.83647 30.9444 5.77442C30.5529 6.65745 30.1865 7.63342 30.1073 8.60518C30.024 9.63608 30.1823 10.6712 30.3405 11.6937Z" fill="url('#paint2_linear_33_507')"></path>
<path opacity="0.2" d="M33.5514 3.85204C33.5556 3.88584 33.5639 3.91542 33.5681 3.94922C33.7888 5.16602 34.2219 6.32367 34.8549 7.38838C35.0757 7.76018 35.313 8.0855 35.5463 8.40238C35.7545 8.68545 35.9461 8.95163 36.1043 9.2178C36.4333 9.77551 36.7915 10.4388 36.9664 11.1529C37.2246 12.2176 37.0247 13.3583 36.4416 14.1273C35.971 14.7483 35.1923 15.1497 34.4593 15.1497C34.3052 15.1497 34.1553 15.1328 34.0095 15.099C32.5769 14.7526 31.8065 12.9443 31.5816 11.4951C31.4358 10.5656 31.2859 9.60651 31.3609 8.70658C31.4275 7.87848 31.7856 6.98277 32.0938 6.2941C32.4686 5.4491 32.9434 4.65479 33.5015 3.92387C33.5139 3.89852 33.5306 3.87739 33.5514 3.85204ZM34.5551 1.05508C34.5717 1.14381 33.6097 1.90009 33.4973 2.01416C33.1475 2.36906 32.8185 2.74931 32.5144 3.14224C31.8898 3.94922 31.365 4.83647 30.9486 5.77442C30.5571 6.65745 30.1906 7.63343 30.1115 8.60518C30.0282 9.64453 30.1823 10.6754 30.3447 11.6979C30.657 13.7132 31.7607 15.8637 33.718 16.3369C33.9596 16.3961 34.2094 16.4214 34.4551 16.4214C35.5921 16.4214 36.729 15.8299 37.4287 14.9047C38.2824 13.7766 38.5114 12.2345 38.1783 10.8571C37.9784 10.0375 37.5994 9.28963 37.1746 8.57138C36.7956 7.9334 36.3042 7.37992 35.9252 6.73772C35.3755 5.81245 34.9924 4.78577 34.7966 3.72529C34.6384 2.84226 34.7092 1.92966 34.5551 1.05508Z" fill="#424242"></path>
<path d="M32.0855 7.69678C33.6222 9.30228 34.7592 11.7021 33.8804 13.7554C33.2683 15.1835 31.7357 16.1045 30.199 16.1214C28.6622 16.1383 27.1755 15.3314 26.201 14.123C25.6221 13.409 25.2264 12.5767 24.8808 11.7274C24.5768 10.9712 24.4227 10.1684 24.1187 9.40791C23.6814 8.3094 23.0442 7.29118 22.2529 6.42082C21.5991 5.70257 20.762 5.166 20.104 4.45197C20.1706 4.52379 21.4575 4.16467 21.6324 4.13932C22.1696 4.06327 22.711 4.01679 23.2566 4.00834C24.3685 3.98299 25.4805 4.09707 26.5633 4.34634C27.5836 4.57872 28.6747 4.89559 29.5659 5.46175C30.5113 6.0617 31.3026 6.88135 32.0855 7.69678Z" fill="url('#paint3_linear_33_507')"></path>
<path opacity="0.2" d="M23.5398 5.26741C24.4643 5.26741 25.3889 5.37304 26.2884 5.57584C27.0964 5.75751 28.1208 6.03214 28.8996 6.52646C29.7409 7.06304 30.478 7.83199 31.1943 8.57559C32.3229 9.75437 33.4057 11.6852 32.7394 13.2442C32.3396 14.1737 31.2901 14.8371 30.1865 14.8497H30.149C29.0745 14.8497 27.9334 14.2625 27.1672 13.3161C26.6507 12.6781 26.3092 11.9091 26.0385 11.2458C25.9094 10.9247 25.8053 10.5698 25.6971 10.198C25.5763 9.78817 25.4513 9.36567 25.2764 8.92627C24.7767 7.67567 24.0687 6.54336 23.1692 5.55471C23.0817 5.46176 22.9942 5.36881 22.9068 5.28009C23.0317 5.27164 23.1567 5.26741 23.2816 5.26741H23.5398ZM23.5398 3.99991C23.444 3.99991 23.3482 3.99991 23.2524 4.00413C22.711 4.01681 22.1655 4.05906 21.6283 4.13511C21.47 4.15623 20.3914 4.45621 20.1457 4.45621C20.1207 4.45621 20.104 4.45198 20.0999 4.44776C20.7579 5.16601 21.5949 5.69836 22.2488 6.41661C23.04 7.28697 23.6772 8.30519 24.1145 9.4037C24.4185 10.1684 24.5726 10.967 24.8766 11.7232C25.2181 12.5725 25.6179 13.4048 26.1968 14.1188C27.1588 15.3103 28.6248 16.1172 30.1448 16.1172H30.1948C31.7315 16.1003 33.2641 15.1793 33.8763 13.7512C34.755 11.6979 33.6181 9.29807 32.0814 7.69257C31.3026 6.87714 30.5113 6.05749 29.5576 5.45331C28.6664 4.88716 27.5753 4.57028 26.555 4.33791C25.568 4.11398 24.5518 3.99991 23.5398 3.99991Z" fill="#424242"></path>
<path d="M39.9107 23.0885C37.6369 22.3322 35.3547 20.6126 35.1798 18.1917C35.059 16.5059 36.0752 14.8413 37.5369 14.0385C38.9987 13.2358 40.8311 13.2527 42.3637 13.9118C43.2716 14.3005 44.067 14.8962 44.8208 15.5384C45.4913 16.1088 46.0327 16.7975 46.7073 17.3763C47.6735 18.2086 48.7896 18.8593 49.9849 19.2902C50.9677 19.6451 52.038 19.7296 53.025 20.0803C52.9251 20.0465 51.8673 21.0478 51.7132 21.1619C51.2342 21.5126 50.7345 21.8294 50.2223 22.121C49.1686 22.7125 48.0442 23.173 46.8823 23.4899C45.787 23.7898 44.5876 24.0433 43.4465 23.9546C42.2304 23.8532 41.0643 23.473 39.9107 23.0885Z" fill="url('#paint4_linear_33_507')"></path>
<path opacity="0.2" d="M40.0191 14.6934C40.6479 14.6934 41.2934 14.8286 41.8765 15.0779C42.701 15.4328 43.4215 15.9989 44.0129 16.5059C44.3002 16.751 44.5793 17.0383 44.8708 17.3425C45.1873 17.672 45.5163 18.0143 45.8953 18.3396C46.9864 19.2733 48.2191 19.9958 49.5601 20.4817C49.7642 20.5577 49.9724 20.6169 50.1723 20.676C49.9891 20.7901 49.8017 20.9042 49.6101 21.0098C48.6439 21.5506 47.6153 21.9731 46.5491 22.2646C45.8037 22.4674 44.8291 22.704 43.9171 22.704C43.788 22.704 43.6589 22.6998 43.5381 22.6913C42.4512 22.6068 41.3559 22.2435 40.2939 21.8886C38.5906 21.3224 36.5583 19.9916 36.4209 18.103C36.3376 16.9665 37.0414 15.7539 38.1283 15.1582C38.6781 14.854 39.3319 14.6934 40.0191 14.6934ZM40.0191 13.4259C39.157 13.4259 38.2949 13.6203 37.537 14.0385C36.071 14.8413 35.0549 16.5059 35.1798 18.1917C35.3547 20.6126 37.6369 22.3322 39.9108 23.0885C41.0644 23.473 42.2304 23.8532 43.4465 23.9504C43.6048 23.9631 43.763 23.9673 43.9213 23.9673C44.9124 23.9673 45.9369 23.7434 46.8781 23.4857C48.04 23.1688 49.1645 22.7083 50.2181 22.1167C50.7345 21.8294 51.2343 21.5083 51.709 21.1577C51.859 21.0478 52.8835 20.0761 53.0126 20.0761H53.0167C52.0297 19.7254 50.9594 19.6409 49.9766 19.286C48.7813 18.855 47.6694 18.2044 46.699 17.3721C46.0285 16.7975 45.483 16.1046 44.8125 15.5342C44.0629 14.892 43.2674 14.2963 42.3554 13.9076C41.6266 13.5949 40.8228 13.4259 40.0191 13.4259Z" fill="#424242"></path>
<path d="M37.9742 0.214407C37.9742 0.214407 40.0107 -0.38132 40.727 0.759433C41.4433 1.90019 40.6437 7.92505 39.4901 10.9121C38.3365 13.8992 36.2501 15.6653 35.2047 16.4553C34.1594 17.2454 33.0475 14.8963 33.0475 14.8963C33.0475 14.8963 35.9294 12.1839 36.7581 10.008C37.5869 7.8321 37.591 3.34936 37.5203 1.89174C37.4495 0.434107 37.9742 0.214407 37.9742 0.214407Z" fill="url('#paint5_linear_33_507')"></path>
<path opacity="0.2" d="M39.1194 1.32549C39.4401 1.32549 39.6109 1.38886 39.6608 1.42689C39.7691 1.78179 39.8316 3.06197 39.5442 5.20405C39.2819 7.18135 38.8154 9.19246 38.3282 10.4473C37.6202 12.2809 36.4166 13.8822 34.7425 15.2173C34.7092 15.1793 34.6717 15.137 34.6342 15.0863C35.617 14.0639 37.262 12.1838 37.9201 10.46C39.0112 7.5954 38.7655 1.88319 38.7655 1.82404C38.7571 1.61279 38.7613 1.45646 38.7738 1.34239C38.8862 1.33394 39.0028 1.32549 39.1194 1.32549ZM39.1194 0.0579834C38.5031 0.0579834 37.9742 0.214309 37.9742 0.214309C37.9742 0.214309 37.4495 0.434009 37.5203 1.89164C37.591 3.34927 37.5869 7.82778 36.7581 10.0079C35.9294 12.1838 33.0475 14.8962 33.0475 14.8962C33.0475 14.8962 33.8637 16.6158 34.755 16.6158C34.9049 16.6158 35.0548 16.5651 35.2047 16.4552C36.2501 15.6652 38.3365 13.8991 39.4901 10.912C40.6437 7.92495 41.4433 1.90009 40.727 0.759335C40.3772 0.201634 39.7108 0.0579834 39.1194 0.0579834Z" fill="#424242"></path>
<path d="M26.6257 19.8986C29.3118 20.1817 32.4478 19.4677 33.7221 17.0552C34.6134 15.3736 34.3177 13.1809 33.1682 11.6725C32.0188 10.16 30.1239 9.32765 28.2457 9.28962C27.1296 9.2685 26.0426 9.50932 24.9765 9.82197C24.027 10.1008 23.1524 10.5571 22.1987 10.836C20.8244 11.2416 19.3793 11.3937 17.955 11.2838C16.7806 11.1909 15.6395 10.781 14.4609 10.6839C14.5817 10.6923 15.2147 12.2218 15.323 12.4077C15.6562 12.9907 16.0268 13.5527 16.4308 14.0892C17.2512 15.1877 18.2007 16.1891 19.2585 17.0552C20.2539 17.8748 21.3783 18.6945 22.5902 19.1339C23.8854 19.6071 25.2639 19.755 26.6257 19.8986Z" fill="url('#paint6_linear_33_507')"></path>
<path opacity="0.2" d="M28.1126 10.5529H28.225C29.8034 10.5825 31.3193 11.3049 32.1814 12.4415C33.0726 13.6118 33.2516 15.2595 32.6228 16.451C31.8815 17.8495 30.0532 18.686 27.7336 18.686C27.4087 18.686 27.0797 18.6691 26.7549 18.6353C25.493 18.5044 24.1853 18.3649 23.0109 17.9424C21.9157 17.5453 20.8495 16.7383 20.0458 16.075C19.0671 15.2722 18.1883 14.3469 17.4304 13.3287C17.2055 13.0287 16.9931 12.7161 16.789 12.3992C17.1389 12.4626 17.4929 12.5175 17.8635 12.5471C18.1967 12.5724 18.534 12.5851 18.8672 12.5851C20.1165 12.5851 21.3534 12.4077 22.5528 12.0528C23.0859 11.8964 23.5732 11.6979 24.0479 11.5077C24.4894 11.3303 24.9058 11.1613 25.3264 11.0388C26.0969 10.8106 27.1089 10.5529 28.1126 10.5529ZM28.1126 9.28538C27.0464 9.28538 26.0011 9.52198 24.9808 9.81773C24.0313 10.0966 23.1567 10.5529 22.203 10.8317C21.1202 11.1528 19.9958 11.3134 18.8672 11.3134C18.5632 11.3134 18.2591 11.3007 17.9593 11.2796C16.7849 11.1866 15.6438 10.7768 14.4652 10.6796C14.586 10.6881 15.219 12.2175 15.3273 12.4034C15.6604 12.9865 16.0311 13.5484 16.4351 14.085C17.2555 15.1835 18.205 16.1848 19.2628 17.051C20.2581 17.8706 21.3826 18.6903 22.5945 19.1297C23.8938 19.5986 25.2681 19.7465 26.63 19.8902C26.9923 19.9282 27.3629 19.9493 27.7377 19.9493C30.1282 19.9493 32.6228 19.1339 33.7264 17.0467C34.6176 15.3652 34.3219 13.1724 33.1725 11.6641C32.0231 10.1515 30.1282 9.31918 28.25 9.28116C28.2042 9.28538 28.1584 9.28538 28.1126 9.28538Z" fill="#424242"></path>
<path d="M32.9601 24.1659C31.6691 21.7576 31.1069 18.5508 32.8102 16.4257C33.9971 14.9469 36.1002 14.3723 37.9201 14.8666C39.7359 15.3567 41.2268 16.8101 41.9848 18.5551C42.4345 19.5902 42.6344 20.7056 42.7594 21.821C42.8718 22.8139 42.7927 23.811 42.9051 24.8123C43.0676 26.253 43.484 27.6684 44.1379 28.957C44.6751 30.0217 45.4872 30.9343 46.0327 31.9948C45.9786 31.8892 44.3419 31.8807 44.1295 31.8512C43.4715 31.7624 42.8177 31.6315 42.1722 31.4667C40.8562 31.1245 39.5818 30.6175 38.3824 29.9668C37.2538 29.3542 36.0752 28.6148 35.209 27.6515C34.2803 26.6164 33.614 25.3869 32.9601 24.1659Z" fill="url('#paint7_linear_33_507')"></path>
<path opacity="0.2" d="M36.6041 15.9609C36.9456 15.9609 37.2788 16.0032 37.5953 16.0919C38.9613 16.4595 40.2023 17.6002 40.8395 19.0663C41.256 20.0296 41.4225 21.1239 41.5183 21.9689C41.5683 22.4083 41.5766 22.8646 41.585 23.3462C41.5933 23.8617 41.6016 24.3983 41.6641 24.956C41.8432 26.5615 42.3013 28.1036 43.0259 29.5359C43.1967 29.8697 43.3841 30.1823 43.5756 30.4823C43.2092 30.4147 42.8427 30.3344 42.4845 30.2415C41.2643 29.9246 40.0857 29.4556 38.9738 28.8514C38.0617 28.3529 36.9165 27.6727 36.1335 26.7981C35.2923 25.8601 34.6634 24.6898 34.0554 23.5617C33.0642 21.7154 32.3979 18.9522 33.7764 17.2284C34.4136 16.4299 35.4672 15.9609 36.6041 15.9609ZM36.6041 14.6934C35.1632 14.6934 33.7181 15.2934 32.8102 16.4257C31.1069 18.5509 31.6691 21.7619 32.9601 24.1659C33.614 25.3869 34.2803 26.6164 35.209 27.6515C36.0752 28.6191 37.258 29.3542 38.3824 29.9668C39.5818 30.6175 40.8562 31.1245 42.1722 31.4667C42.8177 31.6357 43.4715 31.7625 44.1295 31.8512C44.3419 31.8808 45.9786 31.885 46.0327 31.9948C45.4872 30.9301 44.6751 30.0218 44.1379 28.9571C43.484 27.6642 43.0676 26.253 42.9051 24.8123C42.7927 23.811 42.8718 22.8181 42.7594 21.821C42.6303 20.7056 42.4304 19.5902 41.9848 18.5551C41.2268 16.8102 39.7359 15.3567 37.9201 14.8666C37.4912 14.7483 37.0456 14.6934 36.6041 14.6934Z" fill="#424242"></path>
<path d="M14.2885 18.1757C14.6413 17.742 14.7231 17.2194 14.4712 17.0085C14.2193 16.7976 13.7291 16.9782 13.3763 17.412C13.0234 17.8457 12.9416 18.3683 13.1936 18.5792C13.4455 18.7901 13.9357 18.6094 14.2885 18.1757Z" fill="#FFFDE7"></path>
<path d="M11.7985 28.1866C11.873 27.6717 11.6916 27.2184 11.3935 27.1741C11.0954 27.1297 10.7934 27.5111 10.719 28.0259C10.6446 28.5408 10.8259 28.9941 11.124 29.0384C11.4221 29.0828 11.7241 28.7014 11.7985 28.1866Z" fill="#FFFDE7"></path>
<path d="M20.9161 21.8928C21.2427 21.8928 21.5074 21.437 21.5074 20.8746C21.5074 20.3123 21.2427 19.8564 20.9161 19.8564C20.5895 19.8564 20.3247 20.3123 20.3247 20.8746C20.3247 21.437 20.5895 21.8928 20.9161 21.8928Z" fill="#FFFDE7"></path>
<path d="M18.094 25.8477C18.1893 25.3293 18.0228 24.8629 17.7221 24.806C17.4214 24.7491 17.1003 25.1232 17.005 25.6416C16.9097 26.16 17.0762 26.6263 17.3769 26.6833C17.6776 26.7402 17.9986 26.3661 18.094 25.8477Z" fill="#FFFDE7"></path>
<path d="M16.8616 34.0517C17.0644 33.5284 16.9825 33.0058 16.6786 32.8846C16.3746 32.7633 15.9638 33.0892 15.7609 33.6126C15.558 34.1359 15.6399 34.6584 15.9439 34.7797C16.2478 34.901 16.6587 34.575 16.8616 34.0517Z" fill="#FFFDE7"></path>
<path d="M23.6965 30.1657C23.8994 29.6423 23.8175 29.1198 23.5135 28.9985C23.2096 28.8773 22.7987 29.2032 22.5959 29.7265C22.393 30.2498 22.4749 30.7724 22.7788 30.8937C23.0828 31.0149 23.4936 30.689 23.6965 30.1657Z" fill="#FFFDE7"></path>
<path d="M23.0968 38.7083C23.2997 38.185 23.2177 37.6625 22.9138 37.5412C22.6099 37.4199 22.199 37.7458 21.9961 38.2692C21.7932 38.7925 21.8752 39.315 22.1791 39.4363C22.4831 39.5576 22.8939 39.2317 23.0968 38.7083Z" fill="#FFFDE7"></path>
<path d="M20.0228 45.2795C20.453 44.9249 20.6348 44.4289 20.4289 44.1718C20.2229 43.9146 19.7072 43.9936 19.277 44.3483C18.8468 44.7029 18.665 45.1988 18.871 45.456C19.0769 45.7131 19.5926 45.6341 20.0228 45.2795Z" fill="#FFFDE7"></path>
<path d="M27.9829 43.4788C28.4131 43.1242 28.5949 42.6283 28.3889 42.3711C28.183 42.1139 27.6673 42.193 27.2371 42.5476C26.8069 42.9022 26.6251 43.3981 26.831 43.6553C27.037 43.9124 27.5527 43.8334 27.9829 43.4788Z" fill="#FFFDE7"></path>
<path d="M29.1059 38.094C29.586 37.8128 29.8427 37.3523 29.6794 37.0653C29.5161 36.7784 28.9946 36.7737 28.5146 37.0549C28.0345 37.3361 27.7778 37.7966 27.9411 38.0836C28.1044 38.3705 28.6259 38.3752 29.1059 38.094Z" fill="#FFFDE7"></path>
<path d="M29.0621 31.3973C29.4541 30.9997 29.5846 30.4874 29.3537 30.2531C29.1227 30.0188 28.6178 30.1512 28.2258 30.5489C27.8339 30.9465 27.7033 31.4588 27.9343 31.6931C28.1652 31.9274 28.6702 31.795 29.0621 31.3973Z" fill="#FFFDE7"></path>
<path d="M31.246 25.0398C31.5054 24.5428 31.4816 24.0142 31.193 23.8591C30.9043 23.7041 30.4601 23.9813 30.2007 24.4783C29.9413 24.9753 29.9651 25.5039 30.2537 25.659C30.5424 25.814 30.9866 25.5368 31.246 25.0398Z" fill="#FFFDE7"></path>
<path d="M14.5847 44.2818C14.9019 44.2028 15.052 43.696 14.9198 43.1498C14.7877 42.6037 14.4234 42.225 14.1062 42.304C13.789 42.383 13.639 42.8897 13.7711 43.4359C13.9033 43.9821 14.2675 44.3608 14.5847 44.2818Z" fill="#FFFDE7"></path>
<path d="M11.3133 36.5769C11.6004 36.4698 11.6885 35.9835 11.51 35.4907C11.3315 34.9979 10.9541 34.6851 10.6669 34.7922C10.3798 34.8992 10.2917 35.3855 10.4702 35.8783C10.6486 36.3711 11.0261 36.6839 11.3133 36.5769Z" fill="#FFFDE7"></path>
</g>
<defs>
<filter id="filter0_d_33_507" x="0" y="0.0579834" width="55.025" height="61.7255" filterUnits="userSpaceOnUse" color-interpolation-filters="sRGB">
<feFlood flood-opacity="0" result="BackgroundImageFix"></feFlood>
<feColorMatrix in="SourceAlpha" type="matrix" values="0 0 0 0 0 0 0 0 0 0 0 0 0 0 0 0 0 0 127 0" result="hardAlpha"></feColorMatrix>
<feOffset dx="-2" dy="7"></feOffset>
<feGaussianBlur stdDeviation="2"></feGaussianBlur>
<feComposite in2="hardAlpha" operator="out"></feComposite>
<feColorMatrix type="matrix" values="0 0 0 0 0.945833 0 0 0 0 0.0709375 0 0 0 0 0.3859 0 0 0 0.25 0"></feColorMatrix>
<feBlend mode="normal" in2="BackgroundImageFix" result="effect1_dropShadow_33_507"></feBlend>
<feBlend mode="normal" in="SourceGraphic" in2="effect1_dropShadow_33_507" result="shape"></feBlend>
</filter>
<radialGradient id="paint0_radial_33_507" cx="0" cy="0" r="1" gradientUnits="userSpaceOnUse" gradientTransform="translate(19.0515 19.2403) rotate(58.8948) scale(25.9307 37.942)">
<stop stop-color="#FF9E96"></stop>
<stop offset="0.3108" stop-color="#FF574A"></stop>
<stop offset="0.4276" stop-color="#FA4E43"></stop>
<stop offset="0.6133" stop-color="#EB3732"></stop>
<stop offset="0.7689" stop-color="#DB1F1F"></stop>
<stop offset="0.996" stop-color="#ED2121"></stop>
</radialGradient>
<linearGradient id="paint1_linear_33_507" x1="48.0608" y1="10.086" x2="34.2573" y2="18.022" gradientUnits="userSpaceOnUse">
<stop offset="0.00729" stop-color="#AED581"></stop>
<stop offset="0.3315" stop-color="#8EBD60"></stop>
<stop offset="0.6783" stop-color="#73A743"></stop>
<stop offset="0.8765" stop-color="#689F38"></stop>
</linearGradient>
<linearGradient id="paint2_linear_33_507" x1="33.683" y1="1.06755" x2="34.5642" y2="16.8502" gradientUnits="userSpaceOnUse">
<stop offset="0.00729" stop-color="#AED581"></stop>
<stop offset="0.3315" stop-color="#8EBD60"></stop>
<stop offset="0.6783" stop-color="#73A743"></stop>
<stop offset="0.8765" stop-color="#689F38"></stop>
</linearGradient>
<linearGradient id="paint3_linear_33_507" x1="20.8341" y1="4.36367" x2="34.2502" y2="14.5307" gradientUnits="userSpaceOnUse">
<stop offset="0.00729" stop-color="#AED581"></stop>
<stop offset="0.3315" stop-color="#8EBD60"></stop>
<stop offset="0.6783" stop-color="#73A743"></stop>
<stop offset="0.8765" stop-color="#689F38"></stop>
</linearGradient>
<linearGradient id="paint4_linear_33_507" x1="35.7187" y1="15.8365" x2="51.3799" y2="23.4536" gradientUnits="userSpaceOnUse">
<stop offset="0.1235" stop-color="#689F38"></stop>
<stop offset="0.3217" stop-color="#73A743"></stop>
<stop offset="0.6685" stop-color="#8EBD60"></stop>
<stop offset="0.9927" stop-color="#AED581"></stop>
</linearGradient>
<linearGradient id="paint5_linear_33_507" x1="33.0512" y1="8.33868" x2="41.0035" y2="8.33868" gradientUnits="userSpaceOnUse">
<stop offset="0.1235" stop-color="#689F38"></stop>
<stop offset="0.3217" stop-color="#73A743"></stop>
<stop offset="0.6685" stop-color="#8EBD60"></stop>
<stop offset="0.9927" stop-color="#AED581"></stop>
</linearGradient>
<linearGradient id="paint6_linear_33_507" x1="15.333" y1="11.4473" x2="33.0644" y2="16.0283" gradientUnits="userSpaceOnUse">
<stop offset="0.00729" stop-color="#AED581"></stop>
<stop offset="0.3315" stop-color="#8EBD60"></stop>
<stop offset="0.6783" stop-color="#73A743"></stop>
<stop offset="0.8765" stop-color="#689F38"></stop>
</linearGradient>
<linearGradient id="paint7_linear_33_507" x1="31.9485" y1="17.5928" x2="47.9581" y2="29.3893" gradientUnits="userSpaceOnUse">
<stop offset="0.1235" stop-color="#689F38"></stop>
<stop offset="0.3217" stop-color="#73A743"></stop>
<stop offset="0.6685" stop-color="#8EBD60"></stop>
<stop offset="0.9927" stop-color="#AED581"></stop>
</linearGradient>
</defs>
</svg>
