<svg width="59" height="62" fill="none" xmlns="http://www.w3.org/2000/svg"><g filter="url('#filter0_d_33_1331')"><path d="M29.362 3.198c-.127-.009-2.45-4.21-6.255-2.834-2.168.785-1.956 4.472-1.403 5.75 2.088 1.213 3.834 2.971 6.276 3.233.102.012.203.025.305.03.084-2.14.33-4.262 1.077-6.179Z" fill="url('#paint0_linear_33_1331')"/><path d="M37.11 6.384c-.538-.67-.91-1.6-1.501-2.123-1.974-1.749-4.003-.874-6.247-1.063-.748 1.92-.993 4.043-1.077 6.174-.106-.004-.203-.017-.305-.03 2.684 1.136 5.689 1.694 7.756 3.966a15.039 15.039 0 0 1-.03-.759c-.034-2.17.435-4.291 1.403-6.165Z" fill="url('#paint1_linear_33_1331')"/><path d="M45.807 11.79c-.414-.986-.566-2.422-1.982-3.657-.562-.489-1.298-1.076-2.523-1.295-.99-.18-2.278.588-3.255.262-.384-.125-.68-.395-.942-.72-.964 1.877-1.433 4-1.403 6.17 2.806 2.062 5.363 4.609 8.82 4.75.085-2.02.435-3.885 1.285-5.51Z" fill="url('#paint2_linear_33_1331')"/><path d="M49.649 22.595c1.973-.763 3.71-1.487 3.736-1.582.976-3.477 1.999-5.668-.102-7.267-2.443-1.861-3.98.291-6.618-.952-.431-.202-.668-.558-.854-1-.85 1.626-1.204 3.491-1.285 5.51a10.01 10.01 0 0 1-.515-.042c1.416 2.242 3.398 4.043 5.638 5.333Z" fill="url('#paint3_linear_33_1331')"/><path d="M44.01 17.257c-3.194-.356-5.637-2.748-8.304-4.708.004.253.008.506.03.76-2.067-2.273-5.072-2.83-7.756-3.967-2.443-.261-4.302-1.98-6.39-3.198.009.017.118-.352.127-.335l-5.96 15.946-4.07 8.601c.233-.493 4.68-.673 5.343-.767 1.868-.262 3.74-.523 5.608-.79 3.736-.54 7.468-1.114 11.175-1.83 3.706-.712 7.387-1.56 11.005-2.641 1.095-.326 3.06-1.047 4.83-1.733-2.24-1.29-4.221-3.091-5.637-5.338Z" fill="#F2D299"/><path d="m11.844 30.06-7.73 7.448.085 10.976s-.262 2.011.393 2.247c.659.24 7.332-1.295 8.752-1.57 3.605-.702 7.126-1.787 10.625-2.91 1.556-.498 3.115-1.201 4.708-1.467 1.835-.304 3.487-.634 5.254-1.27a711.134 711.134 0 0 1 15.713-5.453c1.12-.373 2.33-1.325 2.591-2.53.25-1.153.025-2.418.131-3.597.33-3.636.66-7.272.993-10.904-13.266 5.647-27.513 6.942-41.515 9.03Z" fill="url('#paint4_linear_33_1331')"/><path d="M46.517 34.635c1.238-.862 2.46-1.526 3.559-2.26.143-2.465.367-6.362.498-8.583-3.076 1.329-6.2 2.482-9.145 3.828-5.436 1.587-11.297 2.71-16.783 5.66-1.378.853-2.451 1.638-3.812 2.037-3.145.326-5.697.75-8.415 1.548-2.823.694-5.321 2.118-8.351 1.993.097 1.986.258 5.652.215 6.934-.034.973-.088 1.916-.046 2.598 10.9-3.053 21.804-6.153 32.754-10.513 2.734-1.252 7.185-.618 9.526-3.242Z" fill="#9E4100"/><path d="M46.517 34.635c-2.341 2.629-6.792 1.99-9.526 3.242-10.955 4.36-21.855 7.46-32.754 10.513.034.575.135.956.376.995.524.086 7.548-1.437 9.978-2.444 2.43-1.008 10.748-2.942 13.575-3.756 0 0 8.144-2.316 9.932-3.173 1.788-.858 3.715-1.437 6.788-2.594 2.472-.93 4.99-1.548 5.071-2.95.017-.309.064-1.08.118-2.101-1.094.742-2.32 1.402-3.558 2.268ZM12.25 37.388c2.717-.798 6.014-1.192 9.158-1.514 1.357-.398 2.147-1.423 3.52-2.276 6.142-2.547 11.065-4.387 16.5-5.982 2.946-1.346 6.07-2.5 9.146-3.829.06-1.024.097-1.693.097-1.693l-6.42 1.71L4 37.543s.03.528.068 1.316c1.424 1.506 5.359-.775 8.182-1.47Z" fill="#873F0E"/><path d="M21.708 5.92s-9.88 16.02-12.53 21.473c-2.968 6.11-4.012 7.43-4.012 7.43s-1.94 2.822-.76 2.843c.769.013 2.658-.077 5.02-.878 1.26-.43 2.887-1.265 4.514-1.385 1.154-.086 3.048-.476 5.152-1.312 2.304-.918 4.958-1.741 7.773-2.534 4.053-1.145 7.51-3.465 9.196-4.086 3.968-1.467 14.767-5.484 14.767-5.484s-8.47-6.5-15.54-10.316c-7.071-3.817-13.58-5.75-13.58-5.75Z" fill="url('#paint5_linear_33_1331')"/><path opacity=".61" d="M25.913 22.132c-1.432 0-2.73.33-3.706.866-.101-.004-.203-.008-.309-.008-1.821 0-3.431.532-4.429 1.35a4.63 4.63 0 0 0-.748-.064c-1.458 0-2.713.403-2.713 1.252 0 .845.765 1.638 2.219 1.642.744 1.29 3.195 2.5 5.6 2.5a8.11 8.11 0 0 0 3.778-.973c.101.004.203.008.308.008 3.035 0 5.495-1.47 5.495-3.288 0-1.81-2.46-3.285-5.495-3.285Z" fill="#915023"/><path d="M30.33 20.542c.968.981 1.298 2.838.824 4.296-.317.973-.904 1.886-1.729 2.35-1.783.998-4.154.969-4.463 1.11 1.408-1.89 5.364-7.76 5.368-7.756Z" fill="#D9C1A5"/><path d="M28.318 18.71c7.113 3.885-2.878 9.344-2.882 9.344-2.498.969-4.066 1.003-6.26.368-1.707-.497-2.256-1.62-2.712-2.688 2.806-.699 6.03-.352 8.693-1.814 1.551-.604 3.956-2.56 3.161-5.21Z" fill="#FDE9D2"/><path d="M28.297 18.565c.034.09.089.154.089.154.794 2.65-1.644 4.601-3.195 5.201-2.663 1.462-5.786 1.214-8.592 1.913a.553.553 0 0 0-.136-.129c2.22-1.02 4.599-1.65 7.147-2.517 2.08-1.14 3.796-2.508 4.687-4.622Z" fill="#EED4B5"/><path d="M15.901 20.43c.017.004.03.004.046.009l-.041.016c-.005-.008-.005-.016-.005-.025Z" fill="#FBE2C5"/><path d="M15.914 20.649c1.395-.249 3.149.111 4.34.073 2.507-.082 6.188-2.393 5.076-5.947-.13-1.042-1.069-2.208-2.35-2.757a4.43 4.43 0 0 0-.46-.322c5.52 1.278 5.866 5.308 5.781 6.852-.059.171-.765 2.744-4.69 4.64-1.59.54-3.226.968-4.79 1.568-1.259.485-2.345 1.484-3.757.742-.93-.489-1.491-1.612-1.335-2.663.211-1.423 1.086-1.993 2.185-2.186Z" fill="#FBE2C5"/><path d="M24.185 14.11c.093-.587-.418-1.453-1.204-2.088 1.276.549 2.218 1.715 2.35 2.757 1.11 3.555-2.57 5.866-5.076 5.947-1.446.18-2.9-.077-4.307-.283 3.427-1.346 7.256-2.062 8.237-6.333Z" fill="#EED4B5"/><path d="M16.02 17.845c.228-.58.659-1.085 1.399-1.497 1.64-.909 3.596-.621 5.316-1.346 1.733-.733.38-2.706-.198-3.306a.746.746 0 0 1 .469.283c.786.635 1.272 1.54 1.183 2.127-.98 4.275-4.81 4.986-8.237 6.328-.017-.004-.03-.004-.046-.008-.144-.956-.182-1.831.114-2.581Z" fill="#FDF2E6"/><path opacity=".2" d="M24.62.14V1.5c1.767 0 3.064 1.77 3.491 2.354.22.296.516.703 1.137.755.266.021.541.034.841.034.436 0 .845-.021 1.247-.043a17.74 17.74 0 0 1 1.035-.038c.905 0 1.61.132 2.35.784.199.176.423.549.643.91.211.346.427.702.697 1.045.465.583.98.965 1.572 1.158.296.099.621.146.964.146.532 0 1.044-.116 1.496-.219.325-.073.66-.15.883-.15.05 0 .08.004.093.004.87.159 1.386.558 1.885.99.803.695 1.048 1.471 1.315 2.29.093.288.186.58.304.867.22.527.617 1.277 1.521 1.702.77.364 1.551.54 2.388.54.562 0 1.074-.077 1.526-.146.372-.056.723-.111 1.035-.111.385 0 .825.064 1.429.523.866.66.98 1.192-.013 4.527-.106.352-.215.72-.321 1.102a1.338 1.338 0 0 0-.118.446l-.402 4.421-.587 6.479c-.051.566-.038 1.114-.026 1.642.017.651.03 1.269-.08 1.783-.127.584-.875 1.257-1.699 1.531a674.968 674.968 0 0 0-15.743 5.467c-1.606.579-3.11.892-5.021 1.209-1.217.201-2.375.622-3.5 1.025-.481.176-.938.338-1.394.484-3.335 1.072-6.889 2.174-10.473 2.873-.313.06-.845.176-1.521.322-1.581.338-4.594.986-6.082 1.187 0-.218.013-.459.042-.669.009-.064.013-.124.013-.188l-.072-8.172v-.052c-.025-.536-.046-1.042-.068-1.466-.017-.343-.03-.64-.042-.862.076-.236.085-.485.03-.725.105-.334.477-1.025.858-1.582.236-.317 1.377-1.972 4.129-7.632 2.468-5.08 11.364-19.565 12.37-21.198 0-.004.005-.004.005-.009l.004-.004.02-.034.022-.03c.22-.36.254-.828.11-1.227V5.54c-.266-.716-.368-2.29.059-3.229.199-.437.431-.561.592-.621a3.086 3.086 0 0 1 1.065-.197V.14m-.009 0c-.473 0-.98.081-1.517.279-2.1.759-1.965 4.236-1.454 5.612l-.038.103C20.605 7.77 11.675 22.308 9.177 27.453c-2.967 6.11-4.01 7.43-4.01 7.43s-1.442 2.097-1.078 2.685l-.089.03s.03.527.068 1.316l.067 1.462.064 8.164s-.262 2.01.393 2.247a.755.755 0 0 0 .232.026c1.361 0 7.206-1.338 8.52-1.596 3.606-.703 7.126-1.788 10.625-2.91 1.556-.498 3.115-1.201 4.709-1.467 1.834-.305 3.486-.635 5.253-1.27a711.472 711.472 0 0 1 15.713-5.453c1.12-.373 2.33-1.325 2.591-2.53.25-1.153.026-2.418.131-3.597l.99-10.9c.012-.008.02-.017.02-.021.977-3.477 2-5.668-.101-7.268-.82-.626-1.543-.797-2.236-.797-.845 0-1.652.257-2.561.257a4.168 4.168 0 0 1-1.822-.411c-.43-.202-.667-.558-.853-1-.414-.986-.567-2.422-1.982-3.657-.563-.489-1.298-1.076-2.524-1.295a2.04 2.04 0 0 0-.325-.025c-.748 0-1.619.373-2.38.373-.19 0-.371-.022-.545-.082-.384-.124-.68-.394-.942-.72-.537-.67-.909-1.6-1.5-2.123-1.053-.93-2.122-1.119-3.23-1.119-.739 0-1.5.082-2.282.082-.24 0-.486-.009-.73-.03C29.252 3.245 27.514.14 24.62.14Zm-3 5.981c.008-.026.02-.056.03-.09.003.009.003.017.008.026-.009.017-.026.038-.038.064Z" fill="#424242"/></g><defs><linearGradient id="paint0_linear_33_1331" x1="25.192" y1="7.342" x2="25.402" y2="2.228" gradientUnits="userSpaceOnUse"><stop stop-color="#C29F76"/><stop offset=".981" stop-color="#F8DFC2"/></linearGradient><linearGradient id="paint1_linear_33_1331" x1="32.73" y1="3.198" x2="32.422" y2="10.678" gradientUnits="userSpaceOnUse"><stop offset=".019" stop-color="#F8DFC2"/><stop offset="1" stop-color="#C29F76"/></linearGradient><linearGradient id="paint2_linear_33_1331" x1="40.962" y1="6.79" x2="40.642" y2="14.584" gradientUnits="userSpaceOnUse"><stop offset=".019" stop-color="#F8DFC2"/><stop offset="1" stop-color="#C29F76"/></linearGradient><linearGradient id="paint3_linear_33_1331" x1="49.408" y1="13.115" x2="49.07" y2="21.354" gradientUnits="userSpaceOnUse"><stop offset=".019" stop-color="#F8DFC2"/><stop offset="1" stop-color="#C29F76"/></linearGradient><linearGradient id="paint4_linear_33_1331" x1="29.018" y1="22.227" x2="28.021" y2="46.477" gradientUnits="userSpaceOnUse"><stop stop-color="#A68367"/><stop offset=".674" stop-color="#F8DFC2"/><stop offset=".986" stop-color="#D6AC89"/></linearGradient><linearGradient id="paint5_linear_33_1331" x1="4.288" y1="38.479" x2="37.407" y2="13.803" gradientUnits="userSpaceOnUse"><stop offset=".019" stop-color="#F89D53"/><stop offset=".995" stop-color="#DE6B00"/></linearGradient><filter id="filter0_d_33_1331" x="0" y=".087" width="58.513" height="61.725" filterUnits="userSpaceOnUse" color-interpolation-filters="sRGB"><feFlood flood-opacity="0" result="BackgroundImageFix"/><feColorMatrix in="SourceAlpha" values="0 0 0 0 0 0 0 0 0 0 0 0 0 0 0 0 0 0 127 0" result="hardAlpha"/><feOffset dy="7"/><feGaussianBlur stdDeviation="2"/><feComposite in2="hardAlpha" operator="out"/><feColorMatrix values="0 0 0 0 0.933333 0 0 0 0 0.831373 0 0 0 0 0.709804 0 0 0 0.25 0"/><feBlend in2="BackgroundImageFix" result="effect1_dropShadow_33_1331"/><feBlend in="SourceGraphic" in2="effect1_dropShadow_33_1331" result="shape"/></filter></defs></svg>