<svg width="59" height="62" viewBox="0 0 59 62" fill="none" xmlns="http://www.w3.org/2000/svg">
<g filter="url('#filter0_d_33_1331')">
<path d="M29.3623 3.19806C29.2355 3.18948 26.9111 -1.01242 23.1074 0.363917C20.9392 1.14856 21.1506 4.83595 21.7042 6.11367C23.792 7.32707 25.5375 9.08501 27.9803 9.34656C28.0818 9.35942 28.1832 9.37229 28.2846 9.37658C28.3691 7.23703 28.6143 5.11464 29.3623 3.19806Z" fill="url('#paint0_linear_33_1331')"></path>
<path d="M37.1091 6.38379C36.5724 5.71492 36.2005 4.78449 35.6088 4.2614C33.6351 2.51203 31.6064 3.38672 29.3622 3.19806C28.6142 5.11893 28.369 7.24132 28.2845 9.37229C28.1789 9.368 28.0817 9.35514 27.9802 9.34228C30.6639 10.4785 33.6689 11.0359 35.7356 13.3084C35.7186 13.0554 35.7102 12.8024 35.706 12.5494C35.6722 10.3799 36.1413 8.2575 37.1091 6.38379Z" fill="url('#paint1_linear_33_1331')"></path>
<path d="M45.8069 11.7905C45.3927 10.8043 45.2406 9.36798 43.8248 8.13314C43.2627 7.64435 42.5273 7.05694 41.3017 6.83827C40.3127 6.65818 39.0237 7.42567 38.0474 7.09981C37.6628 6.97547 37.3669 6.70535 37.1049 6.37949C36.1413 8.25748 35.6722 10.3799 35.7018 12.5494C38.508 14.6118 41.065 17.1587 44.5221 17.3002C44.6066 15.2807 44.9574 13.4155 45.8069 11.7905Z" fill="url('#paint2_linear_33_1331')"></path>
<path d="M49.6487 22.5954C51.6224 21.8322 53.3594 21.1076 53.3848 21.0133C54.361 17.536 55.3838 15.345 53.2833 13.7457C50.8405 11.8848 49.3021 14.0372 46.6649 12.7938C46.2338 12.5923 45.9971 12.2364 45.8112 11.7948C44.9617 13.4198 44.6067 15.285 44.5264 17.3044C44.3531 17.2959 44.1798 17.2787 44.0107 17.2616C45.4266 19.504 47.4087 21.3048 49.6487 22.5954Z" fill="url('#paint3_linear_33_1331')"></path>
<path d="M44.0108 17.2573C40.8157 16.9014 38.3728 14.5089 35.706 12.5494C35.7102 12.8024 35.7145 13.0554 35.7356 13.3084C33.6689 11.0359 30.664 10.4785 27.9803 9.34227C25.5374 9.08072 23.6779 7.36137 21.5901 6.14367C21.5985 6.16082 21.7084 5.79208 21.7168 5.80924L15.7577 21.755L11.6877 30.3561C11.9202 29.863 16.3663 29.6829 17.0298 29.5886C18.8979 29.327 20.7701 29.0655 22.6382 28.7997C26.3743 28.2594 30.1061 27.6849 33.8126 26.9688C37.5191 26.2571 41.2003 25.4081 44.818 24.3276C45.9126 24.0018 47.8779 23.2814 49.6487 22.5954C47.4087 21.3048 45.4266 19.504 44.0108 17.2573Z" fill="#F2D299"></path>
<path d="M11.844 30.0602L4.11401 37.5079L4.19854 48.4843C4.19854 48.4843 3.93651 50.4952 4.59159 50.731C5.2509 50.9711 11.9243 49.4362 13.3443 49.1618C16.9494 48.4586 20.4699 47.3738 23.9693 46.2504C25.5246 45.7531 27.0842 45.0499 28.6775 44.7841C30.5117 44.4796 32.1642 44.1495 33.9308 43.5149C39.1673 41.6283 44.3952 39.8147 49.6443 38.061C50.7643 37.688 51.9731 36.7361 52.2351 35.5313C52.4844 34.3779 52.2604 33.1131 52.3661 31.9339C52.6958 28.298 53.0254 24.6621 53.3593 21.0304C40.0928 26.6773 25.8458 27.9721 11.844 30.0602Z" fill="url('#paint4_linear_33_1331')"></path>
<path d="M46.5171 34.6351C47.7554 33.7733 48.9768 33.1087 50.0757 32.3756C50.2193 29.9101 50.4433 26.0127 50.5744 23.7917C47.4976 25.1208 44.3743 26.2742 41.4286 27.6205C35.9935 29.207 30.1316 30.3303 24.6458 33.2802C23.268 34.1335 22.1945 34.9181 20.8336 35.3169C17.6892 35.6427 15.1365 36.0672 12.419 36.8647C9.5958 37.5593 7.09803 38.9828 4.06775 38.8585C4.16495 40.8437 4.32556 44.5096 4.28329 45.7916C4.24948 46.7649 4.19454 47.7082 4.2368 48.39C15.1365 45.3371 26.0405 42.2372 36.9909 37.8766C39.7254 36.6246 44.1757 37.2592 46.5171 34.6351Z" fill="#9E4100"></path>
<path d="M46.517 34.6352C44.1756 37.2635 39.7252 36.6247 36.9908 37.8766C26.0361 42.2372 15.1364 45.3372 4.23669 48.39C4.27051 48.9645 4.37194 49.3461 4.61284 49.3847C5.1369 49.4705 12.1611 47.9484 14.5912 46.9408C17.0214 45.9332 25.3388 43.9994 28.1662 43.1848C28.1662 43.1848 36.3104 40.8694 38.0981 40.0119C39.8858 39.1544 41.8131 38.5755 44.8856 37.4179C47.358 36.4874 49.8769 35.87 49.9572 34.468C49.9741 34.1592 50.0206 33.3875 50.0755 32.367C48.9809 33.1088 47.7553 33.7691 46.517 34.6352Z" fill="#873F0E"></path>
<path d="M12.2498 37.3879C14.9673 36.5904 18.2639 36.1959 21.4083 35.8743C22.7649 35.4756 23.5553 34.4508 24.9288 33.5976C31.0697 31.0507 35.9934 29.2113 41.4284 27.6163C44.3742 26.27 47.4975 25.1166 50.5742 23.7874C50.6334 22.7627 50.6714 22.0938 50.6714 22.0938L44.2516 23.8046L4 37.5422C4 37.5422 4.02958 38.0696 4.06762 38.8585C5.4919 40.3635 9.42662 38.0825 12.2498 37.3879Z" fill="#873F0E"></path>
<path d="M21.7084 5.92072C21.7084 5.92072 11.8272 21.9394 9.17728 27.3933C6.21039 33.5032 5.16648 34.8238 5.16648 34.8238C5.16648 34.8238 3.22659 37.6451 4.40574 37.6665C5.17493 37.6794 7.06411 37.5894 9.42663 36.7876C10.6861 36.3588 12.3132 35.5227 13.9404 35.4027C15.0941 35.3169 16.9875 34.9267 19.0923 34.0906C21.3956 33.1731 24.0498 32.3498 26.8645 31.5566C30.9176 30.4118 34.3747 28.0922 36.061 27.4705C40.0295 26.0041 50.8278 21.9866 50.8278 21.9866C50.8278 21.9866 42.3582 15.4865 35.2876 11.6705C28.2169 7.85445 21.7084 5.92072 21.7084 5.92072Z" fill="url('#paint5_linear_33_1331')"></path>
<path opacity="0.61" d="M25.9135 22.1324C24.4808 22.1324 23.1833 22.4625 22.207 22.9985C22.1056 22.9942 22.0042 22.9899 21.8985 22.9899C20.077 22.9899 18.4667 23.5216 17.4693 24.3405C17.2326 24.3019 16.9833 24.2762 16.7212 24.2762C15.2632 24.2762 14.0079 24.6792 14.0079 25.5282C14.0079 26.3728 14.7729 27.1661 16.2268 27.1704C16.9706 28.4609 19.4219 29.6701 21.8267 29.6701C23.2594 29.6701 24.6287 29.2327 25.605 28.6968C25.7064 28.701 25.8079 28.7053 25.9135 28.7053C28.948 28.7053 31.4078 27.2347 31.4078 25.4167C31.4078 23.6073 28.948 22.1324 25.9135 22.1324Z" fill="#915023"></path>
<path d="M30.33 20.5416C31.2978 21.5235 31.6275 23.3801 31.1541 24.8379C30.8371 25.8112 30.2497 26.7244 29.4255 27.1875C27.642 28.1865 25.271 28.1565 24.9625 28.298C26.3699 26.4071 30.3257 20.5373 30.33 20.5416Z" fill="#D9C1A5"></path>
<path d="M28.3184 18.7108C35.4313 22.5954 25.4402 28.0536 25.436 28.0536C22.9382 29.0226 21.3703 29.0569 19.1768 28.4223C17.4694 27.925 16.9199 26.8016 16.4635 25.734C19.2698 25.0351 22.4945 25.3824 25.1571 23.9203C26.7081 23.3157 29.1129 21.3606 28.3184 18.7108Z" fill="#FDE9D2"></path>
<path d="M28.2972 18.565C28.3311 18.6551 28.386 18.7194 28.386 18.7194C29.1805 21.3692 26.742 23.32 25.1909 23.9203C22.5283 25.3824 19.405 25.1337 16.5987 25.8326C16.5607 25.7812 16.5142 25.7383 16.4635 25.704C18.6823 24.6835 21.0618 24.0532 23.6102 23.1871C25.6896 22.0466 27.4055 20.6788 28.2972 18.565Z" fill="#EED4B5"></path>
<path d="M15.9014 20.4301C15.9181 20.4343 15.9307 20.4343 15.9474 20.4385C15.9348 20.4427 15.9181 20.4511 15.9055 20.4553C15.9014 20.4469 15.9014 20.4385 15.9014 20.4301Z" fill="#FBE2C5"></path>
<path d="M15.914 20.6488C17.3087 20.4001 19.0626 20.7603 20.2545 20.7217C22.7607 20.6403 26.4418 18.3292 25.3303 14.7747C25.1993 13.7328 24.261 12.5666 22.9805 12.0178C22.8368 11.902 22.6804 11.7948 22.5198 11.6962C28.0394 12.9739 28.3859 17.0043 28.3014 18.5479C28.2422 18.7194 27.5364 21.292 23.6102 23.1871C22.0211 23.7274 20.3855 24.1561 18.8217 24.7564C17.5623 25.2409 16.4761 26.2399 15.0645 25.4982C14.1347 25.0094 13.5726 23.886 13.729 22.8355C13.9403 21.412 14.8152 20.8418 15.914 20.6488Z" fill="#FBE2C5"></path>
<path d="M24.185 14.1102C24.278 13.5227 23.7666 12.6566 22.9805 12.0221C24.2569 12.5709 25.1993 13.7371 25.3303 14.779C26.4419 18.3335 22.7607 20.6445 20.2545 20.726C18.8091 20.9061 17.3552 20.6488 15.9479 20.443C19.3754 19.0967 23.2045 18.3807 24.185 14.1102Z" fill="#EED4B5"></path>
<path d="M16.0196 17.8447C16.2479 17.2659 16.679 16.7599 17.4186 16.3483C19.0584 15.4393 21.0152 15.7266 22.7353 15.002C24.4681 14.2688 23.1157 12.2965 22.5367 11.6962C22.7818 11.7519 22.879 11.8334 23.0058 11.9792C23.7919 12.6138 24.2779 13.5185 24.1892 14.1059C23.2086 18.3807 19.3796 19.0924 15.952 20.4344C15.9351 20.4302 15.9224 20.4302 15.9055 20.4259C15.7618 19.4697 15.7238 18.595 16.0196 17.8447Z" fill="#FDF2E6"></path>
<path opacity="0.2" d="M24.6203 0.14093V1.50012C26.3869 1.50012 27.6844 3.27092 28.1113 3.85404C28.331 4.14989 28.6269 4.55722 29.2481 4.60867C29.5144 4.63011 29.7891 4.64297 30.0892 4.64297C30.5245 4.64297 30.9344 4.62153 31.3359 4.6001C31.6994 4.57866 32.0417 4.56151 32.3714 4.56151C33.2758 4.56151 33.9816 4.69442 34.7212 5.34615C34.9199 5.52194 35.1439 5.89497 35.3636 6.25513C35.575 6.60243 35.7905 6.95831 36.061 7.30132C36.5259 7.88444 37.0415 8.26604 37.6332 8.45899C37.929 8.55761 38.2545 8.60477 38.5968 8.60477C39.1293 8.60477 39.6407 8.489 40.0929 8.3861C40.4183 8.31321 40.7522 8.23603 40.9762 8.23603C41.0269 8.23603 41.0565 8.24032 41.0692 8.24032C41.9398 8.39896 42.4554 8.79771 42.9541 9.23077C43.7571 9.92537 44.0023 10.7014 44.2685 11.5204C44.3615 11.8077 44.4545 12.0992 44.5728 12.3865C44.7926 12.9139 45.1899 13.6642 46.0943 14.0887C46.8635 14.4531 47.6454 14.6289 48.4822 14.6289C49.0443 14.6289 49.5557 14.5518 50.0079 14.4832C50.3798 14.4274 50.7306 14.3717 51.0434 14.3717C51.428 14.3717 51.8675 14.436 52.4719 14.8948C53.3383 15.5551 53.4524 16.0867 52.4592 19.4225C52.3535 19.7741 52.2436 20.1429 52.138 20.5245C52.0746 20.6617 52.0323 20.816 52.0196 20.9704L51.6181 25.391L51.0307 31.8696C50.98 32.4356 50.9926 32.9844 51.0053 33.5118C51.0222 34.1635 51.0349 34.7809 50.925 35.2954C50.7982 35.8786 50.0502 36.5517 49.226 36.8261C44.0276 38.5584 38.732 40.3978 33.4829 42.2929C31.8769 42.8717 30.3723 43.1847 28.462 43.502C27.2449 43.7035 26.0868 44.1237 24.9626 44.5268C24.4808 44.7026 24.0244 44.8655 23.5679 45.0113C20.2334 46.0832 16.679 47.1851 13.0951 47.884C12.7823 47.944 12.2498 48.0598 11.5736 48.2056C9.99295 48.5443 6.97957 49.1918 5.4919 49.3933C5.4919 49.1746 5.50458 48.9345 5.53416 48.7244C5.54261 48.6601 5.54684 48.6001 5.54684 48.5357L5.47499 40.3635V40.312C5.44963 39.7761 5.4285 39.2701 5.40737 38.8456C5.39046 38.5026 5.37779 38.2068 5.36511 37.9838C5.44118 37.748 5.44963 37.4993 5.39469 37.2592C5.50035 36.9248 5.87227 36.2344 6.25264 35.677C6.48931 35.3598 7.63042 33.7047 10.3818 28.045C12.8499 22.9641 21.7464 8.48043 22.7523 6.84683C22.7523 6.84254 22.7565 6.84254 22.7565 6.83825L22.7607 6.83397L22.7818 6.79966L22.803 6.76965C23.0227 6.40949 23.0566 5.94213 22.9129 5.54338V5.53909C22.6466 4.82305 22.5452 3.24948 22.972 2.31049C23.1707 1.87314 23.4031 1.7488 23.5637 1.68878C23.9272 1.55586 24.2822 1.49154 24.6287 1.49154V0.14093M24.6203 0.14093C24.1469 0.14093 23.6398 0.222396 23.103 0.419628C21.0026 1.17854 21.1378 4.65584 21.6492 6.03217L21.6111 6.13508C20.6053 7.76868 11.675 22.3081 9.17726 27.4533C6.21037 33.5632 5.16647 34.8838 5.16647 34.8838C5.16647 34.8838 3.72529 36.9805 4.08875 37.5679L4 37.5979C4 37.5979 4.02958 38.1253 4.06762 38.9142C4.08875 39.3387 4.10988 39.8404 4.13524 40.3763L4.19864 48.54C4.19864 48.54 3.93661 50.5509 4.59169 50.7868C4.63818 50.8039 4.71848 50.8125 4.82414 50.8125C6.18502 50.8125 12.03 49.4747 13.3444 49.2175C16.9495 48.5143 20.47 47.4295 23.9694 46.3062C25.5247 45.8088 27.0843 45.1056 28.6776 44.8398C30.5118 44.5354 32.1643 44.2052 33.9309 43.5706C39.1673 41.6841 44.3953 39.8704 49.6444 38.1167C50.7644 37.7437 51.9731 36.7918 52.2352 35.587C52.4845 34.4336 52.2605 33.1688 52.3662 31.9897C52.6959 28.358 53.0255 24.7221 53.3552 21.0904C53.3678 21.0819 53.3763 21.0733 53.3763 21.069C54.3526 17.5917 55.3753 15.4007 53.2749 13.8014C52.4549 13.1754 51.7322 13.0039 51.0391 13.0039C50.1939 13.0039 49.3866 13.2612 48.478 13.2612C47.9201 13.2612 47.3242 13.1626 46.6564 12.8496C46.2253 12.648 45.9887 12.2922 45.8027 11.8505C45.3885 10.8644 45.2364 9.428 43.8205 8.19315C43.2584 7.70436 42.5231 7.11695 41.2974 6.89828C41.1918 6.88113 41.0819 6.87256 40.972 6.87256C40.2239 6.87256 39.3533 7.24558 38.5926 7.24558C38.4024 7.24558 38.2206 7.22414 38.0474 7.16412C37.6628 7.03977 37.3669 6.76965 37.1049 6.44379C36.5682 5.77491 36.1962 4.84449 35.6045 4.3214C34.5522 3.39098 33.4829 3.20232 32.3756 3.20232C31.636 3.20232 30.8753 3.28378 30.0934 3.28378C29.8525 3.28378 29.6074 3.27521 29.3622 3.25377C29.2524 3.2452 27.5153 0.14093 24.6203 0.14093ZM21.6196 6.12221C21.628 6.09649 21.6407 6.06648 21.6492 6.03217C21.6534 6.04075 21.6534 6.04932 21.6576 6.0579C21.6492 6.07505 21.6323 6.09649 21.6196 6.12221Z" fill="#424242"></path>
</g>
<defs>
<filter id="filter0_d_33_1331" x="0" y="0.0870361" width="58.5125" height="61.7255" filterUnits="userSpaceOnUse" color-interpolation-filters="sRGB">
<feFlood flood-opacity="0" result="BackgroundImageFix"></feFlood>
<feColorMatrix in="SourceAlpha" type="matrix" values="0 0 0 0 0 0 0 0 0 0 0 0 0 0 0 0 0 0 127 0" result="hardAlpha"></feColorMatrix>
<feOffset dy="7"></feOffset>
<feGaussianBlur stdDeviation="2"></feGaussianBlur>
<feComposite in2="hardAlpha" operator="out"></feComposite>
<feColorMatrix type="matrix" values="0 0 0 0 0.933333 0 0 0 0 0.831373 0 0 0 0 0.709804 0 0 0 0.25 0"></feColorMatrix>
<feBlend mode="normal" in2="BackgroundImageFix" result="effect1_dropShadow_33_1331"></feBlend>
<feBlend mode="normal" in="SourceGraphic" in2="effect1_dropShadow_33_1331" result="shape"></feBlend>
</filter>
<linearGradient id="paint0_linear_33_1331" x1="25.1921" y1="7.34194" x2="25.4024" y2="2.2281" gradientUnits="userSpaceOnUse">
<stop stop-color="#C29F76"></stop>
<stop offset="0.9814" stop-color="#F8DFC2"></stop>
</linearGradient>
<linearGradient id="paint1_linear_33_1331" x1="32.7295" y1="3.19755" x2="32.4219" y2="10.6775" gradientUnits="userSpaceOnUse">
<stop offset="0.0186" stop-color="#F8DFC2"></stop>
<stop offset="1" stop-color="#C29F76"></stop>
</linearGradient>
<linearGradient id="paint2_linear_33_1331" x1="40.962" y1="6.7897" x2="40.6415" y2="14.5836" gradientUnits="userSpaceOnUse">
<stop offset="0.0186" stop-color="#F8DFC2"></stop>
<stop offset="1" stop-color="#C29F76"></stop>
</linearGradient>
<linearGradient id="paint3_linear_33_1331" x1="49.4085" y1="13.1148" x2="49.0697" y2="21.3538" gradientUnits="userSpaceOnUse">
<stop offset="0.0186" stop-color="#F8DFC2"></stop>
<stop offset="1" stop-color="#C29F76"></stop>
</linearGradient>
<linearGradient id="paint4_linear_33_1331" x1="29.0179" y1="22.2265" x2="28.0208" y2="46.4766" gradientUnits="userSpaceOnUse">
<stop stop-color="#A68367"></stop>
<stop offset="0.6745" stop-color="#F8DFC2"></stop>
<stop offset="0.986" stop-color="#D6AC89"></stop>
</linearGradient>
<linearGradient id="paint5_linear_33_1331" x1="4.28784" y1="38.4793" x2="37.407" y2="13.803" gradientUnits="userSpaceOnUse">
<stop offset="0.0186" stop-color="#F89D53"></stop>
<stop offset="0.9953" stop-color="#DE6B00"></stop>
</linearGradient>
</defs>
</svg>
