<svg width="61" height="66" viewBox="0 0 61 66" fill="none" xmlns="http://www.w3.org/2000/svg">
<g filter="url('#filter0_d_33_1181')">
<path d="M40.2951 3.0007L5.71045 38.0573C12.5837 48.199 36.0661 56.8992 47.1809 45.1241C61.5579 29.8902 49.3921 9.07804 40.2951 3.0007Z" fill="url('#paint0_linear_33_1181')"></path>
<path d="M15.0764 41.5374C11.4821 41.5374 8.48903 40.4285 6.41656 38.326C3.4697 35.3364 2.57849 30.5385 3.90689 24.8151C5.20587 19.2112 8.5689 13.3428 13.1342 8.71125C18.3554 3.41437 24.9217 0.377838 31.1559 0.377838C34.973 0.377838 38.3108 1.56345 40.5514 3.70864C42.8551 5.91781 44.07 9.1292 44.0616 12.9888C44.049 19.5907 40.5598 26.8494 34.7249 32.4065C28.7219 38.1213 21.3779 41.5374 15.0764 41.5374Z" fill="url('#paint1_radial_33_1181')"></path>
<path d="M31.156 0.185927V0.697703C34.9394 0.697703 38.1511 1.8492 40.3329 3.94321C42.5735 6.09267 43.7506 9.21876 43.7464 12.9888C43.7337 19.5055 40.2824 26.6746 34.5106 32.1719C28.5664 37.8313 21.3023 41.2133 15.0806 41.2133C11.5705 41.2133 8.65724 40.1343 6.64362 38.0957C5.19751 36.6286 4.26006 34.7094 3.8565 32.3937C3.46134 30.1419 3.58325 27.6171 4.21803 24.8876C5.50439 19.3391 8.838 13.5262 13.3613 8.93729C18.5194 3.70012 25.0058 0.697703 31.156 0.697703V0.0579834M31.156 0.0579834C25.3968 0.0579834 18.6202 2.69363 12.9157 8.48522C3.36465 18.1706 -0.132908 32.1292 6.19802 38.552C8.38399 40.7697 11.5032 41.8572 15.0806 41.8572C21.1677 41.8572 28.5748 38.7098 34.9436 32.641C44.7889 23.267 47.2733 9.71775 40.7701 3.47835C38.4454 1.25213 35.0277 0.0579834 31.156 0.0579834Z" fill="#8D6E63"></path>
<path opacity="0.2" d="M31.0425 1.4099C34.3383 1.4099 37.2767 2.35669 39.3156 4.07966L40.2026 4.826L40.2951 4.73218C45.4826 8.66005 51.2039 17.1555 52.2002 26.1031C52.9695 33.0248 50.9181 39.1278 46.1005 44.2455C42.8636 47.6829 38.1595 49.4997 32.4886 49.4997C22.1809 49.4997 11.7429 43.7849 7.35409 38.198L7.43396 38.117L6.66466 37.2171C1.57806 31.2549 4.8276 18.5373 13.7649 9.44904C18.7884 4.33982 25.0857 1.4099 31.0425 1.4099ZM31.0425 0.130463C25.3043 0.130463 18.5572 2.76184 12.8695 8.5449C3.6085 17.9658 0.0646948 31.4383 5.71881 38.053L5.69779 38.0743C10.2043 44.7402 21.8782 50.7834 32.4928 50.7834C38.004 50.7834 43.2293 49.1543 47.0127 45.1326C61.3393 29.9201 49.2197 9.13771 40.1521 3.07317L40.1227 3.10303C37.8316 1.16254 34.6368 0.130463 31.0425 0.130463Z" fill="#424242"></path>
<path d="M40.7658 14.78L40.6901 13.5646L31.1265 17.4413L40.4463 12.0335L40.152 10.9247L30.8322 16.3324L39.6224 9.55567L39.1179 8.59182L30.3278 15.3686L38.3234 7.42753L37.6255 6.63428L29.6299 14.5753L36.5872 5.70882L35.717 5.11175L28.7597 13.974L34.4643 4.45924L33.447 4.07114L27.7424 13.5859L32.0261 3.70437L30.8911 3.5423L26.6074 13.4238L29.3399 3.47833L28.125 3.54657L25.3925 13.4921L26.4897 3.78113L25.2285 4.0754L24.1356 13.7863L23.5596 4.6085L22.2943 5.12028L22.8702 14.2981L20.6422 5.93485L19.4105 6.65134L21.6385 15.0103L17.8256 7.71327L16.6612 8.61315L20.474 15.9059L15.1941 9.90112L14.1389 10.9503L19.4189 16.9594L12.8273 12.4216L11.9109 13.5902L18.4983 18.1279L10.8011 15.198L10.0444 16.4604L17.7416 19.3903L9.17002 18.1535L8.60671 19.4628L17.1741 20.6953L7.99296 21.1986L7.63143 22.5121L16.8167 22.0089L7.29513 24.2308L7.1522 25.5145L16.6696 23.2926L7.10596 27.165L7.18163 28.3805L16.7453 24.508L7.42545 29.9158L7.71971 31.0204L17.0395 25.6126L8.24939 32.3894L8.75385 33.3532L17.544 26.5765L9.54837 34.5175L10.2462 35.315L18.2418 27.3697L11.2845 36.2362L12.1547 36.8376L19.112 27.9711L13.4075 37.4901L14.4248 37.8782L20.1293 28.3591L15.8457 38.2407L16.9807 38.4027L21.2644 28.5212L18.5319 38.4667L19.7468 38.4027L22.4793 28.4572L21.3863 38.1639L22.6432 37.8696L23.7362 28.163L24.3121 37.3365L25.5775 36.8248L25.0015 27.6512L27.2295 36.0102L28.4613 35.298L26.2332 26.9347L30.0461 34.2318L31.2105 33.3362L27.3977 26.0391L32.6777 32.0482L33.7328 30.9991L28.4529 24.99L35.0444 29.5277L35.9608 28.3549L29.3735 23.8171L37.0706 26.7471L37.8273 25.4889L30.1302 22.559L38.7017 23.7916L39.265 22.4823L30.6977 21.2497L39.8788 20.7508L40.2403 19.4329L31.0592 19.9362L40.5766 17.7142L40.7195 16.4305L31.2021 18.6525L40.7658 14.78Z" fill="url('#paint2_radial_33_1181')"></path>
<path d="M26.1035 32.7616C26.4118 32.5921 26.3603 31.8907 25.9886 31.1949C25.6169 30.4991 25.0657 30.0724 24.7574 30.2418C24.4492 30.4113 24.5007 31.1128 24.8724 31.8086C25.2441 32.5044 25.7953 32.9311 26.1035 32.7616Z" fill="black"></path>
<path d="M28.8636 28.6777C29.1596 28.5149 29.1089 27.8391 28.7505 27.1681C28.3921 26.4972 27.8616 26.0852 27.5656 26.2479C27.2696 26.4106 27.3202 27.0865 27.6787 27.7574C28.0371 28.4284 28.5676 28.8404 28.8636 28.6777Z" fill="black"></path>
<path d="M30.8927 25.7286C31.0927 25.4777 30.8055 24.9057 30.2514 24.451C29.6972 23.9964 29.0858 23.8312 28.8858 24.082C28.6858 24.3329 28.9729 24.9049 29.5271 25.3596C30.0813 25.8143 30.6926 25.9795 30.8927 25.7286Z" fill="black"></path>
<path d="M32.6142 23.3732C32.7875 23.0695 32.384 22.5038 31.7129 22.1097C31.0419 21.7155 30.3574 21.6422 30.184 21.946C30.0107 22.2497 30.4142 22.8154 31.0853 23.2095C31.7564 23.6037 32.4409 23.677 32.6142 23.3732Z" fill="black"></path>
<path d="M33.3272 20.685C33.9296 20.6462 34.4041 20.3919 34.3869 20.1169C34.3697 19.8419 33.8674 19.6503 33.265 19.689C32.6626 19.7277 32.1881 19.982 32.2053 20.257C32.2224 20.5321 32.7247 20.7237 33.3272 20.685Z" fill="black"></path>
<path d="M35.6561 18.7957C36.2586 18.757 36.733 18.5026 36.7159 18.2276C36.6987 17.9526 36.1964 17.761 35.594 17.7997C34.9915 17.8384 34.5171 18.0927 34.5343 18.3678C34.5514 18.6428 35.0537 18.8344 35.6561 18.7957Z" fill="black"></path>
<path d="M36.4505 15.8027C37.0512 15.7421 37.5164 15.4707 37.4895 15.1965C37.4627 14.9222 36.9539 14.749 36.3533 14.8096C35.7526 14.8702 35.2874 15.1416 35.3143 15.4158C35.3411 15.69 35.8499 15.8632 36.4505 15.8027Z" fill="black"></path>
<path d="M36.3309 12.2487C36.958 11.8952 37.3402 11.3782 37.1845 11.0941C37.0289 10.81 36.3944 10.8663 35.7673 11.2198C35.1402 11.5734 34.758 12.0904 34.9137 12.3745C35.0693 12.6586 35.7038 12.6023 36.3309 12.2487Z" fill="black"></path>
<path d="M15.493 31.7904C15.9021 31.1443 16.0025 30.4699 15.7173 30.2841C15.4321 30.0982 14.8693 30.4712 14.4602 31.1173C14.0511 31.7634 13.9507 32.4378 14.2359 32.6237C14.5211 32.8096 15.0839 32.4365 15.493 31.7904Z" fill="black"></path>
<path d="M17.8846 32.9483C17.9471 32.1854 17.724 31.5438 17.3862 31.5153C17.0483 31.4868 16.7238 32.0822 16.6612 32.8451C16.5987 33.608 16.8218 34.2495 17.1596 34.278C17.4975 34.3065 17.822 33.7112 17.8846 32.9483Z" fill="black"></path>
<path d="M21.1364 34.3956C21.4888 34.35 21.693 33.6653 21.5926 32.8662C21.4921 32.0671 21.1251 31.4563 20.7727 31.5018C20.4203 31.5474 20.2161 32.2322 20.3165 33.0313C20.417 33.8304 20.784 34.4412 21.1364 34.3956Z" fill="black"></path>
<path d="M17.6555 19.1288C17.8368 18.8494 17.4838 18.289 16.8671 17.8771C16.2504 17.4652 15.6035 17.3578 15.4223 17.6372C15.241 17.9166 15.5939 18.477 16.2106 18.8888C16.8273 19.3007 17.4742 19.4081 17.6555 19.1288Z" fill="black"></path>
<path d="M20.4861 16.3069C20.7739 16.1487 20.7256 15.4933 20.3783 14.843C20.0309 14.1928 19.516 13.7939 19.2282 13.9522C18.9404 14.1104 18.9886 14.7658 19.336 15.4161C19.6834 16.0663 20.1983 16.4652 20.4861 16.3069Z" fill="black"></path>
<path d="M22.8661 13.9304C23.1333 13.8807 23.2616 13.352 23.1526 12.7497C23.0437 12.1473 22.7388 11.6993 22.4716 11.7491C22.2044 11.7988 22.0761 12.3274 22.1851 12.9298C22.294 13.5322 22.599 13.9801 22.8661 13.9304Z" fill="black"></path>
<path d="M25.4728 10.825C25.8125 10.7919 26.0288 10.1399 25.9559 9.36851C25.8831 8.59715 25.5486 7.99862 25.2089 8.03165C24.8691 8.06468 24.6528 8.71677 24.7257 9.48812C24.7986 10.2595 25.133 10.858 25.4728 10.825Z" fill="black"></path>
<path d="M28.6089 7.87784C28.7149 7.14609 28.5384 6.51372 28.2145 6.46539C27.8906 6.41707 27.542 6.9711 27.436 7.70285C27.3299 8.4346 27.5065 9.06697 27.8303 9.1153C28.1542 9.16362 28.5028 8.60959 28.6089 7.87784Z" fill="black"></path>
<path d="M31.8017 8.55345C32.1519 7.90483 32.2031 7.24968 31.916 7.09014C31.6289 6.93059 31.1123 7.32707 30.7621 7.97569C30.4118 8.62431 30.3607 9.27945 30.6478 9.439C30.9349 9.59854 31.4515 9.20207 31.8017 8.55345Z" fill="black"></path>
<path d="M35.49 8.74503C35.8941 8.29008 36.0581 7.77172 35.8563 7.58725C35.6545 7.40278 35.1633 7.62204 34.7592 8.07699C34.3552 8.53194 34.1912 9.0503 34.393 9.23477C34.5948 9.41925 35.0859 9.19998 35.49 8.74503Z" fill="black"></path>
<path d="M11.9834 30.5488C12.5158 30.2602 12.8436 29.8292 12.7156 29.5861C12.5876 29.3431 12.0522 29.38 11.5198 29.6686C10.9874 29.9572 10.6596 30.3883 10.7876 30.6313C10.9156 30.8744 11.451 30.8375 11.9834 30.5488Z" fill="black"></path>
<path d="M10.7238 24.5471C11.4769 24.3919 12.032 23.9891 11.9636 23.6475C11.8951 23.3059 11.2292 23.1548 10.4761 23.31C9.72294 23.4652 9.16789 23.868 9.2363 24.2096C9.30471 24.5512 9.97069 24.7023 10.7238 24.5471Z" fill="black"></path>
<path d="M15.3011 20.5329C15.3756 20.2143 14.8664 19.819 14.1639 19.65C13.4613 19.4809 12.8314 19.6021 12.7569 19.9206C12.6825 20.2392 13.1916 20.6345 13.8942 20.8036C14.5967 20.9726 15.2266 20.8514 15.3011 20.5329Z" fill="black"></path>
<path d="M29.6762 12.2041C30.3194 12.4046 30.8911 12.9462 30.9752 13.6243C31.1013 14.6478 30.1428 15.5562 30.2269 16.5841C30.2774 17.2323 30.7398 17.7825 30.807 18.4265C30.8995 19.2751 30.2942 20.0471 29.609 20.5461C28.9237 21.045 28.125 21.3862 27.5113 21.9705C26.5276 22.9173 26.1829 24.3375 25.7246 25.634C25.2664 26.9305 24.4971 28.2952 23.1855 28.6534C21.7058 29.0586 20.2471 28.0137 18.7295 27.8005C17.8089 27.6725 16.8756 27.8516 15.9466 27.8303C15.0176 27.809 14.0044 27.5147 13.5084 26.7172C13.0334 25.9538 13.1763 24.926 13.6303 24.1498C14.0843 23.3736 14.7948 22.7936 15.4926 22.2349C17.9644 20.2433 21.1551 18.3881 23.1519 15.906C24.6485 14.0508 26.9437 11.3597 29.6762 12.2041Z" fill="#DCE775"></path>
</g>
<defs>
<filter id="filter0_d_33_1181" x="0" y="0.0579834" width="60.8071" height="65.7255" filterUnits="userSpaceOnUse" color-interpolation-filters="sRGB">
<feFlood flood-opacity="0" result="BackgroundImageFix"></feFlood>
<feColorMatrix in="SourceAlpha" type="matrix" values="0 0 0 0 0 0 0 0 0 0 0 0 0 0 0 0 0 0 127 0" result="hardAlpha"></feColorMatrix>
<feOffset dx="2" dy="10"></feOffset>
<feGaussianBlur stdDeviation="2.5"></feGaussianBlur>
<feComposite in2="hardAlpha" operator="out"></feComposite>
<feColorMatrix type="matrix" values="0 0 0 0 0.259625 0 0 0 0 0.8375 0 0 0 0 0.115156 0 0 0 0.18 0"></feColorMatrix>
<feBlend mode="normal" in2="BackgroundImageFix" result="effect1_dropShadow_33_1181"></feBlend>
<feBlend mode="normal" in="SourceGraphic" in2="effect1_dropShadow_33_1181" result="shape"></feBlend>
</filter>
<linearGradient id="paint0_linear_33_1181" x1="17.5262" y1="14.8731" x2="42.096" y2="39.0914" gradientUnits="userSpaceOnUse">
<stop offset="0.0085237" stop-color="#AFB42B"></stop>
<stop offset="0.448" stop-color="#8F8136"></stop>
<stop offset="0.8725" stop-color="#6D4C41"></stop>
</linearGradient>
<radialGradient id="paint1_radial_33_1181" cx="0" cy="0" r="1" gradientUnits="userSpaceOnUse" gradientTransform="translate(23.6862 20.957) rotate(-46.3239) scale(23.3999 15.1788)">
<stop offset="0.1713" stop-color="#394A0C"></stop>
<stop offset="0.2402" stop-color="#43590E"></stop>
<stop offset="0.4916" stop-color="#648C15"></stop>
<stop offset="0.7111" stop-color="#7CB11B"></stop>
<stop offset="0.8879" stop-color="#8BC81E"></stop>
<stop offset="1" stop-color="#90D01F"></stop>
</radialGradient>
<radialGradient id="paint2_radial_33_1181" cx="0" cy="0" r="1" gradientUnits="userSpaceOnUse" gradientTransform="translate(23.9356 20.973) scale(17.1556 17.1745)">
<stop stop-color="white"></stop>
<stop offset="0.2884" stop-color="#F2F8DB" stop-opacity="0.7153"></stop>
<stop offset="0.5526" stop-color="#E8F3C1" stop-opacity="0.4546"></stop>
<stop offset="0.7092" stop-color="#E4F1B7" stop-opacity="0.3"></stop>
<stop offset="0.8566" stop-color="#E2F0B6" stop-opacity="0"></stop>
</radialGradient>
</defs>
</svg>
