<svg width="52" height="62" viewBox="0 0 52 62" fill="none" xmlns="http://www.w3.org/2000/svg">
<g filter="url('#filter0_d_33_1115')">
<path d="M12.9754 12.0371C9.10173 13.3812 2.16617 19.2823 4.45839 31.473C6.75062 43.6637 14.8975 48.9718 17.4168 49.8337C19.9362 50.6956 20.7479 49.5478 22.2284 49.9062C23.7089 50.2647 26.1525 50.9815 27.1157 50.6231C28.0788 50.2647 28.3733 49.7612 30.0767 49.8337C31.7801 49.9062 34.741 47.969 37.109 45.0291C39.4769 42.0892 53.1503 22.9349 37.9375 12.6088C37.9375 12.6088 35.5149 10.6802 31.3174 10.8637C27.7592 11.0173 26.6152 12.6728 23.0317 12.3827C20.2138 12.1523 17.9384 10.3175 12.9754 12.0371Z" fill="url('#paint0_radial_33_1115')"></path>
<path opacity="0.2" d="M31.8767 12.1309C35.2036 12.1309 37.151 13.6073 37.1636 13.6158C37.1888 13.6372 37.214 13.6542 37.2393 13.6713C40.89 16.1504 43.0308 19.3762 43.5986 23.2591C44.1538 27.0397 43.279 31.4218 40.9952 36.2776C38.909 40.7152 36.4107 43.8728 36.1331 44.2184C33.9755 46.898 31.3552 48.5579 30.1691 48.5579H30.1271C29.9967 48.5536 29.8747 48.5494 29.7612 48.5494C28.4489 48.5494 27.7718 48.895 27.2292 49.1723C27.0399 49.2705 26.8759 49.3515 26.6866 49.4241C26.6866 49.4241 26.6109 49.4454 26.4174 49.4454C25.6099 49.4454 24.222 49.0955 23.2083 48.8395C22.9644 48.7755 22.7331 48.72 22.5186 48.6688C22.2241 48.5963 21.9297 48.5621 21.6269 48.5621C21.139 48.5621 20.7016 48.656 20.3189 48.7371C19.9529 48.8139 19.6081 48.8907 19.2127 48.8907C18.7879 48.8907 18.3337 48.8054 17.8205 48.6304C15.8227 47.9477 7.91139 42.9938 5.69907 31.2426C4.74854 26.1948 5.34578 21.8639 7.47818 18.3692C9.22364 15.5061 11.6757 13.8505 13.3833 13.2574C14.6619 12.8137 15.8269 12.596 16.9457 12.596C18.2075 12.596 19.2295 12.8649 20.3147 13.1465C21.1474 13.3641 22.0096 13.5902 22.9434 13.6628C23.2546 13.6884 23.5616 13.7012 23.8602 13.7012C25.5636 13.7012 26.7539 13.2958 27.9105 12.9033C28.9536 12.5491 29.9378 12.212 31.3804 12.148C31.5487 12.1352 31.7127 12.1309 31.8767 12.1309ZM31.8767 10.8509C31.6959 10.8509 31.5108 10.8551 31.3216 10.8637C28.0493 11.0045 26.817 12.4168 23.8518 12.4168C23.5953 12.4168 23.3219 12.404 23.0359 12.3827C21.0927 12.2248 19.4104 11.3117 16.9415 11.3117C15.8143 11.3117 14.5273 11.5037 12.9711 12.0413C9.09746 13.3854 2.16189 19.2866 4.45412 31.4773C6.75055 43.6722 14.8932 48.976 17.4126 49.838C18.1318 50.0854 18.7122 50.1665 19.2085 50.1665C20.2011 50.1665 20.8614 49.838 21.6227 49.838C21.812 49.838 22.0138 49.8593 22.2241 49.9105C23.4228 50.2007 25.2482 50.7255 26.4132 50.7255C26.6866 50.7255 26.9264 50.6956 27.1114 50.6273C28.0115 50.2903 28.3269 49.8294 29.7569 49.8294C29.8579 49.8294 29.963 49.8337 30.0724 49.838H30.1649C31.8809 49.838 34.7788 47.9178 37.1047 45.0291C39.4726 42.0892 53.1461 22.9349 37.9333 12.6088C37.9459 12.6088 35.7336 10.8509 31.8767 10.8509Z" fill="#424242"></path>
<path d="M19.1622 17.0422C18.8131 16.7947 18.5734 16.2955 18.8384 16.0053C19.0991 15.728 20.6343 15.8688 21.8372 16.1163C22.1358 16.1931 24.2724 16.7862 25.4963 16.7393C26.3207 16.7137 27.3007 16.479 28.7727 16.1419C30.3289 15.7707 30.2953 15.5829 31.0019 15.5232C31.7001 15.4549 32.3898 15.4677 32.4866 15.8304C32.5665 16.1376 32.1711 16.5942 31.7505 16.8587C30.1102 17.8956 27.8138 18.4887 25.5047 18.4332C22.8172 18.3778 20.6175 18.0791 19.1622 17.0422Z" fill="url('#paint1_linear_33_1115')"></path>
<path d="M46.1685 1.56173C44.8899 2.13777 43.4347 1.20758 41.9584 0.657141C41.9584 0.657141 38.9049 -0.482134 35.4939 0.247514C33.1175 0.755281 31.4688 2.03536 30.7202 2.69674C28.2555 4.88142 27.511 7.82561 27.2671 8.90942C27.3344 8.97769 27.5699 9.36598 27.6036 9.46839C27.6288 9.46412 27.6456 9.46412 27.6709 9.45985C29.5046 9.1569 33.1344 13.3769 39.3213 11.7597C45.5082 10.1426 47.3924 0.955827 47.3924 0.955827L47.4429 0.921692C47.4387 0.917425 46.4461 1.43799 46.1685 1.56173Z" fill="url('#paint2_linear_33_1115')"></path>
<path opacity="0.2" d="M37.8702 1.28008C39.9311 1.28008 41.5125 1.85186 41.5252 1.85612C41.8112 1.9628 42.1014 2.08654 42.4126 2.21881C43.3295 2.61137 44.28 3.021 45.2979 3.021C45.3568 3.021 45.4114 3.021 45.4703 3.01673C44.5324 5.61957 42.5514 9.5921 39.01 10.518C38.173 10.7356 37.3361 10.8466 36.5201 10.8466C34.1185 10.8466 32.2385 9.90358 30.7286 9.14833C29.9841 8.77711 29.3448 8.45282 28.735 8.28641C29.4416 5.92252 30.6318 4.47603 31.5529 3.65251C32.4067 2.89299 33.8325 1.90306 35.7546 1.49343C36.4234 1.35262 37.1384 1.28008 37.8702 1.28008ZM37.8702 0C37.1258 0 36.3224 0.0682712 35.4939 0.243216C33.1175 0.750983 31.4688 2.03107 30.7202 2.69244C28.2555 4.87712 27.511 7.82131 27.2671 8.90512C27.3344 8.97339 27.5699 9.36168 27.6036 9.46409C27.6288 9.45982 27.6456 9.45982 27.6709 9.45556C27.7339 9.44702 27.8012 9.44276 27.8685 9.44276C29.4416 9.44276 32.1922 12.1309 36.5159 12.1309C37.3865 12.1309 38.3203 12.02 39.3213 11.7597C45.5082 10.1425 47.3924 0.955796 47.3924 0.955796L47.4429 0.921661C47.4261 0.921661 46.4419 1.43796 46.1685 1.5617C45.8867 1.68971 45.5923 1.74091 45.2937 1.74091C44.2422 1.74091 43.1066 1.0838 41.9584 0.652843C41.9584 0.65711 40.2045 0 37.8702 0Z" fill="#424242"></path>
<path d="M24.5332 14.4991C24.5332 14.4991 24.5374 14.4778 24.55 14.4351C24.5584 14.3967 24.5711 14.3455 24.5837 14.273C24.6215 14.0767 24.6804 13.7652 24.7687 13.3641C24.9538 12.5704 25.2692 11.4141 25.9885 10.1639C26.3502 9.54518 26.8212 8.90513 27.4269 8.33763C27.7297 8.05174 28.062 7.78719 28.4279 7.55251C28.6087 7.43304 28.7938 7.32636 28.9957 7.21969L29.2691 7.08315L29.5761 6.94234C30.3878 6.58818 31.2837 6.3535 32.1922 6.28096C33.1049 6.20415 34.0091 6.27243 34.8798 6.33643C35.7546 6.4047 36.6042 6.46871 37.4328 6.41323C38.2571 6.35776 39.0563 6.19135 39.8007 5.90973C40.5746 5.63238 41.2686 5.31663 41.9373 4.96674C42.5976 4.62112 43.2117 4.26696 43.7627 3.9128C44.8688 3.20876 45.7437 2.54738 46.3325 2.06095C46.6269 1.81346 46.8498 1.61292 46.9928 1.46784C47.14 1.32277 47.2031 1.23743 47.2031 1.23743L47.2494 1.27156C47.2494 1.27156 47.1863 1.36544 47.0517 1.52331C46.9171 1.68119 46.7068 1.90307 46.4292 2.17189C45.8741 2.70952 45.0329 3.43491 43.9562 4.21149C43.422 4.60405 42.8206 5.00088 42.1644 5.3977C41.5209 5.79026 40.7849 6.17855 40.0278 6.50284C39.2581 6.857 38.3833 7.08741 37.4959 7.18555C36.6042 7.28796 35.7041 7.25809 34.8293 7.22822C33.9587 7.19409 33.1049 7.18129 32.3015 7.30929C31.4982 7.4245 30.7453 7.68052 30.0724 8.03041L29.8285 8.15842L29.5677 8.31203C29.4205 8.40163 29.2565 8.49977 29.1135 8.60645C28.819 8.81126 28.5541 9.04168 28.3143 9.28916C27.8306 9.77559 27.4647 10.3218 27.1787 10.8551C26.6151 11.9347 26.3838 12.963 26.2534 13.6841C26.1903 14.0468 26.1483 14.337 26.1188 14.5503C26.102 14.657 26.0894 14.7423 26.0642 14.8533C26.0473 14.9173 26.0389 14.9471 26.0389 14.9471L24.5332 14.4991Z" fill="#558B2F"></path>
<path d="M22.59 3.71653C22.2998 3.21303 22.0306 2.88021 21.7867 2.7906C20.5964 2.35964 19.179 3.82747 18.8594 4.17736C20.0497 5.12889 21.4586 4.45898 22.59 3.71653Z" fill="#42210B"></path>
<path d="M26.0053 14.546C25.5931 12.0285 23.9191 6.04198 22.5901 3.72076C21.4587 4.46321 20.0455 5.13312 18.8594 4.18159C18.8174 4.22853 18.7921 4.2584 18.7921 4.2584C21.5848 7.58235 22.67 8.88804 23.8476 12.2888C25.0589 15.7792 25.3197 17.2769 25.2482 17.8188C25.1725 18.382 26.1315 17.9681 26.1315 17.9681C26.1315 17.9681 26.5605 17.9084 26.0053 14.546Z" fill="url('#paint3_linear_33_1115')"></path>
<path opacity="0.2" d="M21.3326 3.60983C21.3746 3.60983 21.4125 3.6141 21.4461 3.62264C21.4966 3.66957 21.6228 3.81038 21.8247 4.16881C22.5775 5.48729 23.4986 8.17974 24.1926 10.6716C23.1874 8.20534 22.0896 6.79725 19.9993 4.30961C20.4493 3.92559 20.9582 3.60983 21.3326 3.60983ZM21.3326 2.71378C20.26 2.71378 19.1413 3.87012 18.8637 4.17734C18.8216 4.22428 18.7964 4.25414 18.7964 4.25414C21.5891 7.5781 22.6742 8.88378 23.8519 12.2845C25.0632 15.7749 25.324 17.2726 25.2525 17.8145C25.223 18.0449 25.3618 18.1089 25.5385 18.1089C25.7992 18.1089 26.1399 17.9639 26.1399 17.9639C26.1399 17.9639 26.5647 17.9084 26.0095 14.546C25.5974 12.0285 23.9234 6.042 22.5943 3.72078C22.3041 3.21728 22.0349 2.88445 21.791 2.79485C21.6396 2.73938 21.484 2.71378 21.3326 2.71378Z" fill="#424242"></path>
</g>
<defs>
<filter id="filter0_d_33_1115" x="0" y="0" width="51.4429" height="61.7255" filterUnits="userSpaceOnUse" color-interpolation-filters="sRGB">
<feFlood flood-opacity="0" result="BackgroundImageFix"></feFlood>
<feColorMatrix in="SourceAlpha" type="matrix" values="0 0 0 0 0 0 0 0 0 0 0 0 0 0 0 0 0 0 127 0" result="hardAlpha"></feColorMatrix>
<feOffset dy="7"></feOffset>
<feGaussianBlur stdDeviation="2"></feGaussianBlur>
<feComposite in2="hardAlpha" operator="out"></feComposite>
<feColorMatrix type="matrix" values="0 0 0 0 0.854167 0 0 0 0 0.0533854 0 0 0 0 0.0533854 0 0 0 0.25 0"></feColorMatrix>
<feBlend mode="normal" in2="BackgroundImageFix" result="effect1_dropShadow_33_1115"></feBlend>
<feBlend mode="normal" in="SourceGraphic" in2="effect1_dropShadow_33_1115" result="shape"></feBlend>
</filter>
<radialGradient id="paint0_radial_33_1115" cx="0" cy="0" r="1" gradientUnits="userSpaceOnUse" gradientTransform="translate(16.9833 24.8781) rotate(29.6944) scale(22.8888 23.3132)">
<stop offset="0.1065" stop-color="#F4877F"></stop>
<stop offset="0.1898" stop-color="#F37B74"></stop>
<stop offset="0.3399" stop-color="#EF5C56"></stop>
<stop offset="0.5381" stop-color="#EA2927"></stop>
<stop offset="0.6654" stop-color="#E60505"></stop>
<stop offset="0.9203" stop-color="#B80404"></stop>
<stop offset="1" stop-color="#B71C1C"></stop>
</radialGradient>
<linearGradient id="paint1_linear_33_1115" x1="18.5624" y1="16.9637" x2="32.3368" y2="16.9637" gradientUnits="userSpaceOnUse">
<stop stop-color="#E60505" stop-opacity="0"></stop>
<stop offset="0.5498" stop-color="#42210B"></stop>
<stop offset="1" stop-color="#E60505" stop-opacity="0"></stop>
</linearGradient>
<linearGradient id="paint2_linear_33_1115" x1="27.5007" y1="5.4002" x2="47.0564" y2="6.70047" gradientUnits="userSpaceOnUse">
<stop offset="0.1235" stop-color="#689F38"></stop>
<stop offset="0.3217" stop-color="#73A743"></stop>
<stop offset="0.6685" stop-color="#8EBD60"></stop>
<stop offset="0.9927" stop-color="#AED581"></stop>
</linearGradient>
<linearGradient id="paint3_linear_33_1115" x1="20.7117" y1="3.53942" x2="25.4861" y2="17.8004" gradientUnits="userSpaceOnUse">
<stop offset="1.5563e-05" stop-color="#8C6239"></stop>
<stop offset="0.992" stop-color="#603813"></stop>
</linearGradient>
</defs>
</svg>
