<svg width="58" height="69" viewBox="0 0 58 69" fill="none" xmlns="http://www.w3.org/2000/svg">
<g filter="url('#filter0_d_33_539')">
<path d="M37.8603 7.23482C37.8603 7.49676 37.8415 7.75871 37.8133 8.01113C40.2122 8.08257 42.3013 9.13512 42.3013 9.13512C42.3013 9.13512 41.0619 13.6311 37.757 15.117C37.7054 15.1408 37.649 15.1551 37.5974 15.1789C37.6208 15.2313 37.6537 15.2789 37.6772 15.3361C39.1372 18.689 37.0763 22.8611 37.0763 22.8611C37.0763 22.8611 34.8323 22.2134 33.0108 20.6274C32.8653 20.8369 32.7057 21.0417 32.532 21.237C29.8843 24.1803 24.894 23.9327 24.894 23.9327C24.894 23.9327 24.1945 18.9128 26.8375 15.9695C27.1849 15.579 27.5792 15.2551 27.9924 14.9694C26.7577 15.2123 25.4198 15.2313 24.1945 14.7265C20.6126 13.2453 19.4014 7.83967 19.4014 7.83967C19.4014 7.83967 23.9973 4.83444 27.5745 6.31563C28.72 6.78713 29.6167 7.66346 30.3162 8.63028C30.2176 8.18259 30.1565 7.72061 30.1565 7.24434C30.1518 3.26277 33.9967 0.0289307 33.9967 0.0289307C33.9967 0.0289307 37.8556 3.25324 37.8603 7.23482Z" fill="url('#paint0_linear_33_539')"></path>
<path opacity="0.2" d="M34.0013 1.3339C35.0059 2.36263 36.9213 4.65823 36.9213 7.23482C36.9213 7.44438 36.9072 7.65869 36.879 7.89683C36.8462 8.16354 36.926 8.43024 37.0997 8.63504C37.2734 8.83983 37.5222 8.9589 37.7851 8.96842C39.1136 9.00652 40.3577 9.38754 41.1182 9.67329C40.6253 10.9259 39.447 13.3167 37.3814 14.2454L37.3532 14.255C37.3156 14.2692 37.2734 14.2835 37.2358 14.2978C36.9964 14.3978 36.8086 14.5931 36.7147 14.836C36.6209 15.0789 36.6302 15.3551 36.7429 15.5933C36.7617 15.6314 36.7805 15.6695 36.7992 15.7028L36.8086 15.7171C37.7241 17.8222 37.0105 20.3988 36.5457 21.6609C35.7946 21.3513 34.621 20.7846 33.6117 19.9035C33.4427 19.7558 33.222 19.6749 33.0014 19.6749C32.9638 19.6749 32.9263 19.6796 32.884 19.6844C32.6211 19.7177 32.3864 19.8606 32.2315 20.0797C32.0953 20.275 31.9639 20.4416 31.823 20.5988C30.1048 22.5086 27.105 22.8944 25.7436 22.9706C25.6826 21.5275 25.7953 18.5271 27.5182 16.6125C27.7951 16.3077 28.1144 16.0267 28.5087 15.76C28.8796 15.5075 29.0204 15.0265 28.8514 14.6074C28.7059 14.2454 28.3585 14.0216 27.9829 14.0216C27.9219 14.0216 27.8655 14.0264 27.8045 14.0406C27.3022 14.1407 26.8187 14.1883 26.3727 14.1883C25.6967 14.1883 25.0817 14.074 24.5418 13.8501C22.1523 12.8595 20.927 9.69235 20.4951 8.30165C21.4528 7.78252 23.4198 6.86333 25.3681 6.86333C26.0488 6.86333 26.6684 6.97764 27.213 7.20148C28.0627 7.55392 28.8514 8.22545 29.5509 9.19703C29.734 9.44945 30.0156 9.58757 30.3114 9.58757C30.4428 9.58757 30.5743 9.55899 30.6964 9.50184C31.1001 9.3161 31.3207 8.86841 31.2268 8.43024C31.1376 8.01113 31.0907 7.62536 31.0907 7.24911C31.0907 4.66775 32.9967 2.36739 34.0013 1.3339ZM33.9966 0.0289307C33.9966 0.0289307 30.1471 3.26277 30.1565 7.24434C30.1565 7.72061 30.2175 8.17782 30.3161 8.63027C29.6166 7.66346 28.72 6.78713 27.5745 6.31563C26.8656 6.02034 26.1192 5.90604 25.3727 5.90604C22.3542 5.90604 19.3966 7.83967 19.3966 7.83967C19.3966 7.83967 20.6078 13.2453 24.1897 14.7265C24.8939 15.017 25.6356 15.1313 26.3727 15.1313C26.9172 15.1313 27.4618 15.0694 27.9829 14.9646C27.5698 15.2504 27.1754 15.5742 26.8281 15.9648C24.1803 18.9081 24.8845 23.9279 24.8845 23.9279C24.8845 23.9279 24.9878 23.9327 25.1756 23.9327C26.2788 23.9327 30.2598 23.7517 32.5225 21.2322C32.6962 21.037 32.8558 20.8322 33.0014 20.6226C34.8228 22.2086 37.0668 22.8563 37.0668 22.8563C37.0668 22.8563 39.1277 18.6842 37.6677 15.3313C37.6443 15.2789 37.6161 15.2265 37.5879 15.1742C37.6396 15.1503 37.6959 15.1361 37.7475 15.1122C41.0525 13.6263 42.2918 9.13035 42.2918 9.13035C42.2918 9.13035 40.1981 8.07781 37.8039 8.00637C37.8367 7.74918 37.8555 7.492 37.8508 7.23006C37.8555 3.25324 33.9966 0.0289307 33.9966 0.0289307Z" fill="#424242"></path>
<path d="M12.0403 57.4903C15.3953 57.4903 18.115 54.731 18.115 51.3274C18.115 47.9237 15.3953 45.1645 12.0403 45.1645C8.68532 45.1645 5.96558 47.9237 5.96558 51.3274C5.96558 54.731 8.68532 57.4903 12.0403 57.4903Z" fill="url('#paint1_radial_33_539')"></path>
<path opacity="0.2" d="M12.0403 46.5933C12.5614 46.5933 13.0778 46.6838 13.5755 46.86C14.7538 47.2744 15.7021 48.1317 16.242 49.2699C16.7865 50.4082 16.8569 51.6941 16.4485 52.8848C15.796 54.7851 14.0261 56.0662 12.0403 56.0662C11.5193 56.0662 11.0029 55.9757 10.5052 55.7995C9.32691 55.3852 8.37861 54.5279 7.83874 53.3896C7.29417 52.2513 7.22375 50.9654 7.63218 49.7748C8.28472 47.8745 10.0546 46.5933 12.0403 46.5933ZM12.0403 45.1645C9.52877 45.1645 7.17681 46.76 6.30363 49.3033C5.20041 52.5181 6.87636 56.0281 10.0452 57.1473C10.7071 57.3807 11.3784 57.4903 12.0403 57.4903C14.5519 57.4903 16.9039 55.8948 17.7771 53.3515C18.8803 50.1367 17.2043 46.6267 14.0355 45.5074C13.3736 45.2741 12.7023 45.1645 12.0403 45.1645Z" fill="#424242"></path>
<path d="M13.0496 34.7867C17.4935 34.7867 21.096 31.132 21.096 26.6236C21.096 22.1152 17.4935 18.4604 13.0496 18.4604C8.60568 18.4604 5.00317 22.1152 5.00317 26.6236C5.00317 31.132 8.60568 34.7867 13.0496 34.7867Z" fill="url('#paint2_radial_33_539')"></path>
<path opacity="0.2" d="M13.0497 19.8892C13.7914 19.8892 14.5237 20.0178 15.2326 20.2654C16.9086 20.856 18.2559 22.0752 19.0258 23.6945C19.7957 25.3138 19.9037 27.1427 19.3215 28.8382C18.392 31.5434 15.8758 33.3627 13.0543 33.3627C12.3126 33.3627 11.5803 33.2341 10.8714 32.9865C9.19544 32.3959 7.84811 31.1767 7.07821 29.5574C6.3083 27.9381 6.20033 26.1092 6.78245 24.4137C7.71197 21.7085 10.2282 19.8892 13.0497 19.8892ZM13.0497 18.4604C9.72123 18.4604 6.60875 20.575 5.4492 23.9422C3.9892 28.2 6.20502 32.8531 10.4019 34.3343C11.2751 34.6439 12.1671 34.7915 13.045 34.7915C16.3734 34.7915 19.4859 32.6769 20.6454 29.3097C22.1054 25.0519 19.8896 20.3988 15.6927 18.9176C14.8195 18.608 13.9275 18.4604 13.0497 18.4604Z" fill="#424242"></path>
<path d="M20.021 56.1282C23.5445 56.1282 26.4009 53.2304 26.4009 49.6557C26.4009 46.0811 23.5445 43.1833 20.021 43.1833C16.4975 43.1833 13.6411 46.0811 13.6411 49.6557C13.6411 53.2304 16.4975 56.1282 20.021 56.1282Z" fill="url('#paint3_radial_33_539')"></path>
<path opacity="0.2" d="M20.0211 44.7121C20.5657 44.7121 21.1009 44.8074 21.6219 44.9883C22.8519 45.4217 23.8378 46.3171 24.4058 47.503C24.9738 48.6889 25.049 50.032 24.6218 51.2798C23.941 53.2658 22.0914 54.5994 20.0211 54.5994C19.4765 54.5994 18.9414 54.5041 18.4203 54.3231C15.8852 53.4277 14.5379 50.6035 15.4205 48.0317C16.1012 46.0456 17.9508 44.7121 20.0211 44.7121ZM20.0211 43.1785C17.3828 43.1785 14.9135 44.855 13.9933 47.5268C12.8338 50.9035 14.5942 54.5946 17.9227 55.771C18.6174 56.0139 19.3263 56.1329 20.0211 56.1329C22.6594 56.1329 25.1288 54.4565 26.0489 51.7846C27.2084 48.4079 25.448 44.7169 22.1196 43.5405C21.4248 43.2976 20.7159 43.1785 20.0211 43.1785Z" fill="#424242"></path>
<path d="M36.006 16.5506C38.4612 12.4547 40.1935 7.42056 40.5597 1.24817C40.5878 0.800484 40.8414 0.476624 41.1841 0.476624L44.0571 0.495674C44.489 0.500437 44.874 1.01004 44.8786 1.59108C44.9021 4.28674 43.5172 11.3164 38.2687 18.508C37.5693 17.7936 36.8463 17.1126 36.006 16.5506Z" fill="#8D6E63"></path>
<path opacity="0.2" d="M41.4938 1.42915L43.9115 1.44344C43.9303 1.48154 43.9444 1.53393 43.9444 1.59585C43.9538 2.83413 43.6252 5.18212 42.6675 8.054C41.6347 11.1402 40.0808 14.2359 38.1419 17.0554C37.8603 16.7935 37.5598 16.5315 37.25 16.2839C39.724 11.8927 41.1511 6.89667 41.4938 1.42915ZM41.184 0.476624C40.846 0.476624 40.5925 0.800484 40.5643 1.24817C40.1981 7.42056 38.4659 12.4547 36.0106 16.5506C36.8509 17.1126 37.5739 17.7984 38.2781 18.5032C43.5219 11.3116 44.9068 4.28198 44.8833 1.58632C44.8786 1.00528 44.4936 0.495674 44.0617 0.490911L41.184 0.476624Z" fill="#42210B"></path>
<path d="M21.4341 26.6188C26.2851 26.6188 30.2176 22.6292 30.2176 17.7079C30.2176 12.7865 26.2851 8.79697 21.4341 8.79697C16.5831 8.79697 12.6506 12.7865 12.6506 17.7079C12.6506 22.6292 16.5831 26.6188 21.4341 26.6188Z" fill="url('#paint4_radial_33_539')"></path>
<path opacity="0.2" d="M21.4388 10.221C22.4763 10.221 23.4903 10.4401 24.448 10.8782C28.1614 12.5642 29.8279 17.003 28.1614 20.7655C26.9736 23.4516 24.3306 25.19 21.4247 25.19C20.3872 25.19 19.3732 24.9709 18.4155 24.5328C14.7021 22.8468 13.0356 18.408 14.7021 14.6455C15.8898 11.9594 18.5329 10.221 21.4388 10.221ZM21.4388 8.79221C18.0822 8.79221 14.8805 10.7544 13.4158 14.0645C11.4347 18.5556 13.4158 23.8279 17.8428 25.8425C19.007 26.3711 20.2276 26.6236 21.4294 26.6236C24.786 26.6236 27.9877 24.6614 29.4524 21.3513C31.4334 16.8601 29.4524 11.5879 25.0254 9.57328C23.8565 9.04463 22.6359 8.79221 21.4388 8.79221Z" fill="#424242"></path>
<path d="M13.0402 47.122C17.1834 47.122 20.5421 43.7146 20.5421 39.5113C20.5421 35.308 17.1834 31.9006 13.0402 31.9006C8.89703 31.9006 5.53833 35.308 5.53833 39.5113C5.53833 43.7146 8.89703 47.122 13.0402 47.122Z" fill="url('#paint5_radial_33_539')"></path>
<path opacity="0.2" d="M13.0402 33.3246C13.7209 33.3246 14.3922 33.4389 15.0448 33.6723C16.5846 34.2152 17.8192 35.3344 18.5281 36.8204C19.237 38.3063 19.3309 39.9828 18.7957 41.5449C17.9413 44.031 15.6316 45.698 13.0402 45.698C12.3595 45.698 11.6882 45.5837 11.0356 45.3503C9.49584 44.8074 8.26117 43.6881 7.5523 42.2022C6.84342 40.7162 6.74953 39.0398 7.28471 37.4776C8.13442 34.9915 10.4488 33.3246 13.0402 33.3246ZM13.0402 31.8958C9.93712 31.8958 7.03121 33.8676 5.95616 37.0061C4.59474 40.9782 6.66503 45.317 10.5756 46.6981C11.3924 46.9886 12.2234 47.122 13.0402 47.122C16.1433 47.122 19.0492 45.1503 20.1243 42.0117C21.4857 38.0396 19.4154 33.7009 15.5048 32.3197C14.688 32.0339 13.8571 31.8958 13.0402 31.8958Z" fill="#424242"></path>
<path d="M30.1753 53.2515C34.0384 53.2515 37.1701 50.0744 37.1701 46.1552C37.1701 42.236 34.0384 39.0588 30.1753 39.0588C26.3121 39.0588 23.1804 42.236 23.1804 46.1552C23.1804 50.0744 26.3121 53.2515 30.1753 53.2515Z" fill="url('#paint6_radial_33_539')"></path>
<path opacity="0.2" d="M30.18 40.4876C30.8044 40.4876 31.4193 40.5924 32.0155 40.8067C33.4239 41.302 34.56 42.3308 35.2078 43.6929C35.8557 45.055 35.9449 46.5933 35.4566 48.0221C34.6773 50.2987 32.5554 51.8275 30.18 51.8275C29.5556 51.8275 28.9406 51.7227 28.3444 51.5084C26.9361 51.0131 25.8 49.9844 25.1521 48.6222C24.5043 47.2601 24.4151 45.7218 24.9033 44.293C25.6826 42.0164 27.8046 40.4876 30.18 40.4876ZM30.1753 39.0588C27.2835 39.0588 24.5747 40.8972 23.5701 43.8263C22.3026 47.5268 24.2273 51.5751 27.8797 52.861C28.6402 53.1277 29.4148 53.2563 30.18 53.2563C33.0718 53.2563 35.7806 51.4179 36.7852 48.4889C38.0527 44.7883 36.128 40.7401 32.4756 39.4541C31.7151 39.1827 30.9405 39.0588 30.1753 39.0588Z" fill="#424242"></path>
<path d="M21.2322 48.5555C25.4091 48.5555 28.7951 45.1204 28.7951 40.8829C28.7951 36.6454 25.4091 33.2103 21.2322 33.2103C17.0553 33.2103 13.6693 36.6454 13.6693 40.8829C13.6693 45.1204 17.0553 48.5555 21.2322 48.5555Z" fill="url('#paint7_radial_33_539')"></path>
<path opacity="0.2" d="M21.2322 34.6391C21.9176 34.6391 22.5983 34.7582 23.2556 34.9868C26.4619 36.1203 28.1613 39.6827 27.044 42.9356C26.1849 45.4455 23.8471 47.1268 21.2322 47.1268C20.5468 47.1268 19.8661 47.0077 19.2089 46.7791C17.655 46.2314 16.4062 45.1026 15.6927 43.6024C14.9791 42.1022 14.8805 40.4067 15.4204 38.8302C16.2795 36.3203 18.6174 34.6391 21.2322 34.6391ZM21.2322 33.2103C18.1056 33.2103 15.1763 35.1963 14.0918 38.3635C12.721 42.3641 14.8054 46.7362 18.7488 48.1317C19.5703 48.4222 20.4107 48.5603 21.2322 48.5603C24.3588 48.5603 27.2882 46.5743 28.3726 43.4071C29.7434 39.4065 27.659 35.0344 23.7156 33.6389C22.8988 33.3484 22.0584 33.2103 21.2322 33.2103Z" fill="#424242"></path>
<path d="M32.5789 26.3187C36.8647 26.3187 40.339 22.794 40.339 18.4461C40.339 14.0981 36.8647 10.5734 32.5789 10.5734C28.2931 10.5734 24.8188 14.0981 24.8188 18.4461C24.8188 22.794 28.2931 26.3187 32.5789 26.3187Z" fill="url('#paint8_radial_33_539')"></path>
<path opacity="0.2" d="M32.5789 11.8308C33.3065 11.8308 34.0248 11.9546 34.7196 12.2023C36.3627 12.7833 37.6865 13.9787 38.447 15.5694C39.2029 17.1602 39.3061 18.9557 38.7334 20.6226C37.8227 23.2802 35.3486 25.0614 32.5789 25.0614C31.8512 25.0614 31.133 24.9376 30.4382 24.6899C28.7951 24.1089 27.4712 22.9134 26.7107 21.3227C25.9549 19.732 25.8516 17.9365 26.4243 16.2696C27.3351 13.612 29.8091 11.8308 32.5789 11.8308ZM32.5742 10.5687C29.3631 10.5687 26.3586 12.6071 25.2413 15.8552C23.833 19.9606 25.9737 24.4518 30.0203 25.8806C30.8654 26.1806 31.7245 26.3187 32.5742 26.3187C35.7852 26.3187 38.7897 24.2803 39.907 21.0322C41.3154 16.9268 39.1747 12.4356 35.128 11.0068C34.283 10.7115 33.4239 10.5687 32.5742 10.5687Z" fill="#424242"></path>
<path d="M44.6205 38.1063C49.6919 38.1063 53.803 33.9355 53.803 28.7906C53.803 23.6456 49.6919 19.4748 44.6205 19.4748C39.5491 19.4748 35.438 23.6456 35.438 28.7906C35.438 33.9355 39.5491 38.1063 44.6205 38.1063Z" fill="url('#paint9_radial_33_539')"></path>
<path opacity="0.2" d="M44.6205 19.4748V20.9036C45.489 20.9036 46.3481 21.0513 47.1743 21.3465C51.221 22.7753 53.3711 27.2808 51.9627 31.3862C50.8783 34.5534 47.9254 36.6823 44.6205 36.6823C43.752 36.6823 42.8929 36.5346 42.0667 36.2393C40.1043 35.5488 38.527 34.12 37.6256 32.2244C36.7196 30.3289 36.5975 28.1905 37.2829 26.1997C38.3674 23.0325 41.3202 20.9036 44.6252 20.9036L44.6205 19.4748ZM44.6205 19.4748C40.8226 19.4748 37.2688 21.8847 35.9497 25.7282C34.2831 30.5861 36.8135 35.8964 41.6019 37.5872C42.6018 37.9396 43.6205 38.1063 44.6205 38.1063C48.4184 38.1063 51.9721 35.6964 53.2913 31.8529C54.9578 26.995 52.4275 21.6847 47.6391 19.994C46.6391 19.6415 45.6204 19.4748 44.6205 19.4748Z" fill="#424242"></path>
<path d="M21.6219 35.3011C26.0658 35.3011 29.6683 31.6463 29.6683 27.1379C29.6683 22.6295 26.0658 18.9747 21.6219 18.9747C17.1779 18.9747 13.5754 22.6295 13.5754 27.1379C13.5754 31.6463 17.1779 35.3011 21.6219 35.3011Z" fill="url('#paint10_radial_33_539')"></path>
<path opacity="0.2" d="M21.6219 20.4035C22.3637 20.4035 23.096 20.5321 23.8049 20.7798C27.2601 21.999 29.0956 25.8473 27.8938 29.3526C26.9643 32.0577 24.448 33.8771 21.6266 33.8771C20.8849 33.8771 20.1525 33.7485 19.4437 33.5008C17.7677 32.9103 16.4204 31.691 15.6505 30.0717C14.8806 28.4524 14.7726 26.6236 15.3547 24.9281C16.2842 22.2229 18.8005 20.4035 21.6219 20.4035ZM21.6219 18.9748C18.2935 18.9748 15.181 21.0894 14.0215 24.4566C12.5615 28.7144 14.7773 33.3675 18.9742 34.8487C19.8474 35.1582 20.7393 35.3059 21.6172 35.3059C24.9456 35.3059 28.0581 33.1913 29.2177 29.8241C30.6777 25.5663 28.4619 20.9132 24.2649 19.432C23.3918 19.1176 22.4998 18.97 21.6219 18.9748Z" fill="#424242"></path>
<path d="M38.48 46.1504C42.6828 46.1504 46.0898 42.6939 46.0898 38.4302C46.0898 34.1664 42.6828 30.7099 38.48 30.7099C34.2772 30.7099 30.8701 34.1664 30.8701 38.4302C30.8701 42.6939 34.2772 46.1504 38.48 46.1504Z" fill="url('#paint11_radial_33_539')"></path>
<path opacity="0.2" d="M38.4798 30.7051V32.1339C39.1699 32.1339 39.8553 32.253 40.5173 32.4864C42.0806 33.0388 43.3387 34.1771 44.0616 35.6869C44.7846 37.2014 44.8785 38.9064 44.3339 40.4924C43.4654 43.0213 41.1135 44.7169 38.4798 44.7169C37.7898 44.7169 37.1044 44.5978 36.4424 44.3644C34.8791 43.8119 33.621 42.6737 32.898 41.1639C32.1751 39.6494 32.0812 37.9444 32.6258 36.3584C33.4943 33.8294 35.8462 32.1339 38.4845 32.1339L38.4798 30.7051ZM38.4798 30.7051C35.3298 30.7051 32.3863 32.7055 31.2925 35.8917C29.9123 39.9161 32.0108 44.3168 35.9777 45.7218C36.8039 46.0123 37.6489 46.1504 38.4798 46.1504C41.6299 46.1504 44.5734 44.1501 45.6672 40.9639C47.0474 36.9394 44.9489 32.5388 40.982 31.1338C40.1558 30.8433 39.3108 30.7051 38.4798 30.7051Z" fill="#424242"></path>
<path d="M29.4101 39.6589C34.37 39.6589 38.3907 35.5798 38.3907 30.548C38.3907 25.5162 34.37 21.437 29.4101 21.437C24.4502 21.437 20.4294 25.5162 20.4294 30.548C20.4294 35.5798 24.4502 39.6589 29.4101 39.6589Z" fill="url('#paint12_radial_33_539')"></path>
<path opacity="0.2" d="M29.4102 22.861C30.2552 22.861 31.0908 23.0039 31.8983 23.2897C35.8417 24.6804 37.9354 29.0715 36.5599 33.0722C35.499 36.1584 32.6259 38.2301 29.4102 38.2301C28.5651 38.2301 27.7295 38.0872 26.9221 37.8015C22.9786 36.4108 20.8849 32.0196 22.2604 28.019C23.3213 24.9328 26.1944 22.861 29.4102 22.861ZM29.4102 21.4323C25.6921 21.4323 22.2181 23.7898 20.9271 27.5523C19.2981 32.3054 21.7721 37.4967 26.4573 39.1541C27.4338 39.497 28.429 39.6637 29.4102 39.6637C33.1282 39.6637 36.6022 37.3062 37.8932 33.5437C39.5222 28.7905 37.0482 23.5993 32.363 21.9419C31.3866 21.5989 30.3913 21.4323 29.4102 21.4323Z" fill="#424242"></path>
<path d="M34.1234 16.26C34.3394 16.1172 34.5647 15.9886 34.79 15.8743C33.5319 13.8025 33.2502 11.4498 33.2502 11.4498C33.2502 11.4498 37.6349 10.0352 40.6723 12.0213C40.7192 12.0546 40.7615 12.0927 40.8131 12.1261C40.8413 12.0737 40.8648 12.0213 40.8976 11.9736C42.8599 8.89698 47.4277 8.35403 47.4277 8.35403C47.4277 8.35403 48.1272 10.6163 47.8221 13.0262C48.0756 13.0357 48.3291 13.0548 48.5873 13.0976C52.465 13.7263 55 18.0937 55 18.0937C55 18.0937 51.2491 21.4418 47.3714 20.8131C46.8597 20.7322 46.3762 20.575 45.9114 20.3797C46.7893 21.2942 47.5404 22.4181 47.7939 23.7326C48.5403 27.5808 44.7518 31.5815 44.7518 31.5815C44.7518 31.5815 39.7569 29.3335 39.0104 25.4853C38.771 24.2565 38.9963 23.0135 39.4142 21.8895C39.0996 22.2181 38.7522 22.5229 38.3626 22.7849C35.0858 24.9757 30.3068 23.4897 30.3068 23.4897C30.3068 23.4897 30.8419 18.4509 34.1234 16.26Z" fill="url('#paint13_linear_33_539')"></path>
<path opacity="0.2" d="M46.7282 9.45421C46.8879 10.2591 47.0616 11.5593 46.8925 12.9071C46.8597 13.1738 46.9395 13.4405 47.1085 13.6453C47.2775 13.8501 47.5263 13.9692 47.7939 13.9787C48.0286 13.9882 48.2399 14.0073 48.4417 14.0406C50.9486 14.4455 52.8875 16.722 53.7325 17.8889C52.7044 18.6366 50.5871 19.9416 48.3666 19.9416C48.0803 19.9416 47.7939 19.9177 47.5216 19.8749C47.1179 19.8082 46.7095 19.6891 46.2729 19.5034C46.1555 19.4558 46.0334 19.432 45.9114 19.432C45.6062 19.432 45.3152 19.5796 45.1321 19.8511C44.8833 20.2273 44.9255 20.7274 45.2354 21.0513C46.132 21.9895 46.686 22.9563 46.8738 23.9231C47.3714 26.495 45.4325 29.2716 44.5218 30.4051C44.0664 30.1527 43.4139 29.7574 42.7332 29.2287C41.6347 28.3762 40.2592 27.0046 39.9306 25.3091C39.7522 24.3946 39.8742 23.3611 40.292 22.2324C40.447 21.8085 40.292 21.337 39.9165 21.0941C39.7616 20.9941 39.5879 20.9465 39.4142 20.9465C39.17 20.9465 38.9259 21.0465 38.7428 21.2322C38.4471 21.5418 38.1513 21.7895 37.8462 21.9943C36.8134 22.6848 35.4707 23.0325 33.8605 23.0325C32.8747 23.0325 31.9827 22.8992 31.3818 22.7753C31.6776 21.3608 32.5179 18.4747 34.6398 17.0554C34.8135 16.9411 34.9966 16.8315 35.2079 16.7268C35.4426 16.6077 35.621 16.3934 35.6961 16.1362C35.7712 15.879 35.7336 15.6028 35.5928 15.3742C34.8933 14.2264 34.5225 12.9595 34.3441 12.1594C34.9121 12.0403 35.7336 11.9165 36.635 11.9165C38.0574 11.9165 39.2498 12.2213 40.1606 12.8166L40.1841 12.8357C40.2169 12.8595 40.2498 12.8881 40.2826 12.9119C40.4423 13.0214 40.6253 13.0786 40.8131 13.0786C40.8789 13.0786 40.9446 13.0738 41.0103 13.0595C41.2638 13.0024 41.4844 12.8452 41.6159 12.6214C41.6394 12.5833 41.6581 12.5499 41.6769 12.5118L41.6863 12.4928C42.9163 10.5591 45.4326 9.74949 46.7282 9.45421ZM47.4277 8.35403C47.4277 8.35403 42.8599 8.89698 40.8976 11.9736C40.8648 12.0213 40.8413 12.0737 40.8131 12.1261C40.7662 12.0927 40.7239 12.0546 40.6723 12.0213C39.4189 11.2021 37.9354 10.9592 36.6256 10.9592C34.7619 10.9592 33.2502 11.445 33.2502 11.445C33.2502 11.445 33.5319 13.7977 34.79 15.8695C34.5647 15.9838 34.3394 16.1124 34.1234 16.2553C30.8466 18.4461 30.3068 23.485 30.3068 23.485C30.3068 23.485 31.8888 23.9803 33.8605 23.9803C35.3111 23.9803 36.973 23.7136 38.3626 22.7849C38.7522 22.5229 39.0996 22.2181 39.4142 21.8895C39.001 23.0135 38.771 24.2565 39.0104 25.4853C39.7569 29.3335 44.7518 31.5815 44.7518 31.5815C44.7518 31.5815 48.5403 27.5856 47.7939 23.7326C47.5404 22.4181 46.7846 21.2942 45.9114 20.3797C46.3715 20.575 46.8597 20.7274 47.3714 20.8131C47.7047 20.8655 48.0333 20.8893 48.3619 20.8893C51.8641 20.8893 54.9953 18.0889 54.9953 18.0889C54.9953 18.0889 52.4603 13.7215 48.5826 13.0929C48.3244 13.05 48.0709 13.031 47.8174 13.0214C48.1272 10.6115 47.4277 8.35403 47.4277 8.35403Z" fill="#424242"></path>
</g>
<defs>
<filter id="filter0_d_33_539" x="0" y="0.0289307" width="58" height="68.4613" filterUnits="userSpaceOnUse" color-interpolation-filters="sRGB">
<feFlood flood-opacity="0" result="BackgroundImageFix"></feFlood>
<feColorMatrix in="SourceAlpha" type="matrix" values="0 0 0 0 0 0 0 0 0 0 0 0 0 0 0 0 0 0 127 0" result="hardAlpha"></feColorMatrix>
<feOffset dx="-1" dy="7"></feOffset>
<feGaussianBlur stdDeviation="2"></feGaussianBlur>
<feComposite in2="hardAlpha" operator="out"></feComposite>
<feColorMatrix type="matrix" values="0 0 0 0 0.654902 0 0 0 0 0.247059 0 0 0 0 0.72549 0 0 0 0.25 0"></feColorMatrix>
<feBlend mode="normal" in2="BackgroundImageFix" result="effect1_dropShadow_33_539"></feBlend>
<feBlend mode="normal" in="SourceGraphic" in2="effect1_dropShadow_33_539" result="shape"></feBlend>
</filter>
<linearGradient id="paint0_linear_33_539" x1="37.6685" y1="15.2069" x2="19.9361" y2="8.44742" gradientUnits="userSpaceOnUse">
<stop offset="0.0061452" stop-color="#689F38"></stop>
<stop offset="1" stop-color="#9CCC65"></stop>
</linearGradient>
<radialGradient id="paint1_radial_33_539" cx="0" cy="0" r="1" gradientUnits="userSpaceOnUse" gradientTransform="translate(5.35059 56.3901) rotate(180) scale(7.59622 7.70644)">
<stop stop-color="#A13CB3"></stop>
<stop offset="0.3197" stop-color="#9A37B0"></stop>
<stop offset="0.7881" stop-color="#8628A7"></stop>
<stop offset="1" stop-color="#7B1FA2"></stop>
</radialGradient>
<radialGradient id="paint2_radial_33_539" cx="0" cy="0" r="1" gradientUnits="userSpaceOnUse" gradientTransform="translate(14.4458 24.7668) rotate(-176.656) scale(7.86102 7.97431)">
<stop offset="0.2611" stop-color="#A73FB9"></stop>
<stop offset="0.4753" stop-color="#A03AB5"></stop>
<stop offset="0.789" stop-color="#8C2BAB"></stop>
<stop offset="1" stop-color="#7B1FA2"></stop>
</radialGradient>
<radialGradient id="paint3_radial_33_539" cx="0" cy="0" r="1" gradientUnits="userSpaceOnUse" gradientTransform="translate(15.287 53.4087) rotate(180) scale(8.43373 8.5561)">
<stop offset="0.1137" stop-color="#A228B5"></stop>
<stop offset="0.3427" stop-color="#9B26B0"></stop>
<stop offset="0.6779" stop-color="#8722A2"></stop>
<stop offset="1" stop-color="#6E1C91"></stop>
</radialGradient>
<radialGradient id="paint4_radial_33_539" cx="0" cy="0" r="1" gradientUnits="userSpaceOnUse" gradientTransform="translate(24.1668 15.9071) rotate(-171.643) scale(7.05721 7.15531)">
<stop offset="0.2611" stop-color="#A73FB9"></stop>
<stop offset="0.4753" stop-color="#A03AB5"></stop>
<stop offset="0.789" stop-color="#8C2BAB"></stop>
<stop offset="1" stop-color="#7B1FA2"></stop>
</radialGradient>
<radialGradient id="paint5_radial_33_539" cx="0" cy="0" r="1" gradientUnits="userSpaceOnUse" gradientTransform="translate(15.6 36.6446) rotate(-176.656) scale(8.3131 8.43291)">
<stop offset="0.2611" stop-color="#A73FB9"></stop>
<stop offset="0.4753" stop-color="#A03AB5"></stop>
<stop offset="0.789" stop-color="#8C2BAB"></stop>
<stop offset="1" stop-color="#7B1FA2"></stop>
</radialGradient>
<radialGradient id="paint6_radial_33_539" cx="0" cy="0" r="1" gradientUnits="userSpaceOnUse" gradientTransform="translate(31.8428 49.3223) rotate(180) scale(8.28773 8.40798)">
<stop offset="0.0061452" stop-color="#9B3AAB"></stop>
<stop offset="0.2662" stop-color="#9434A7"></stop>
<stop offset="0.6473" stop-color="#80259C"></stop>
<stop offset="1" stop-color="#68128F"></stop>
</radialGradient>
<radialGradient id="paint7_radial_33_539" cx="0" cy="0" r="1" gradientUnits="userSpaceOnUse" gradientTransform="translate(24.7404 37.1719) rotate(180) scale(9.75853 9.90012)">
<stop stop-color="#A73FB9"></stop>
<stop offset="1" stop-color="#7B1FA2"></stop>
</radialGradient>
<radialGradient id="paint8_radial_33_539" cx="0" cy="0" r="1" gradientUnits="userSpaceOnUse" gradientTransform="translate(34.8493 16.6478) rotate(-176.656) scale(6.23436 6.3242)">
<stop offset="0.2611" stop-color="#A73FB9"></stop>
<stop offset="0.4753" stop-color="#A03AB5"></stop>
<stop offset="0.789" stop-color="#8C2BAB"></stop>
<stop offset="1" stop-color="#7B1FA2"></stop>
</radialGradient>
<radialGradient id="paint9_radial_33_539" cx="0" cy="0" r="1" gradientUnits="userSpaceOnUse" gradientTransform="translate(49.8718 24.5942) rotate(180) scale(9.66933 9.80963)">
<stop offset="0.2611" stop-color="#A73FB9"></stop>
<stop offset="0.4753" stop-color="#A03AB5"></stop>
<stop offset="0.789" stop-color="#8C2BAB"></stop>
<stop offset="1" stop-color="#7B1FA2"></stop>
</radialGradient>
<radialGradient id="paint10_radial_33_539" cx="0" cy="0" r="1" gradientUnits="userSpaceOnUse" gradientTransform="translate(23.0188 25.2787) rotate(-176.656) scale(7.86102 7.97431)">
<stop offset="0.2611" stop-color="#A73FB9"></stop>
<stop offset="0.4753" stop-color="#A03AB5"></stop>
<stop offset="0.789" stop-color="#8C2BAB"></stop>
<stop offset="1" stop-color="#7B1FA2"></stop>
</radialGradient>
<radialGradient id="paint11_radial_33_539" cx="0" cy="0" r="1" gradientUnits="userSpaceOnUse" gradientTransform="translate(39.9443 36.8192) rotate(-176.656) scale(7.09581 7.19807)">
<stop offset="0.2611" stop-color="#A234B5"></stop>
<stop offset="0.4934" stop-color="#9B30B1"></stop>
<stop offset="0.8338" stop-color="#8726A8"></stop>
<stop offset="1" stop-color="#7B1FA2"></stop>
</radialGradient>
<radialGradient id="paint12_radial_33_539" cx="0" cy="0" r="1" gradientUnits="userSpaceOnUse" gradientTransform="translate(31.7954 27.1559) rotate(-176.656) scale(8.55534 8.67864)">
<stop offset="0.2611" stop-color="#A73FB9"></stop>
<stop offset="0.4753" stop-color="#A03AB5"></stop>
<stop offset="0.789" stop-color="#8C2BAB"></stop>
<stop offset="1" stop-color="#7B1FA2"></stop>
</radialGradient>
<linearGradient id="paint13_linear_33_539" x1="40.7953" y1="12.0449" x2="44.8938" y2="30.807" gradientUnits="userSpaceOnUse">
<stop offset="0.0061452" stop-color="#689F38"></stop>
<stop offset="1" stop-color="#9CCC65"></stop>
</linearGradient>
</defs>
</svg>
